<svg width="152" height="160" viewBox="0 0 152 160" fill="none" xmlns="http://www.w3.org/2000/svg">
<path d="M94.3576 19.1457C84.7143 15.5137 53.1009 5.10899 44.0685 9.27279C43.5375 9.51647 43.0069 9.717 42.5848 10.1474L4.22643 107.351C4.27878 113.904 23.1605 124.692 28.6501 127.654C46.3279 137.194 70.5485 146.692 90.3031 150.138C94.8031 150.923 107.354 152.874 109.938 148.218L147.365 52.071C147.357 51.3018 146.984 50.6998 146.665 50.0361C141.325 39.0497 106.099 23.5672 94.3605 19.1468L94.3576 19.1457Z" fill="#F6F6F6" stroke="#1B1B1B" stroke-miterlimit="10"/>
<path d="M94.3572 19.1458C106.095 23.569 141.322 39.0487 146.661 50.035C146.984 50.697 147.355 51.2979 147.362 52.0699L109.935 148.217C107.35 152.873 94.7999 150.922 90.2999 150.137C70.5481 146.692 46.3287 137.191 28.6468 127.653C23.1573 124.691 4.27555 113.903 4.2232 107.35L42.5816 10.1464C43.0026 9.71884 43.5343 9.51542 44.0653 9.27174C53.0948 5.1068 84.711 15.5126 94.3543 19.1446L94.3572 19.1458ZM82.347 18.2559C74.521 15.6207 54.7307 10.0198 47.0505 11.8845C45.7875 12.1916 43.6003 12.6283 43.9491 14.4526C44.9145 15.9509 45.9324 17.4003 47.1964 18.6718C62.1317 33.6805 117.094 55.6649 138.194 55.0807C141.04 55.0009 145.181 55.0562 143.605 51.3527C138.778 40.002 94.4802 22.3413 82.347 18.2559ZM142.36 57.7366C134.903 58.7251 126.654 57.2889 119.316 55.5184C100.355 50.9382 78.6323 42.1837 61.6531 32.5301C54.6616 28.5541 47.5266 23.958 42.3587 17.7251L31.5715 45.056C32.962 47.933 35.1323 49.8269 37.5028 51.8441C54.2773 66.1037 104.084 86.5012 125.959 86.0709C127.853 86.0329 129.836 85.9539 131.573 85.0675L142.36 57.7366ZM130.127 88.7308C120.953 89.9578 110.769 87.5945 101.855 85.1667C83.0869 80.0546 61.8798 71.2564 45.2675 61.1104C39.7118 57.7188 34.1602 53.8961 30.1296 48.7176L19.3424 76.0485C20.0663 78.0495 21.6065 79.538 23.0801 80.9767C38.3489 95.9057 93.4099 118.229 114.641 117.018C116.253 116.928 117.882 116.87 119.341 116.059L130.128 88.728L130.127 88.7308ZM117.673 120.286C111.177 120.337 104.802 119.601 98.4293 118.253C79.5155 114.258 58.5028 106.044 41.4458 96.8817C32.9144 92.2996 24.5664 87.1183 17.6713 80.2742L7.10651 107.042C7.7629 108.902 9.15791 110.296 10.5024 111.65C25.5568 126.819 81.1563 149.225 102.405 148.011C104.017 147.921 105.646 147.863 107.105 147.052L117.67 120.285L117.673 120.286Z" fill="#F6F6F6" stroke="#1B1B1B" stroke-miterlimit="10"/>
<path d="M142.346 57.7106L131.567 85.0145C129.833 85.9011 127.852 85.98 125.956 86.0168C104.096 86.4467 54.3238 66.0694 37.5609 51.824C35.192 49.8087 33.0232 47.9168 31.6337 45.0426L42.4135 17.7388C47.5778 23.9655 54.7108 28.5582 61.6946 32.5291C78.6592 42.172 100.369 50.919 119.318 55.4947C126.649 57.2663 134.894 58.6981 142.346 57.7106ZM48.8667 32.1946C41.4753 31.0542 36.5678 43.1145 44.782 47.3381C54.9931 52.5866 62.1429 34.2419 48.8667 32.1946ZM126.135 70.7846L92.056 61.0283C91.0937 60.8862 90.1447 63.3572 90.923 63.898C101.765 68.1615 113.112 71.2467 124.587 73.1188L126.136 70.7817L126.135 70.7846Z" fill="#F6F6F6" stroke="#1B1B1B" stroke-miterlimit="10"/>
<path d="M117.594 120.321L107.037 147.062C105.579 147.872 103.948 147.928 102.34 148.02C81.1059 149.233 25.545 126.849 10.501 111.695C9.15574 110.339 7.76343 108.95 7.10749 107.091L17.6649 80.3511C24.5541 87.1912 32.8974 92.3644 41.4229 96.9419C58.4681 106.095 79.4645 114.297 98.3669 118.292C104.735 119.638 111.105 120.373 117.597 120.322L117.594 120.321ZM20.4075 95.3581C12.11 98.9409 15.6935 112.944 25.6753 110.287C36.6933 107.35 30.2515 91.1098 20.4075 95.3581ZM101.606 132.832C94.722 130.784 87.528 129.639 80.5611 127.667C77.8791 126.907 69.4706 123.378 67.6041 123.476C65.4036 123.597 65.2885 125.207 67.402 126.349C72.7702 129.244 83.7329 131.85 89.9455 133.27C93.2803 134.032 96.6549 134.727 100.05 135.15L101.607 132.829L101.606 132.832Z" fill="#F6F6F6" stroke="#1B1B1B" stroke-miterlimit="10"/>
<path d="M130.081 88.7358L119.301 116.04C117.844 116.85 116.213 116.906 114.604 116.998C93.388 118.208 38.3649 95.9065 23.1066 80.9922C21.634 79.555 20.092 78.0668 19.3715 76.0689L30.1513 48.7651C34.179 53.9386 39.7279 57.7546 45.2787 61.1457C61.8795 71.2817 83.075 80.0722 101.828 85.1781C110.735 87.6035 120.912 89.9644 130.08 88.7387L130.081 88.7358ZM37.7635 63.6712C28.248 61.2987 23.5066 76.6352 34.6643 79.2089C44.1528 81.3976 47.5929 66.1226 37.7635 63.6712ZM113.867 101.809C102.432 98.828 90.8124 96.5517 79.7973 92.0627C75.1073 94.5906 82.7176 96.6468 85.331 97.589C90.359 99.3972 96.9455 101.047 102.21 102.248C105.545 103.01 108.919 103.705 112.315 104.128L113.871 101.807L113.867 101.809Z" fill="#F6F6F6" stroke="#1B1B1B" stroke-miterlimit="10"/>
<path d="M82.4063 18.2338C94.5285 22.3128 138.786 39.9455 143.61 51.2783C145.184 54.9759 141.046 54.9236 138.203 55.0004C117.122 55.5836 62.2121 33.6352 47.2874 18.6491C46.0244 17.3795 45.0075 15.9324 44.0429 14.4364C43.6944 12.615 45.8796 12.179 47.1416 11.8725C54.8148 10.0107 74.5873 15.6027 82.4063 18.2338Z" fill="#F6F6F6" stroke="#1B1B1B" stroke-miterlimit="10"/>
<path d="M48.8858 32.2125C62.1703 34.2617 55.0189 52.6247 44.7985 47.3702C36.5792 43.1427 41.4897 31.0711 48.8858 32.2125ZM48.9236 35.4637C43.5697 34.4968 41.2776 43.1549 46.8557 44.8407C53.3971 46.8188 55.5384 36.6588 48.9236 35.4637Z" fill="#F6F6F6" stroke="#1B1B1B" stroke-miterlimit="10"/>
<path d="M126.118 70.7694L124.568 73.1052C113.097 71.2313 101.749 68.1496 90.9118 63.8898C90.1348 63.3464 91.0825 60.8797 92.0445 61.0217L126.117 70.7723L126.118 70.7694Z" fill="#F6F6F6" stroke="#1B1B1B" stroke-miterlimit="10"/>
<path d="M20.4235 95.377C30.2706 91.1236 36.7192 107.38 25.6944 110.32C15.7084 112.983 12.1238 98.9643 20.4235 95.377ZM28.1743 101.052C26.1368 95.0462 15.5984 99.0329 19.8399 105.358C23.1646 110.313 29.7652 105.733 28.1743 101.052Z" fill="#F6F6F6" stroke="#1B1B1B" stroke-miterlimit="10"/>
<path d="M101.589 132.817L100.032 135.137C96.6389 134.711 93.2668 134.02 89.9298 133.258C83.7184 131.838 72.758 129.234 67.3908 126.34C65.2778 125.2 65.3899 123.589 67.5929 123.469C69.4602 123.368 77.8658 126.899 80.5472 127.658C87.5128 129.629 94.7053 130.773 101.588 132.82L101.589 132.817Z" fill="#F6F6F6" stroke="#1B1B1B" stroke-miterlimit="10"/>
<path d="M37.783 63.6898C47.6184 66.1435 44.1774 81.4297 34.6819 79.2418C23.5173 76.6658 28.2605 61.3179 37.783 63.6898ZM34.2456 66.9087C29.4419 68.5424 30.598 76.4027 36.2 76.2869C42.8587 76.1512 41.4377 64.4628 34.2456 66.9087Z" fill="#F6F6F6" stroke="#1B1B1B" stroke-miterlimit="10"/>
<path d="M113.85 101.794L112.294 104.113C108.9 103.687 105.528 102.997 102.191 102.235C96.9286 101.032 90.3423 99.3853 85.3154 97.5781C82.7014 96.6393 75.0966 94.5826 79.7827 92.055C90.7956 96.5415 102.413 98.8165 113.846 101.795L113.85 101.794Z" fill="#F6F6F6" stroke="#1B1B1B" stroke-miterlimit="10"/>
<path d="M48.9236 35.4638C55.5384 36.6589 53.3971 46.8188 46.8557 44.8407C41.2777 43.1549 43.5697 34.4969 48.9236 35.4638Z" fill="#F6F6F6" stroke="#1B1B1B" stroke-miterlimit="10"/>
<path d="M28.1747 101.052C29.7656 105.733 23.1611 110.315 19.8403 105.358C15.6017 99.034 26.1373 95.0461 28.1747 101.052Z" fill="#F6F6F6" stroke="#1B1B1B" stroke-miterlimit="10"/>
<path d="M34.2455 66.9085C41.4376 64.4626 42.8557 76.1499 36.1999 76.2867C30.5979 76.4025 29.4418 68.5422 34.2455 66.9085Z" fill="#F6F6F6" stroke="#1B1B1B" stroke-miterlimit="10"/>
</svg>
