<svg width="152" height="160" viewBox="0 0 152 160" fill="none" xmlns="http://www.w3.org/2000/svg">
<path d="M94.3576 19.1452C84.7143 15.5132 53.1009 5.10851 44.0685 9.2723C43.5375 9.51598 43.0069 9.71651 42.5848 10.1469L4.22643 107.35C4.27878 113.904 23.1605 124.691 28.6501 127.653C46.3279 137.194 70.5485 146.691 90.3031 150.137C94.8031 150.922 107.354 152.874 109.938 148.218L147.365 52.0705C147.357 51.3013 146.984 50.6993 146.665 50.0356C141.325 39.0493 106.099 23.5667 94.3605 19.1463L94.3576 19.1452Z" fill="#D18BA5" stroke="white" stroke-miterlimit="10"/>
<path d="M94.3575 19.1453C106.095 23.5686 141.322 39.0482 146.662 50.0346C146.985 50.6965 147.355 51.2974 147.362 52.0695L109.935 148.217C107.351 152.873 94.8001 150.921 90.3001 150.136C70.5483 146.692 46.3289 137.191 28.6471 127.652C23.1575 124.69 4.27579 113.902 4.22344 107.349L42.5818 10.1459C43.0028 9.71835 43.5345 9.51493 44.0655 9.27126C53.095 5.10631 84.7113 15.5122 94.3546 19.1441L94.3575 19.1453ZM82.3473 18.2554C74.5212 15.6202 54.7309 10.0193 47.0508 11.884C45.7877 12.1911 43.6005 12.6278 43.9493 14.4521C44.9147 15.9504 45.9326 17.3998 47.1967 18.6714C62.132 33.6801 117.094 55.6644 138.194 55.0802C141.04 55.0005 145.181 55.0557 143.606 51.3522C138.778 40.0015 94.4804 22.3409 82.3473 18.2554ZM142.361 57.7361C134.903 58.7246 126.654 57.2884 119.316 55.518C100.355 50.9378 78.6325 42.1832 61.6533 32.5296C54.6619 28.5536 47.5268 23.9575 42.3589 17.7246L31.5717 45.0555C32.9623 47.9325 35.1325 49.8264 37.503 51.8436C54.2775 66.1032 104.084 86.5007 125.959 86.0704C127.853 86.0324 129.836 85.9534 131.573 85.0671L142.361 57.7361ZM130.127 88.7303C120.953 89.9573 110.769 87.594 101.855 85.1662C83.0872 80.0541 61.88 71.2559 45.2678 61.1099C39.712 57.7184 34.1604 53.8956 30.1299 48.7171L19.3427 76.048C20.0666 78.049 21.6068 79.5375 23.0804 80.9762C38.3492 95.9052 93.4102 118.229 114.641 117.018C116.253 116.927 117.883 116.87 119.341 116.058L130.129 88.7275L130.127 88.7303ZM117.673 120.285C111.177 120.336 104.802 119.6 98.4296 118.253C79.5158 114.258 58.5031 106.043 41.446 96.8812C32.9146 92.2991 24.5666 87.1178 17.6715 80.2737L7.10675 107.041C7.76314 108.902 9.15815 110.296 10.5027 111.649C25.557 126.819 81.1565 149.225 102.405 148.011C104.018 147.92 105.647 147.863 107.105 147.051L117.67 120.284L117.673 120.285Z" fill="#D18BA5" stroke="white" stroke-miterlimit="10"/>
<path d="M142.347 57.7106L131.567 85.0145C129.833 85.9011 127.852 85.98 125.957 86.0168C104.096 86.4467 54.3241 66.0694 37.5611 51.824C35.1923 49.8087 33.0235 47.9168 31.6339 45.0426L42.4137 17.7388C47.578 23.9655 54.711 28.5582 61.6948 32.5291C78.6595 42.172 100.37 50.919 119.318 55.4947C126.65 57.2663 134.895 58.6981 142.347 57.7106ZM48.867 32.1946C41.4755 31.0542 36.5681 43.1145 44.7822 47.3381C54.9933 52.5866 62.1431 34.2419 48.867 32.1946ZM126.136 70.7846L92.0562 61.0283C91.094 60.8862 90.145 63.3572 90.9233 63.898C101.765 68.1615 113.113 71.2467 124.587 73.1188L126.137 70.7817L126.136 70.7846Z" fill="#D18BA5" stroke="white" stroke-miterlimit="10"/>
<path d="M117.594 120.321L107.037 147.062C105.579 147.872 103.948 147.928 102.34 148.02C81.1059 149.233 25.545 126.849 10.501 111.695C9.15574 110.339 7.76343 108.95 7.10749 107.091L17.6649 80.3511C24.5541 87.1912 32.8974 92.3644 41.4229 96.9419C58.4681 106.095 79.4645 114.297 98.3669 118.292C104.735 119.638 111.105 120.373 117.597 120.322L117.594 120.321ZM20.4075 95.3581C12.11 98.9409 15.6935 112.944 25.6753 110.287C36.6933 107.35 30.2515 91.1098 20.4075 95.3581ZM101.606 132.832C94.722 130.784 87.528 129.639 80.5611 127.667C77.8791 126.907 69.4706 123.378 67.6041 123.476C65.4036 123.597 65.2885 125.207 67.402 126.349C72.7702 129.244 83.7329 131.85 89.9455 133.27C93.2803 134.032 96.6549 134.727 100.05 135.15L101.607 132.829L101.606 132.832Z" fill="#D18BA5" stroke="white" stroke-miterlimit="10"/>
<path d="M130.081 88.7354L119.301 116.039C117.844 116.85 116.213 116.906 114.604 116.998C93.388 118.207 38.3649 95.906 23.1066 80.9918C21.634 79.5546 20.092 78.0663 19.3715 76.0684L30.1513 48.7646C34.179 53.9381 39.7279 57.7541 45.2787 61.1452C61.8795 71.2812 83.075 80.0717 101.828 85.1777C110.735 87.603 120.912 89.9639 130.08 88.7382L130.081 88.7354ZM37.7635 63.6707C28.248 61.2982 23.5066 76.6348 34.6643 79.2084C44.1528 81.3972 47.5929 66.1222 37.7635 63.6707ZM113.867 101.808C102.432 98.8275 90.8124 96.5512 79.7973 92.0622C75.1073 94.5901 82.7176 96.6463 85.331 97.5885C90.359 99.3967 96.9455 101.047 102.21 102.248C105.545 103.009 108.919 103.704 112.315 104.127L113.871 101.806L113.867 101.808Z" fill="#D18BA5" stroke="white" stroke-miterlimit="10"/>
<path d="M82.4061 18.2333C94.5283 22.3123 138.786 39.945 143.609 51.2778C145.183 54.9754 141.045 54.9231 138.203 54.9999C117.122 55.5831 62.2119 33.6347 47.2871 18.6486C46.0242 17.379 45.0072 15.9319 44.0427 14.4359C43.6942 12.6145 45.8794 12.1785 47.1413 11.872C54.8146 10.0102 74.5871 15.6023 82.4061 18.2333Z" fill="#D18BA5" stroke="white" stroke-miterlimit="10"/>
<path d="M48.8855 32.2125C62.17 34.2617 55.0186 52.6247 44.7982 47.3702C36.5789 43.1427 41.4895 31.0711 48.8855 32.2125ZM48.9234 35.4637C43.5694 34.4968 41.2774 43.1549 46.8554 44.8407C53.3968 46.8188 55.5382 36.6588 48.9234 35.4637Z" fill="#D18BA5" stroke="white" stroke-miterlimit="10"/>
<path d="M126.118 70.7694L124.569 73.1052C113.098 71.2313 101.749 68.1496 90.912 63.8898C90.135 63.3464 91.0827 60.8797 92.0448 61.0217L126.117 70.7723L126.118 70.7694Z" fill="#D18BA5" stroke="white" stroke-miterlimit="10"/>
<path d="M20.4235 95.3765C30.2706 91.1232 36.7192 107.38 25.6944 110.32C15.7084 112.983 12.1238 98.9639 20.4235 95.3765ZM28.1743 101.051C26.1368 95.0457 15.5984 99.0324 19.8399 105.357C23.1646 110.313 29.7652 105.733 28.1743 101.051Z" fill="#D18BA5" stroke="white" stroke-miterlimit="10"/>
<path d="M101.589 132.816L100.032 135.136C96.6389 134.71 93.2668 134.02 89.9298 133.258C83.7184 131.838 72.758 129.234 67.3908 126.34C65.2778 125.199 65.3899 123.588 67.5929 123.469C69.4602 123.368 77.8658 126.898 80.5472 127.658C87.5128 129.628 94.7053 130.772 101.588 132.819L101.589 132.816Z" fill="#D18BA5" stroke="white" stroke-miterlimit="10"/>
<path d="M37.783 63.6893C47.6184 66.143 44.1774 81.4293 34.6819 79.2414C23.5173 76.6653 28.2605 61.3175 37.783 63.6893ZM34.2456 66.9082C29.4419 68.5419 30.598 76.4022 36.2 76.2864C42.8587 76.1507 41.4377 64.4624 34.2456 66.9082Z" fill="#D18BA5" stroke="white" stroke-miterlimit="10"/>
<path d="M113.85 101.793L112.294 104.113C108.9 103.687 105.528 102.997 102.191 102.234C96.9289 101.031 90.3426 99.3849 85.3156 97.5777C82.7016 96.6389 75.0968 94.5822 79.783 92.0545C90.7958 96.541 102.414 98.816 113.846 101.795L113.85 101.793Z" fill="#D18BA5" stroke="white" stroke-miterlimit="10"/>
<path d="M48.9234 35.4633C55.5381 36.6584 53.3968 46.8183 46.8554 44.8402C41.2774 43.1544 43.5695 34.4964 48.9234 35.4633Z" fill="#D18BA5" stroke="white" stroke-miterlimit="10"/>
<path d="M28.1745 101.051C29.7654 105.733 23.1608 110.315 19.8401 105.357C15.6014 99.0335 26.137 95.0456 28.1745 101.051Z" fill="#D18BA5" stroke="white" stroke-miterlimit="10"/>
<path d="M34.2455 66.9085C41.4376 64.4626 42.8557 76.1499 36.1999 76.2867C30.5979 76.4025 29.4418 68.5422 34.2455 66.9085Z" fill="#D18BA5" stroke="white" stroke-miterlimit="10"/>
</svg>
