<svg width="64" height="64" viewBox="0 0 64 64" fill="none" xmlns="http://www.w3.org/2000/svg">
<g filter="url(#filter0_d_191_110)">
<rect x="11.8999" y="5.90002" width="39.4372" height="39.4372" rx="19.7186" fill="#F1D5E1" shape-rendering="crispEdges"/>
<path d="M27.52 19.9683C28.1046 19.9683 28.6448 20.0126 29.1406 20.1458C29.6351 20.2345 30.0421 20.4197 30.4035 20.6416C30.7649 20.8635 31.0337 21.1818 31.2163 21.5888C31.3938 21.9946 31.4902 22.4904 31.4902 23.0305C31.4902 23.6595 31.3558 24.1997 31.0388 24.6054C30.7662 25.0112 30.3211 25.3738 29.7746 25.6414C30.543 25.8646 31.1276 26.2703 31.4839 26.8105C31.8402 27.3507 32.0684 28.024 32.0684 28.7924C32.0684 29.4214 31.9353 29.9615 31.707 30.413C31.4802 30.8679 31.1384 31.2556 30.7154 31.5377C30.3097 31.8103 29.8139 32.0322 29.2737 32.1666C28.7446 32.3067 28.2004 32.3817 27.6532 32.3898L21.6187 32.3987V19.9683H27.52ZM27.1586 25.0125C27.6532 25.0125 28.0589 24.8793 28.3721 24.6511C28.6841 24.4228 28.8223 24.0209 28.8223 23.5263C28.8223 23.2524 28.7779 22.9862 28.6891 22.8074C28.5923 22.6267 28.453 22.4723 28.2834 22.3572C28.0997 22.2563 27.903 22.1812 27.6988 22.134C27.4756 22.0897 27.2474 22.0897 26.9799 22.0897H24.3703V25.0188C24.3703 25.0125 27.1586 25.0125 27.1586 25.0125ZM27.2918 30.3293C27.5644 30.3293 27.832 30.2849 28.0602 30.2405C28.2834 30.1961 28.5116 30.1061 28.6891 29.9666C28.8667 29.8271 29.0062 29.694 29.1406 29.4721C29.2293 29.2489 29.3181 28.9763 29.3181 28.6593C29.3181 28.0303 29.1406 27.5789 28.7779 27.2619C28.4165 26.9893 27.9207 26.8562 27.3362 26.8562H24.3703V30.3229H27.2931L27.2918 30.3293ZM35.9879 30.2849C36.3497 30.6459 36.8899 30.8259 37.6084 30.8251C38.1029 30.8251 38.5544 30.6907 38.917 30.4624C39.2771 30.1919 39.5011 29.9214 39.5891 29.6509H41.7954C41.4328 30.73 40.8926 31.4984 40.1749 31.9942C39.4572 32.4443 38.5987 32.7119 37.5628 32.7119C36.9002 32.7159 36.243 32.5932 35.6265 32.3505C35.0707 32.1454 34.5751 31.8045 34.1848 31.3589C33.7673 30.9444 33.4574 30.4343 33.2819 29.8728C33.06 29.2882 32.9649 28.6593 32.9649 27.9352C32.9649 27.2619 33.0537 26.6266 33.2819 26.0421C33.5102 25.4588 33.8221 24.9617 34.2291 24.5116C34.6349 24.1058 35.1307 23.7432 35.6709 23.52C36.273 23.2796 36.9157 23.157 37.564 23.1586C38.3325 23.1586 39.0058 23.2917 39.5903 23.6088C40.1736 23.9258 40.6263 24.2833 40.9877 24.8235C41.3491 25.318 41.6166 25.9026 41.8005 26.5328C41.8893 27.1618 41.9336 27.7958 41.8893 28.5147H35.3589C35.3589 29.2502 35.6252 29.9222 35.9879 30.2849ZM38.8283 25.5526C38.5112 25.2356 38.0142 25.0568 37.4296 25.0568C37.0239 25.0568 36.7119 25.1456 36.4393 25.28C36.1667 25.4144 35.9879 25.597 35.8104 25.7745C35.6448 25.9487 35.5345 26.168 35.4934 26.4047C35.4477 26.6266 35.4046 26.8105 35.4046 26.988H39.4572C39.3684 26.3211 39.1415 25.8696 38.8283 25.5526ZM34.8631 20.8254H39.9073V22.0389H34.8631V20.8254Z" fill="white"/>
</g>
<defs>
<filter id="filter0_d_191_110" x="-9.72748e-05" y="2.47955e-05" width="63.2373" height="63.2372" filterUnits="userSpaceOnUse" color-interpolation-filters="sRGB">
<feFlood flood-opacity="0" result="BackgroundImageFix"/>
<feColorMatrix in="SourceAlpha" type="matrix" values="0 0 0 0 0 0 0 0 0 0 0 0 0 0 0 0 0 0 127 0" result="hardAlpha"/>
<feOffset dy="6"/>
<feGaussianBlur stdDeviation="5.95"/>
<feComposite in2="hardAlpha" operator="out"/>
<feColorMatrix type="matrix" values="0 0 0 0 0 0 0 0 0 0 0 0 0 0 0 0 0 0 0.25 0"/>
<feBlend mode="normal" in2="BackgroundImageFix" result="effect1_dropShadow_191_110"/>
<feBlend mode="normal" in="SourceGraphic" in2="effect1_dropShadow_191_110" result="shape"/>
</filter>
</defs>
</svg>
