<svg width="64" height="64" viewBox="0 0 64 64" fill="none" xmlns="http://www.w3.org/2000/svg">
<g filter="url(#filter0_d_383_327)">
<rect x="11.9004" y="5.90002" width="39.4372" height="39.4372" rx="19.7186" fill="#B8357D" shape-rendering="crispEdges"/>
<path d="M27.5205 19.9683C28.1051 19.9683 28.6453 20.0126 29.141 20.1458C29.6356 20.2345 30.0426 20.4197 30.404 20.6416C30.7654 20.8635 31.0342 21.1818 31.2168 21.5888C31.3943 21.9946 31.4907 22.4904 31.4907 23.0305C31.4907 23.6595 31.3563 24.1997 31.0393 24.6054C30.7667 25.0112 30.3216 25.3738 29.7751 25.6414C30.5435 25.8646 31.128 26.2703 31.4844 26.8105C31.8407 27.3507 32.0689 28.024 32.0689 28.7924C32.0689 29.4214 31.9358 29.9615 31.7075 30.413C31.4807 30.8679 31.1388 31.2556 30.7159 31.5377C30.3102 31.8103 29.8144 32.0322 29.2742 32.1666C28.7451 32.3067 28.2009 32.3817 27.6537 32.3898L21.6191 32.3987V19.9683H27.5205ZM27.1591 25.0125C27.6537 25.0125 28.0594 24.8793 28.3726 24.6511C28.6846 24.4228 28.8228 24.0209 28.8228 23.5263C28.8228 23.2524 28.7784 22.9862 28.6896 22.8074C28.5928 22.6267 28.4535 22.4723 28.2839 22.3572C28.1002 22.2563 27.9035 22.1812 27.6993 22.134C27.4761 22.0897 27.2479 22.0897 26.9803 22.0897H24.3707V25.0188C24.3707 25.0125 27.1591 25.0125 27.1591 25.0125ZM27.2923 30.3293C27.5649 30.3293 27.8325 30.2849 28.0607 30.2405C28.2839 30.1961 28.5121 30.1061 28.6896 29.9666C28.8672 29.8271 29.0066 29.694 29.141 29.4721C29.2298 29.2489 29.3186 28.9763 29.3186 28.6593C29.3186 28.0303 29.141 27.5789 28.7784 27.2619C28.417 26.9893 27.9212 26.8562 27.3367 26.8562H24.3707V30.3229H27.2935L27.2923 30.3293ZM35.9884 30.2849C36.3502 30.6459 36.8904 30.8259 37.6089 30.8251C38.1034 30.8251 38.5548 30.6907 38.9175 30.4624C39.2776 30.1919 39.5016 29.9214 39.5896 29.6509H41.7959C41.4333 30.73 40.8931 31.4984 40.1754 31.9942C39.4577 32.4443 38.5992 32.7119 37.5633 32.7119C36.9007 32.7159 36.2435 32.5932 35.627 32.3505C35.0712 32.1454 34.5756 31.8045 34.1852 31.3589C33.7678 30.9444 33.4579 30.4343 33.2824 29.8728C33.0605 29.2882 32.9654 28.6593 32.9654 27.9352C32.9654 27.2619 33.0542 26.6266 33.2824 26.0421C33.5107 25.4588 33.8226 24.9617 34.2296 24.5116C34.6354 24.1058 35.1312 23.7432 35.6714 23.52C36.2735 23.2796 36.9162 23.157 37.5645 23.1586C38.3329 23.1586 39.0063 23.2917 39.5908 23.6088C40.1741 23.9258 40.6268 24.2833 40.9882 24.8235C41.3496 25.318 41.6171 25.9026 41.801 26.5328C41.8897 27.1618 41.9341 27.7958 41.8897 28.5147H35.3594C35.3594 29.2502 35.6257 29.9222 35.9884 30.2849ZM38.8287 25.5526C38.5117 25.2356 38.0147 25.0568 37.4301 25.0568C37.0243 25.0568 36.7124 25.1456 36.4398 25.28C36.1672 25.4144 35.9884 25.597 35.8108 25.7745C35.6453 25.9487 35.535 26.168 35.4938 26.4047C35.4482 26.6266 35.4051 26.8105 35.4051 26.988H39.4577C39.3689 26.3211 39.1419 25.8696 38.8287 25.5526ZM34.8636 20.8254H39.9078V22.0389H34.8636V20.8254Z" fill="white"/>
</g>
<defs>
<filter id="filter0_d_383_327" x="0.000391006" y="2.47955e-05" width="63.2375" height="63.2372" filterUnits="userSpaceOnUse" color-interpolation-filters="sRGB">
<feFlood flood-opacity="0" result="BackgroundImageFix"/>
<feColorMatrix in="SourceAlpha" type="matrix" values="0 0 0 0 0 0 0 0 0 0 0 0 0 0 0 0 0 0 127 0" result="hardAlpha"/>
<feOffset dy="6"/>
<feGaussianBlur stdDeviation="5.95"/>
<feComposite in2="hardAlpha" operator="out"/>
<feColorMatrix type="matrix" values="0 0 0 0 0 0 0 0 0 0 0 0 0 0 0 0 0 0 0.25 0"/>
<feBlend mode="normal" in2="BackgroundImageFix" result="effect1_dropShadow_383_327"/>
<feBlend mode="normal" in="SourceGraphic" in2="effect1_dropShadow_383_327" result="shape"/>
</filter>
</defs>
</svg>
