<svg width="43" height="43" viewBox="0 0 43 43" fill="none" xmlns="http://www.w3.org/2000/svg">
<g clip-path="url(#clip0_108_27)">
<path d="M43 21.5C43 27.2022 40.7348 32.6708 36.7028 36.7028C32.6708 40.7348 27.2022 43 21.5 43C15.7978 43 10.3292 40.7348 6.2972 36.7028C2.26517 32.6708 0 27.2022 0 21.5C0 15.7978 2.26517 10.3292 6.2972 6.2972C10.3292 2.26517 15.7978 0 21.5 0C27.2022 0 32.6708 2.26517 36.7028 6.2972C40.7348 10.3292 43 15.7978 43 21.5ZM14.3889 12.4861C14.1366 12.2338 13.7943 12.0921 13.4375 12.0921C13.0807 12.0921 12.7384 12.2338 12.4861 12.4861C12.2338 12.7384 12.0921 13.0807 12.0921 13.4375C12.0921 13.7943 12.2338 14.1366 12.4861 14.3889L19.5999 21.5L12.4861 28.6111C12.3612 28.7361 12.2621 28.8844 12.1945 29.0476C12.1269 29.2109 12.0921 29.3858 12.0921 29.5625C12.0921 29.7392 12.1269 29.9141 12.1945 30.0774C12.2621 30.2406 12.3612 30.3889 12.4861 30.5139C12.7384 30.7662 13.0807 30.9079 13.4375 30.9079C13.6142 30.9079 13.7891 30.8731 13.9524 30.8055C14.1156 30.7379 14.2639 30.6388 14.3889 30.5139L21.5 23.4001L28.6111 30.5139C28.7361 30.6388 28.8844 30.7379 29.0476 30.8055C29.2109 30.8731 29.3858 30.9079 29.5625 30.9079C29.7392 30.9079 29.9141 30.8731 30.0774 30.8055C30.2406 30.7379 30.3889 30.6388 30.5139 30.5139C30.6388 30.3889 30.7379 30.2406 30.8055 30.0774C30.8731 29.9141 30.9079 29.7392 30.9079 29.5625C30.9079 29.3858 30.8731 29.2109 30.8055 29.0476C30.7379 28.8844 30.6388 28.7361 30.5139 28.6111L23.4001 21.5L30.5139 14.3889C30.6388 14.2639 30.7379 14.1156 30.8055 13.9524C30.8731 13.7891 30.9079 13.6142 30.9079 13.4375C30.9079 13.2608 30.8731 13.0859 30.8055 12.9226C30.7379 12.7594 30.6388 12.6111 30.5139 12.4861C30.3889 12.3612 30.2406 12.2621 30.0774 12.1945C29.9141 12.1269 29.7392 12.0921 29.5625 12.0921C29.3858 12.0921 29.2109 12.1269 29.0476 12.1945C28.8844 12.2621 28.7361 12.3612 28.6111 12.4861L21.5 19.5999L14.3889 12.4861Z" fill="#B8357D"/>
</g>
<defs>
<clipPath id="clip0_108_27">
<rect width="43" height="43" fill="white"/>
</clipPath>
</defs>
</svg>
