<svg width="126" height="171" viewBox="0 0 126 171" fill="none" xmlns="http://www.w3.org/2000/svg">
<path d="M62.4092 0C62.4092 15.7733 63.8621 48.958 104 47.32C89.8337 46.8953 61.5011 55.0368 61.5011 91C61.5616 76.44 49.3326 47.32 21 47.32C42.6127 47.32 62.4092 34.944 62.4092 0Z" stroke="#855747" stroke-width="3"/>
<path d="M103.954 91C103.954 98.9733 104.689 115.748 125 114.92C117.832 114.705 103.495 118.821 103.495 137C103.525 129.64 97.337 114.92 83 114.92C93.9365 114.92 103.954 108.664 103.954 91Z" stroke="#855747" stroke-width="3"/>
<path d="M31.4311 102C31.4311 113.96 32.5339 139.122 63 137.88C52.2473 137.558 30.7418 143.731 30.7418 171C30.7877 159.96 21.5055 137.88 0 137.88C16.4048 137.88 31.4311 128.496 31.4311 102Z" stroke="#855747" stroke-width="3"/>
</svg>
