<svg width="94" height="94" viewBox="0 0 94 94" fill="none" xmlns="http://www.w3.org/2000/svg">
<path d="M48.161 0L51.6085 0.235843C80.2274 3.37727 99.3347 31.2001 91.8451 59.3542C86.9917 77.5961 71.194 91.3283 52.5308 93.62L48.161 93.9873C47.2297 93.9585 46.2859 94.0269 45.3564 93.9873C25.0133 93.1304 7.32441 79.6285 1.79047 59.8258C-6.49969 30.1668 15.0146 1.15936 45.3564 0.001802H48.161V0ZM35.0693 27.3728H27.2376V66.6127H35.0693V27.3728ZM66.2797 27.3728H42.7846V35.2434H66.2797V27.3728ZM66.2797 42.9989H42.9601L42.7846 43.1753V50.812L42.9601 50.9884H66.1042L66.2797 50.812V42.9989ZM66.2797 58.7421H42.7846V66.6127H66.2797V58.7421Z" fill="#D18BA5"/>
<path d="M35.0692 27.373H27.2375V66.613H35.0692V27.373Z" fill="white"/>
<path d="M66.2795 42.999V50.8121L66.104 50.9885H42.96L42.7844 50.8121V43.1754L42.96 42.999H66.2795Z" fill="white"/>
<path d="M66.2795 27.373H42.7844V35.2437H66.2795V27.373Z" fill="white"/>
<path d="M66.2795 58.7422H42.7844V66.6129H66.2795V58.7422Z" fill="white"/>
</svg>
