<svg width="75" height="101" viewBox="0 0 75 101" fill="none" xmlns="http://www.w3.org/2000/svg">
<path fill-rule="evenodd" clip-rule="evenodd" d="M23.0161 16.1787L13.3503 20.8444C8.01219 23.4212 5.77354 29.8377 8.3503 35.1759C10.9271 40.514 17.3436 42.7527 22.6818 40.1759L32.3476 35.5102L23.0151 16.1766L23.0161 16.1787ZM19.8524 9.6246L36.0722 1.79519C45.0315 -2.52948 55.7978 1.22845 60.1215 10.1856C62.6735 15.4724 62.4115 21.3881 59.9264 26.2396C65.2708 27.3117 70.0656 30.7865 72.6176 36.0733C76.9413 45.0304 73.1864 55.7978 64.2272 60.1225C60.6041 61.8714 56.6872 62.2983 53.0198 61.5944L59.2272 74.454C63.5508 83.4112 59.7939 94.1796 50.8367 98.5032C41.8796 102.827 31.1112 99.07 26.7875 90.1128C24.2355 84.826 24.4975 78.9103 26.9826 74.0588C21.6381 72.9868 16.8433 69.512 14.2914 64.2252C11.7394 58.9384 12.0013 53.0226 14.4864 48.1712C9.14201 47.0991 4.3472 43.6243 1.79523 38.3375C-2.52944 29.3783 1.22849 18.6119 10.1857 14.2883L19.8514 9.62254L19.8524 9.6246ZM29.5681 13.016L38.9006 32.3496L48.5663 27.6838C53.9045 25.1071 56.1431 18.6905 53.5664 13.3523C50.9896 8.01419 44.573 5.77556 39.2349 8.35232L29.5691 13.018L29.5681 13.016ZM35.1758 66.0646L44.8416 61.3988L35.5092 42.0652L25.8434 46.731C20.5053 49.3077 18.2666 55.7243 20.8434 61.0625C23.4201 66.4006 29.8063 68.6287 35.1379 66.0804L35.1769 66.0615L35.1758 66.0646ZM33.3405 86.9522C30.7697 81.6264 32.9918 75.2279 38.3036 72.6385L38.3426 72.6197L48.0084 67.954L52.6741 77.6197C55.2508 82.9579 53.0122 89.3745 47.674 91.9513C42.3359 94.528 35.9193 92.2893 33.3426 86.9512L33.3405 86.9522ZM46.7211 48.5509C44.1585 43.216 46.398 36.8117 51.73 34.2379C57.062 31.6641 63.4847 33.8998 66.0615 39.2379C68.6383 44.5761 66.3996 50.9927 61.0614 53.5694C55.7233 56.1462 49.322 53.9128 46.7389 48.5879L46.7201 48.5489L46.7211 48.5509Z" fill="#D18BA5"/>
</svg>
