<svg width="64" height="64" viewBox="0 0 64 64" fill="none" xmlns="http://www.w3.org/2000/svg">
<g filter="url(#filter0_d_40_343)">
<rect x="12" y="6.17511" width="39.4372" height="39.4372" rx="19.7186" fill="#F1D5E1" shape-rendering="crispEdges"/>
<path fill-rule="evenodd" clip-rule="evenodd" d="M31.4556 16.1749C25.9038 16.1749 21.4373 20.6414 21.4373 26.1933C21.4373 30.6181 24.3175 34.375 28.2831 35.7107C28.7841 35.7942 28.951 35.502 28.951 35.2098C28.951 34.9594 28.951 34.3332 28.951 33.4984C26.1542 34.1245 25.5698 32.1626 25.5698 32.1626C25.1107 30.9938 24.4428 30.7016 24.4428 30.7016C23.5244 30.0754 24.5263 30.0754 24.5263 30.0754C25.5281 30.1589 26.0707 31.119 26.0707 31.119C26.9474 32.6635 28.4084 32.2043 28.9928 31.9539C29.0763 31.286 29.3267 30.8685 29.6189 30.6181C27.4065 30.3676 25.0689 29.491 25.0689 25.6506C25.0689 24.5653 25.4446 23.647 26.1125 22.9791C26.029 22.7286 25.6533 21.7268 26.196 20.3075C26.196 20.3075 27.0308 20.057 28.951 21.3511C29.7442 21.1424 30.6208 21.0171 31.4556 21.0171C32.2905 21.0171 33.1671 21.1424 33.9602 21.3511C35.8804 20.057 36.7153 20.3075 36.7153 20.3075C37.2579 21.685 36.924 22.6869 36.7987 22.9791C37.4249 23.6887 37.8423 24.5653 37.8423 25.6506C37.8423 29.491 35.5047 30.3259 33.2506 30.5763C33.6263 30.8685 33.9185 31.4947 33.9185 32.413C33.9185 33.7488 33.9185 34.8341 33.9185 35.1681C33.9185 35.4185 34.0854 35.7525 34.6281 35.669C38.5937 34.375 41.474 30.6181 41.474 26.1933C41.474 20.6414 37.0075 16.1749 31.4556 16.1749Z" fill="white"/>
</g>
<defs>
<filter id="filter0_d_40_343" x="0.1" y="0.27511" width="63.2373" height="63.2372" filterUnits="userSpaceOnUse" color-interpolation-filters="sRGB">
<feFlood flood-opacity="0" result="BackgroundImageFix"/>
<feColorMatrix in="SourceAlpha" type="matrix" values="0 0 0 0 0 0 0 0 0 0 0 0 0 0 0 0 0 0 127 0" result="hardAlpha"/>
<feOffset dy="6"/>
<feGaussianBlur stdDeviation="5.95"/>
<feComposite in2="hardAlpha" operator="out"/>
<feColorMatrix type="matrix" values="0 0 0 0 0 0 0 0 0 0 0 0 0 0 0 0 0 0 0.25 0"/>
<feBlend mode="normal" in2="BackgroundImageFix" result="effect1_dropShadow_40_343"/>
<feBlend mode="normal" in="SourceGraphic" in2="effect1_dropShadow_40_343" result="shape"/>
</filter>
</defs>
</svg>
