<svg width="64" height="64" viewBox="0 0 64 64" fill="none" xmlns="http://www.w3.org/2000/svg">
<g filter="url(#filter0_d_86_231)">
<rect x="11.9004" y="5.90002" width="39.4372" height="39.4372" rx="19.7186" fill="#B8357D" shape-rendering="crispEdges"/>
<path fill-rule="evenodd" clip-rule="evenodd" d="M31.3563 15.8998C25.8044 15.8998 21.3379 20.3664 21.3379 25.9182C21.3379 30.343 24.2182 34.0999 28.1838 35.4357C28.6847 35.5191 28.8517 35.2269 28.8517 34.9347C28.8517 34.6843 28.8517 34.0581 28.8517 33.2233C26.0549 33.8494 25.4705 31.8875 25.4705 31.8875C25.0113 30.7187 24.3434 30.4265 24.3434 30.4265C23.425 29.8003 24.4269 29.8003 24.4269 29.8003C25.4287 29.8838 25.9714 30.8439 25.9714 30.8439C26.848 32.3884 28.309 31.9292 28.8934 31.6788C28.9769 31.0109 29.2274 30.5934 29.5196 30.343C27.3072 30.0925 24.9695 29.2159 24.9695 25.3755C24.9695 24.2902 25.3452 23.3719 26.0131 22.704C25.9296 22.4535 25.554 21.4517 26.0966 20.0324C26.0966 20.0324 26.9315 19.782 28.8517 21.076C29.6448 20.8673 30.5214 20.7421 31.3563 20.7421C32.1911 20.7421 33.0677 20.8673 33.8608 21.076C35.781 19.782 36.6159 20.0324 36.6159 20.0324C37.1586 21.4099 36.8246 22.4118 36.6994 22.704C37.3255 23.4136 37.743 24.2902 37.743 25.3755C37.743 29.2159 35.4053 30.0508 33.1512 30.3012C33.5269 30.5934 33.8191 31.2196 33.8191 32.1379C33.8191 33.4737 33.8191 34.559 33.8191 34.893C33.8191 35.1435 33.9861 35.4774 34.5287 35.3939C38.4943 34.0999 41.3746 30.343 41.3746 25.9182C41.3746 20.3664 36.9081 15.8998 31.3563 15.8998Z" fill="white"/>
</g>
<defs>
<filter id="filter0_d_86_231" x="0.000391006" y="2.47955e-05" width="63.2375" height="63.2372" filterUnits="userSpaceOnUse" color-interpolation-filters="sRGB">
<feFlood flood-opacity="0" result="BackgroundImageFix"/>
<feColorMatrix in="SourceAlpha" type="matrix" values="0 0 0 0 0 0 0 0 0 0 0 0 0 0 0 0 0 0 127 0" result="hardAlpha"/>
<feOffset dy="6"/>
<feGaussianBlur stdDeviation="5.95"/>
<feComposite in2="hardAlpha" operator="out"/>
<feColorMatrix type="matrix" values="0 0 0 0 0 0 0 0 0 0 0 0 0 0 0 0 0 0 0.25 0"/>
<feBlend mode="normal" in2="BackgroundImageFix" result="effect1_dropShadow_86_231"/>
<feBlend mode="normal" in="SourceGraphic" in2="effect1_dropShadow_86_231" result="shape"/>
</filter>
</defs>
</svg>
