<svg width="43" height="43" viewBox="0 0 43 43" fill="none" xmlns="http://www.w3.org/2000/svg">
<g clip-path="url(#clip0_191_561)">
<path d="M12.2147 18.0439L11.0456 21.5H8.0625L13.0666 8.0625H16.5174L21.5 21.5H18.3637L17.1946 18.0439H12.2147ZM16.6061 16.0659L14.7812 10.6318H14.6496L12.8247 16.0659H16.6061Z" fill="#D18BA5"/>
<path d="M0 5.375C0 3.94946 0.566293 2.58231 1.5743 1.5743C2.58231 0.566293 3.94946 0 5.375 0L24.1875 0C25.613 0 26.9802 0.566293 27.9882 1.5743C28.9962 2.58231 29.5625 3.94946 29.5625 5.375V13.4375H37.625C39.0505 13.4375 40.4177 14.0038 41.4257 15.0118C42.4337 16.0198 43 17.387 43 18.8125V37.625C43 39.0505 42.4337 40.4177 41.4257 41.4257C40.4177 42.4337 39.0505 43 37.625 43H18.8125C17.387 43 16.0198 42.4337 15.0118 41.4257C14.0038 40.4177 13.4375 39.0505 13.4375 37.625V29.5625H5.375C3.94946 29.5625 2.58231 28.9962 1.5743 27.9882C0.566293 26.9802 0 25.613 0 24.1875V5.375ZM5.375 2.6875C4.66223 2.6875 3.97865 2.97065 3.47465 3.47465C2.97065 3.97865 2.6875 4.66223 2.6875 5.375V24.1875C2.6875 24.9003 2.97065 25.5838 3.47465 26.0878C3.97865 26.5919 4.66223 26.875 5.375 26.875H24.1875C24.9003 26.875 25.5838 26.5919 26.0878 26.0878C26.5919 25.5838 26.875 24.9003 26.875 24.1875V5.375C26.875 4.66223 26.5919 3.97865 26.0878 3.47465C25.5838 2.97065 24.9003 2.6875 24.1875 2.6875H5.375ZM24.5584 29.5491C25.0762 30.3571 25.6405 31.115 26.2515 31.8227C24.2412 33.368 21.7553 34.5129 18.8125 35.2949C19.2909 35.8781 20.0246 37.0015 20.3041 37.625C23.3275 36.6602 25.8941 35.3568 28.0602 33.6099C30.1484 35.3971 32.7337 36.7408 35.9346 37.5659C36.292 36.8832 37.0472 35.7572 37.625 35.174C34.6016 34.4941 32.0968 33.3089 30.0463 31.7232C31.8764 29.7157 33.3304 27.2862 34.4027 24.3138H37.625V21.5H29.5625V24.3138H31.6184C30.7638 26.5821 29.6297 28.4687 28.1999 30.0382C27.8048 29.6177 27.4325 29.1763 27.0846 28.7159C26.3256 29.2009 25.457 29.4874 24.5584 29.5491Z" fill="#D18BA5"/>
</g>
<defs>
<clipPath id="clip0_191_561">
<rect width="43" height="43" fill="white"/>
</clipPath>
</defs>
</svg>
