<svg width="120" height="121" viewBox="0 0 120 121" fill="none" xmlns="http://www.w3.org/2000/svg">
<path d="M71.6127 5.9695L16.8767 25.559C7.66466 28.8559 2.85561 39.0354 6.13545 48.2954L25.6235 103.317C28.9033 112.577 39.03 117.411 48.2421 114.114L102.978 94.5242C112.19 91.2273 116.999 81.0479 113.719 71.7878L94.2313 16.7667C90.9515 7.50666 80.8248 2.67258 71.6127 5.9695Z" fill="#F6F6F6"/>
<path d="M48.8719 72.9119L49.0636 83.0598C49.0706 83.4283 48.9443 83.5972 48.616 83.7149L43.1375 85.6794C42.8093 85.7971 42.6413 85.6707 42.5596 85.2682L42.4609 49.0196C42.4858 48.3923 42.4562 47.7825 41.9053 45.8755C41.8277 45.6559 41.8786 45.4511 42.0974 45.3727L49.7124 42.6421C49.9869 42.5437 50.0597 42.5784 50.2127 42.8338L75.3402 73.5747C75.5104 73.8847 75.5152 74.0696 75.1869 74.1873L69.0519 76.3871C68.7774 76.4856 68.5754 76.4343 68.3884 76.254L61.9672 68.2163L48.8738 72.9113L48.8719 72.9119ZM58.094 62.8577C55.6617 59.6424 50.3853 52.9276 47.9317 49.4747L47.8761 49.4947C48.3004 53.4908 48.3829 60.7054 48.5075 66.2951L58.094 62.8577Z" fill="#1B1B1B"/>
<path d="M66.8696 38.2236C66.072 35.9691 67.1191 33.8592 69.3126 33.0732C71.6713 32.228 73.6083 33.3317 74.3862 35.5303C75.164 37.7289 74.2463 39.8554 71.9432 40.6807C69.6401 41.5059 67.6672 40.478 66.8696 38.2236ZM70.036 45.9495C69.9386 45.6739 70.065 45.5049 70.338 45.407L76.1533 43.3234C76.482 43.2056 76.6114 43.2222 76.728 43.5517L86.0276 69.8384C86.1442 70.1679 86.0735 70.317 85.689 70.4548L80.0372 72.4798C79.6527 72.6176 79.4307 72.5105 79.3141 72.181L70.0342 45.9501L70.036 45.9495Z" fill="#1B1B1B"/>
</svg>
