<svg width="100" height="100" viewBox="0 0 100 100" fill="none" xmlns="http://www.w3.org/2000/svg">
<path d="M75.6996 1.07609L17.7042 4.60807C7.94357 5.2025 0.510393 13.6382 1.10175 23.4496L4.61542 81.7471C5.20677 91.5586 13.5987 99.0305 23.3594 98.436L81.3547 94.904C91.1154 94.3096 98.5486 85.8739 97.9572 76.0625L94.4435 17.765C93.8522 7.95356 85.4602 0.481659 75.6996 1.07609Z" fill="#D18BA5"/>
<path d="M38.5214 68.4377C38.5459 68.8461 38.437 68.9696 38.0891 68.9909L31.9927 69.3636C31.6448 69.3849 31.5183 69.2164 31.4974 68.8671L29.2579 31.5689C29.2334 31.1605 29.4049 31.0926 29.6938 31.075L35.7902 30.7023C36.1381 30.681 36.261 30.7903 36.282 31.1395L38.5214 68.4377Z" fill="white"/>
<path d="M43.5523 54.5055C43.0453 46.0566 48.9039 38.913 59.1133 38.2885C59.9262 38.2387 60.6249 38.2554 61.6177 38.3115L60.9009 26.365C60.8834 26.073 60.9923 25.9495 61.224 25.9354L67.5471 25.5485C67.8378 25.5308 67.8448 25.6472 67.8587 25.8799L69.9705 61.0763C70.0405 62.2421 70.2472 63.7501 70.426 64.7924C70.4436 65.0844 70.3916 65.2044 70.1099 65.3384C66.4375 67.2005 62.7626 68.0688 59.2829 68.2816C50.8723 68.7962 44.1397 64.2959 43.5523 54.5055ZM61.9849 44.4307C61.2133 44.1849 60.2775 44.1253 59.2347 44.1891C54.0721 44.5049 50.3853 48.0646 50.7244 53.7163C51.1055 60.0683 55.0331 62.4593 59.6734 62.1755C60.8339 62.1045 61.9875 61.9171 63.0093 61.5041L61.9849 44.4307Z" fill="white"/>
</svg>
