<svg width="100" height="100" viewBox="0 0 100 100" fill="none" xmlns="http://www.w3.org/2000/svg">
<path d="M75.6998 1.07609L17.7045 4.60807C7.94382 5.2025 0.510637 13.6382 1.10199 23.4496L4.61567 81.7471C5.20702 91.5586 13.599 99.0305 23.3596 98.436L81.355 94.904C91.1156 94.3096 98.5488 85.8739 97.9574 76.0625L94.4438 17.765C93.8524 7.95356 85.4605 0.481659 75.6998 1.07609Z" fill="#F6F6F6"/>
<path d="M38.5214 68.4377C38.5459 68.8461 38.437 68.9696 38.0891 68.9909L31.9927 69.3636C31.6448 69.3849 31.5183 69.2164 31.4974 68.8671L29.2579 31.5689C29.2334 31.1605 29.4049 31.0926 29.6938 31.075L35.7902 30.7023C36.1381 30.681 36.261 30.7903 36.282 31.1395L38.5214 68.4377Z" fill="#1B1B1B"/>
<path d="M43.552 54.5055C43.0451 46.0566 48.9037 38.913 59.113 38.2885C59.926 38.2387 60.6247 38.2554 61.6175 38.3115L60.9007 26.365C60.8832 26.073 60.992 25.9495 61.2237 25.9354L67.5469 25.5485C67.8375 25.5308 67.8445 25.6472 67.8585 25.8799L69.9703 61.0763C70.0402 62.2421 70.247 63.7501 70.4258 64.7924C70.4433 65.0844 70.3914 65.2044 70.1097 65.3384C66.4373 67.2005 62.7624 68.0688 59.2827 68.2816C50.8721 68.7962 44.1394 64.2959 43.552 54.5055ZM61.9846 44.4307C61.213 44.1849 60.2772 44.1253 59.2345 44.1891C54.0719 44.5049 50.385 48.0646 50.7241 53.7163C51.1052 60.0683 55.0329 62.4593 59.6731 62.1755C60.8337 62.1045 61.9872 61.9171 63.009 61.5041L61.9846 44.4307Z" fill="#1B1B1B"/>
</svg>
