<svg width="64" height="64" viewBox="0 0 64 64" fill="none" xmlns="http://www.w3.org/2000/svg">
<g filter="url(#filter0_d_86_226)">
<rect x="11.8999" y="5.90002" width="39.4372" height="39.7379" rx="19.7186" fill="#B8357D" shape-rendering="crispEdges"/>
<path d="M31.3999 15.9C28.8218 15.9 28.4977 15.9119 27.4847 15.957C26.4718 16.0045 25.7818 16.1636 25.1774 16.3988C24.5431 16.6367 23.9687 17.0108 23.4947 17.4948C23.0107 17.9688 22.6365 18.5432 22.3987 19.1775C22.1635 19.7808 22.0032 20.4719 21.9569 21.4813C21.9118 22.4966 21.8999 22.8196 21.8999 25.4012C21.8999 27.9805 21.9118 28.3035 21.9569 29.3164C22.0044 30.3281 22.1635 31.0181 22.3987 31.6225C22.6421 32.2471 22.9663 32.7768 23.4947 33.3052C24.022 33.8336 24.5516 34.159 25.1762 34.4013C25.7818 34.6364 26.4706 34.7967 27.4823 34.843C28.4965 34.8881 28.8195 34.9 31.3999 34.9C33.9803 34.9 34.3022 34.8881 35.3163 34.843C36.3268 34.7955 37.0192 34.6364 37.6236 34.4013C38.2575 34.1632 38.8315 33.7891 39.3051 33.3052C39.8335 32.7768 40.1577 32.2471 40.4012 31.6225C40.6351 31.0181 40.7954 30.3281 40.8429 29.3164C40.888 28.3035 40.8999 27.9805 40.8999 25.4C40.8999 22.8196 40.888 22.4966 40.8429 21.4825C40.7954 20.4719 40.6351 19.7808 40.4012 19.1775C40.1633 18.5432 39.7891 17.9688 39.3051 17.4948C38.8311 17.0108 38.2567 16.6367 37.6224 16.3988C37.0168 16.1636 36.3257 16.0033 35.3151 15.957C34.301 15.9119 33.9792 15.9 31.3975 15.9H31.3999ZM30.5485 17.6124H31.4011C33.9376 17.6124 34.238 17.6207 35.2391 17.667C36.1653 17.7086 36.6688 17.8641 37.0037 17.9936C37.4467 18.1658 37.7637 18.3724 38.0962 18.7049C38.4287 19.0374 38.6342 19.3533 38.8063 19.7974C38.937 20.1311 39.0913 20.6346 39.1329 21.5608C39.1792 22.5619 39.1887 22.8623 39.1887 25.3976C39.1887 27.933 39.1792 28.2346 39.1329 29.2356C39.0913 30.1619 38.9358 30.6642 38.8063 30.9991C38.653 31.411 38.41 31.7838 38.095 32.0904C37.7625 32.4229 37.4467 32.6283 37.0025 32.8005C36.67 32.9312 36.1665 33.0855 35.2391 33.1283C34.238 33.1734 33.9376 33.1841 31.4011 33.1841C28.8646 33.1841 28.563 33.1734 27.5619 33.1283C26.6357 33.0855 26.1333 32.9312 25.7985 32.8005C25.3862 32.6476 25.0131 32.4051 24.706 32.0904C24.3904 31.7836 24.147 31.4104 23.9935 30.9979C23.864 30.6642 23.7085 30.1607 23.6669 29.2345C23.6218 28.2334 23.6123 27.933 23.6123 25.3953C23.6123 22.8576 23.6218 22.5595 23.6669 21.5585C23.7097 20.6322 23.864 20.1287 23.9947 19.7938C24.1668 19.3509 24.3735 19.0338 24.706 18.7013C25.0385 18.3688 25.3543 18.1634 25.7985 17.9912C26.1333 17.8606 26.6357 17.7062 27.5619 17.6635C28.4383 17.6231 28.7779 17.6112 30.5485 17.61V17.6124ZM36.4717 19.1894C36.322 19.1894 36.1738 19.2189 36.0355 19.2762C35.8971 19.3335 35.7715 19.4174 35.6656 19.5233C35.5598 19.6292 35.4758 19.7548 35.4185 19.8931C35.3612 20.0315 35.3317 20.1797 35.3317 20.3294C35.3317 20.4791 35.3612 20.6273 35.4185 20.7657C35.4758 20.904 35.5598 21.0296 35.6656 21.1355C35.7715 21.2414 35.8971 21.3253 36.0355 21.3826C36.1738 21.4399 36.322 21.4694 36.4717 21.4694C36.7741 21.4694 37.064 21.3493 37.2778 21.1355C37.4916 20.9217 37.6117 20.6317 37.6117 20.3294C37.6117 20.0271 37.4916 19.7371 37.2778 19.5233C37.064 19.3095 36.7741 19.1894 36.4717 19.1894ZM31.4011 20.5218C30.754 20.5117 30.1113 20.6304 29.5106 20.8711C28.9098 21.1117 28.3629 21.4695 27.9017 21.9235C27.4405 22.3776 27.0743 22.9188 26.8243 23.5158C26.5743 24.1127 26.4455 24.7534 26.4455 25.4006C26.4455 26.0478 26.5743 26.6885 26.8243 27.2855C27.0743 27.8824 27.4405 28.4237 27.9017 28.8777C28.3629 29.3318 28.9098 29.6895 29.5106 29.9302C30.1113 30.1708 30.754 30.2896 31.4011 30.2795C32.6819 30.2595 33.9034 29.7367 34.8021 28.8239C35.7007 27.9111 36.2044 26.6815 36.2044 25.4006C36.2044 24.1197 35.7007 22.8901 34.8021 21.9774C33.9034 21.0646 32.6819 20.5418 31.4011 20.5218ZM31.4011 22.233C31.817 22.233 32.2288 22.3149 32.6131 22.474C32.9973 22.6332 33.3465 22.8665 33.6405 23.1606C33.9346 23.4547 34.1679 23.8038 34.3271 24.188C34.4862 24.5723 34.5682 24.9841 34.5682 25.4C34.5682 25.8159 34.4862 26.2278 34.3271 26.612C34.1679 26.9963 33.9346 27.3454 33.6405 27.6395C33.3465 27.9336 32.9973 28.1668 32.6131 28.326C32.2288 28.4852 31.817 28.5671 31.4011 28.5671C30.5611 28.5671 29.7556 28.2334 29.1616 27.6395C28.5677 27.0455 28.234 26.24 28.234 25.4C28.234 24.5601 28.5677 23.7545 29.1616 23.1606C29.7556 22.5666 30.5611 22.233 31.4011 22.233Z" fill="white"/>
</g>
<defs>
<filter id="filter0_d_86_226" x="-9.72748e-05" y="2.47955e-05" width="63.2375" height="63.5379" filterUnits="userSpaceOnUse" color-interpolation-filters="sRGB">
<feFlood flood-opacity="0" result="BackgroundImageFix"/>
<feColorMatrix in="SourceAlpha" type="matrix" values="0 0 0 0 0 0 0 0 0 0 0 0 0 0 0 0 0 0 127 0" result="hardAlpha"/>
<feOffset dy="6"/>
<feGaussianBlur stdDeviation="5.95"/>
<feComposite in2="hardAlpha" operator="out"/>
<feColorMatrix type="matrix" values="0 0 0 0 0 0 0 0 0 0 0 0 0 0 0 0 0 0 0.25 0"/>
<feBlend mode="normal" in2="BackgroundImageFix" result="effect1_dropShadow_86_226"/>
<feBlend mode="normal" in="SourceGraphic" in2="effect1_dropShadow_86_226" result="shape"/>
</filter>
</defs>
</svg>
