<svg width="64" height="64" viewBox="0 0 64 64" fill="none" xmlns="http://www.w3.org/2000/svg">
<g filter="url(#filter0_d_40_338)">
<rect x="12" y="6" width="39.4372" height="39.7379" rx="19.7186" fill="#F1D5E1" shape-rendering="crispEdges"/>
<path d="M31.5 16C28.9219 16 28.5978 16.0119 27.5848 16.057C26.5719 16.1045 25.8819 16.2636 25.2775 16.4987C24.6432 16.7366 24.0688 17.1108 23.5948 17.5948C23.1108 18.0688 22.7366 18.6432 22.4987 19.2775C22.2636 19.8807 22.1033 20.5719 22.057 21.5812C22.0119 22.5966 22 22.9196 22 25.5012C22 28.0804 22.0119 28.4034 22.057 29.4164C22.1045 30.4281 22.2636 31.1181 22.4987 31.7225C22.7422 32.3471 23.0664 32.8767 23.5948 33.4052C24.1221 33.9336 24.6517 34.259 25.2763 34.5012C25.8819 34.7364 26.5707 34.8967 27.5824 34.943C28.5966 34.9881 28.9196 35 31.5 35C34.0804 35 34.4023 34.9881 35.4164 34.943C36.4269 34.8955 37.1193 34.7364 37.7237 34.5012C38.3576 34.2632 38.9316 33.8891 39.4052 33.4052C39.9336 32.8767 40.2578 32.3471 40.5012 31.7225C40.7352 31.1181 40.8955 30.4281 40.943 29.4164C40.9881 28.4034 41 28.0804 41 25.5C41 22.9196 40.9881 22.5966 40.943 21.5824C40.8955 20.5719 40.7352 19.8807 40.5012 19.2775C40.2634 18.6432 39.8892 18.0688 39.4052 17.5948C38.9312 17.1108 38.3568 16.7366 37.7225 16.4987C37.1169 16.2636 36.4257 16.1033 35.4152 16.057C34.4011 16.0119 34.0793 16 31.4976 16H31.5ZM30.6486 17.7124H31.5012C34.0377 17.7124 34.3381 17.7207 35.3392 17.767C36.2654 17.8086 36.7689 17.9641 37.1038 18.0936C37.5468 18.2657 37.8638 18.4724 38.1963 18.8049C38.5288 19.1374 38.7343 19.4533 38.9064 19.8974C39.0371 20.2311 39.1914 20.7346 39.233 21.6608C39.2793 22.6619 39.2888 22.9623 39.2888 25.4976C39.2888 28.0329 39.2793 28.3346 39.233 29.3356C39.1914 30.2619 39.0359 30.7642 38.9064 31.0991C38.7531 31.511 38.5101 31.8838 38.1951 32.1904C37.8626 32.5229 37.5468 32.7283 37.1026 32.9005C36.7701 33.0311 36.2666 33.1855 35.3392 33.2283C34.3381 33.2734 34.0377 33.2841 31.5012 33.2841C28.9647 33.2841 28.6631 33.2734 27.662 33.2283C26.7358 33.1855 26.2334 33.0311 25.8986 32.9005C25.4863 32.7476 25.1131 32.5051 24.8061 32.1904C24.4905 31.8835 24.2471 31.5104 24.0936 31.0979C23.9641 30.7642 23.8086 30.2607 23.767 29.3344C23.7219 28.3334 23.7124 28.0329 23.7124 25.4952C23.7124 22.9576 23.7219 22.6595 23.767 21.6584C23.8098 20.7322 23.9641 20.2287 24.0948 19.8938C24.2669 19.4509 24.4736 19.1338 24.8061 18.8013C25.1386 18.4688 25.4544 18.2634 25.8986 18.0912C26.2334 17.9606 26.7358 17.8062 27.662 17.7634C28.5384 17.7231 28.878 17.7112 30.6486 17.71V17.7124ZM36.5718 19.2894C36.4221 19.2894 36.2739 19.3189 36.1356 19.3762C35.9972 19.4334 35.8716 19.5174 35.7657 19.6233C35.6599 19.7291 35.5759 19.8548 35.5186 19.9931C35.4613 20.1314 35.4318 20.2797 35.4318 20.4294C35.4318 20.5791 35.4613 20.7273 35.5186 20.8656C35.5759 21.0039 35.6599 21.1296 35.7657 21.2355C35.8716 21.3413 35.9972 21.4253 36.1356 21.4826C36.2739 21.5399 36.4221 21.5694 36.5718 21.5694C36.8742 21.5694 37.1641 21.4493 37.3779 21.2355C37.5917 21.0217 37.7118 20.7317 37.7118 20.4294C37.7118 20.127 37.5917 19.8371 37.3779 19.6233C37.1641 19.4095 36.8742 19.2894 36.5718 19.2894ZM31.5012 20.6217C30.8541 20.6117 30.2114 20.7304 29.6107 20.971C29.0099 21.2117 28.463 21.5695 28.0018 22.0235C27.5406 22.4775 27.1744 23.0188 26.9244 23.6157C26.6744 24.2127 26.5456 24.8534 26.5456 25.5006C26.5456 26.1478 26.6744 26.7885 26.9244 27.3854C27.1744 27.9824 27.5406 28.5236 28.0018 28.9777C28.463 29.4317 29.0099 29.7895 29.6107 30.0301C30.2114 30.2708 30.8541 30.3895 31.5012 30.3794C32.782 30.3595 34.0035 29.8366 34.9022 28.9239C35.8008 28.0111 36.3045 26.7815 36.3045 25.5006C36.3045 24.2197 35.8008 22.9901 34.9022 22.0773C34.0035 21.1645 32.782 20.6417 31.5012 20.6217ZM31.5012 22.3329C31.9171 22.3329 32.3289 22.4149 32.7132 22.574C33.0974 22.7332 33.4466 22.9665 33.7406 23.2605C34.0347 23.5546 34.268 23.9038 34.4272 24.288C34.5863 24.6723 34.6683 25.0841 34.6683 25.5C34.6683 25.9159 34.5863 26.3277 34.4272 26.712C34.268 27.0962 34.0347 27.4454 33.7406 27.7395C33.4466 28.0335 33.0974 28.2668 32.7132 28.426C32.3289 28.5851 31.9171 28.6671 31.5012 28.6671C30.6612 28.6671 29.8557 28.3334 29.2617 27.7395C28.6678 27.1455 28.3341 26.34 28.3341 25.5C28.3341 24.66 28.6678 23.8545 29.2617 23.2605C29.8557 22.6666 30.6612 22.3329 31.5012 22.3329Z" fill="white"/>
</g>
<defs>
<filter id="filter0_d_40_338" x="0.1" y="0.1" width="63.2373" height="63.5379" filterUnits="userSpaceOnUse" color-interpolation-filters="sRGB">
<feFlood flood-opacity="0" result="BackgroundImageFix"/>
<feColorMatrix in="SourceAlpha" type="matrix" values="0 0 0 0 0 0 0 0 0 0 0 0 0 0 0 0 0 0 127 0" result="hardAlpha"/>
<feOffset dy="6"/>
<feGaussianBlur stdDeviation="5.95"/>
<feComposite in2="hardAlpha" operator="out"/>
<feColorMatrix type="matrix" values="0 0 0 0 0 0 0 0 0 0 0 0 0 0 0 0 0 0 0.25 0"/>
<feBlend mode="normal" in2="BackgroundImageFix" result="effect1_dropShadow_40_338"/>
<feBlend mode="normal" in="SourceGraphic" in2="effect1_dropShadow_40_338" result="shape"/>
</filter>
</defs>
</svg>
