<svg width="118" height="122" viewBox="0 0 118 122" fill="none" xmlns="http://www.w3.org/2000/svg">
<path d="M36.641 84.8645C32.2213 82.8825 30.3455 77.3936 32.4596 72.6302C32.8646 71.7178 33.9276 71.3102 34.8333 71.7163C35.739 72.1225 36.1465 73.1919 35.7424 74.1024C34.4355 77.0469 35.4962 80.3922 38.1045 81.5619C40.7127 82.7316 43.8987 81.2884 45.2047 78.3458L50.9964 65.2962C51.4014 64.3839 52.4644 63.9762 53.3701 64.3824C54.2758 64.7886 54.6833 65.858 54.2792 66.7684L48.4874 79.818C46.3733 84.5815 41.0568 86.8449 36.6372 84.8628L36.641 84.8645Z" fill="#F6F6F6"/>
<path d="M55.4718 93.3096C53.4081 92.3841 51.7379 90.8612 50.773 89.019C49.7278 87.0326 49.606 84.9168 50.4295 83.0613C50.8345 82.149 51.8975 81.7413 52.8032 82.1475C53.7089 82.5537 54.1164 83.6231 53.7123 84.5335C52.9041 86.3544 54.3767 88.8595 56.9353 90.0069C59.4938 91.1544 62.3339 90.5833 63.1421 88.7624C63.9502 86.9415 62.4786 84.4345 59.9181 83.2862L59.8856 83.2717C57.8219 82.3462 56.1517 80.8233 55.1841 78.9822C54.1389 76.9958 54.0171 74.8799 54.8415 73.0226C55.6658 71.1652 57.3135 69.8429 59.4823 69.2978C61.4916 68.7917 63.733 69.0277 65.7967 69.9532C67.8604 70.8786 69.5306 72.4015 70.4963 74.2418C71.5407 76.2301 71.6624 78.3459 70.8389 80.2014C70.434 81.1137 69.371 81.5214 68.4652 81.1152C67.5595 80.7091 67.1521 79.6396 67.5562 78.7292C68.3643 76.9083 66.8918 74.4032 64.3332 73.2558C61.7746 72.1084 58.9345 72.6794 58.1263 74.5003C57.3182 76.3212 58.7907 78.8263 61.3512 79.9746L61.3837 79.9891C63.4474 80.9146 65.1167 82.4394 66.0844 84.2805C67.1296 86.267 67.2513 88.3828 66.427 90.2402C65.6026 92.0975 63.9558 93.4179 61.787 93.963C59.7787 94.4719 57.5354 94.2351 55.4718 93.3096Z" fill="#F6F6F6"/>
<path d="M99.7954 50.47L83.8306 43.3104C82.923 42.9034 82.5174 41.8348 82.9215 40.9244L89.94 25.1108C90.3449 24.1985 91.4088 23.7889 92.3145 24.1951C92.7463 24.3887 93.0851 24.7456 93.2561 25.1862L102.202 48.1594C102.564 49.0886 102.108 50.1369 101.184 50.5008C100.734 50.677 100.236 50.6652 99.7943 50.4672L99.7954 50.47ZM86.9393 40.7456L97.2557 45.3721L91.4728 30.531L86.9393 40.7456Z" fill="#F6F6F6"/>
<path d="M47.5293 37.9012C47.0726 37.6964 46.7203 37.3081 46.558 36.8323L43.2183 26.9399C42.9159 26.0466 43.3498 25.069 44.214 24.6965L53.7683 20.5866C54.679 20.1866 55.7379 20.6039 56.1357 21.5193C56.5336 22.4347 56.1185 23.4991 55.2079 23.8991C55.1996 23.9023 55.1904 23.9074 55.1821 23.9106L47.1566 27.3634L49.9615 35.6733C50.2801 36.6176 49.7782 37.6454 48.836 37.9667C48.4068 38.1128 47.9395 38.0921 47.5248 37.9061L47.5266 37.9023L47.5293 37.9012Z" fill="#F6F6F6"/>
<path d="M66.9855 46.6263C66.0778 46.2193 65.6723 45.1507 66.0772 44.2384C66.2614 43.8235 66.5962 43.4923 67.0126 43.3129L75.0382 39.8601L72.2332 31.5502C71.9146 30.6058 72.4185 29.5789 73.3588 29.2568C74.2983 28.9365 75.3199 29.443 75.6404 30.3882L78.9801 40.2806C79.2825 41.1739 78.8486 42.1515 77.9844 42.524L68.4284 46.6378C67.9669 46.8362 67.4449 46.8301 66.9882 46.6253L66.9855 46.6263Z" fill="#F6F6F6"/>
<path d="M52.644 45.0499C51.7364 44.6428 51.3281 43.5753 51.7321 42.6649C51.7944 42.5247 51.873 42.3941 51.9679 42.2732L67.4123 22.6981C68.0299 21.9157 69.1603 21.7847 69.9387 22.4055C70.7171 23.0263 70.8474 24.1626 70.2298 24.945L54.7837 44.5239C54.2744 45.1707 53.3922 45.3877 52.6431 45.0518L52.644 45.0499Z" fill="#F6F6F6"/>
<path d="M75.4172 108.381L12.1468 80.0062C7.80332 78.0537 5.85474 72.9353 7.7886 68.5677L15.6621 50.8276C17.6045 46.4616 22.6964 44.5028 27.0413 46.4468L90.3118 74.8211C94.6552 76.7736 96.6038 81.892 94.6699 86.2596L86.7964 104C84.8541 108.366 79.7622 110.324 75.4172 108.381ZM25.5748 49.7458C23.0422 48.6123 20.0763 49.7557 18.943 52.299L11.0695 70.0391C9.94183 72.5849 11.0793 75.5662 13.6094 76.7055L76.8799 105.08C79.4126 106.213 82.3784 105.07 83.5118 102.527L91.3853 84.7865C92.5129 82.2407 91.3754 79.2594 88.8453 78.1201L25.5748 49.7458Z" fill="#F6F6F6"/>
<path d="M87.7429 77.6256C86.8352 77.2186 86.4297 76.1501 86.8338 75.2396L98.8862 48.084C99.2911 47.1716 100.354 46.764 101.26 47.1702C102.166 47.5764 102.573 48.6457 102.169 49.5562L90.1165 76.7118C89.7116 77.6242 88.6486 78.0318 87.7429 77.6256Z" fill="#F6F6F6"/>
<path d="M26.6795 50.241C25.7718 49.8339 25.3663 48.7654 25.7704 47.855L42.3648 10.4656C44.14 6.47595 48.7934 4.68445 52.7639 6.46043L92.3136 24.197C93.2213 24.604 93.6268 25.6726 93.2227 26.583C92.8187 27.4934 91.7548 27.903 90.8491 27.4968L51.2993 9.7603C49.1411 8.79475 46.6147 9.76902 45.6503 11.9367L29.0559 49.3261C28.651 50.2385 27.588 50.6461 26.6822 50.2399L26.6795 50.241Z" fill="#F6F6F6"/>
<path d="M64.6303 114.711L14.6648 92.303C10.9406 90.6328 9.10216 86.3814 10.4263 82.505C10.4476 82.4569 10.4631 82.4064 10.4845 82.3583L12.3616 78.1288C12.7665 77.2165 13.8295 76.8088 14.7353 77.215C15.6429 77.622 16.0485 78.6906 15.6444 79.601L13.8005 83.7556C13.1409 85.8458 14.1406 88.0997 16.1285 89.005L66.094 111.413C68.117 112.306 70.4839 111.516 71.5709 109.583C71.5905 109.539 71.6188 109.501 71.6452 109.462L73.4047 105.497C73.8097 104.585 74.8727 104.177 75.7784 104.584C76.6841 104.99 77.0916 106.059 76.6875 106.97L74.8103 111.199C74.7421 111.353 74.6538 111.495 74.5461 111.624C72.4791 115.006 68.2369 116.326 64.6293 114.708L64.6303 114.711Z" fill="#F6F6F6"/>
</svg>
