<svg width="118" height="122" viewBox="0 0 118 122" fill="none" xmlns="http://www.w3.org/2000/svg">
<path d="M36.6412 84.8645C32.2215 82.8825 30.3457 77.3936 32.4598 72.6302C32.8647 71.7178 33.9277 71.3102 34.8335 71.7163C35.7392 72.1225 36.1466 73.1919 35.7426 74.1024C34.4357 77.0469 35.4964 80.3922 38.1047 81.5619C40.7129 82.7316 43.8989 81.2884 45.2049 78.3458L50.9966 65.2962C51.4015 64.3839 52.4645 63.9762 53.3703 64.3824C54.276 64.7886 54.6834 65.858 54.2794 66.7684L48.4876 79.818C46.3735 84.5815 41.057 86.8449 36.6373 84.8628L36.6412 84.8645Z" fill="#D18BA5"/>
<path d="M55.4719 93.3096C53.4083 92.3841 51.738 90.8612 50.7731 89.019C49.7279 87.0326 49.6062 84.9168 50.4297 83.0613C50.8347 82.149 51.8977 81.7413 52.8034 82.1475C53.7091 82.5537 54.1165 83.6231 53.7125 84.5335C52.9043 86.3544 54.3769 88.8595 56.9354 90.0069C59.494 91.1544 62.3341 90.5833 63.1423 88.7624C63.9504 86.9415 62.4787 84.4345 59.9183 83.2862L59.8858 83.2717C57.8221 82.3462 56.1519 80.8233 55.1842 78.9822C54.139 76.9958 54.0173 74.8799 54.8417 73.0226C55.666 71.1652 57.3137 69.8429 59.4824 69.2978C61.4918 68.7917 63.7332 69.0277 65.7969 69.9532C67.8605 70.8786 69.5308 72.4015 70.4965 74.2418C71.5409 76.2301 71.6626 78.3459 70.8391 80.2014C70.4342 81.1137 69.3711 81.5214 68.4654 81.1152C67.5597 80.7091 67.1523 79.6396 67.5563 78.7292C68.3645 76.9083 66.8919 74.4032 64.3334 73.2558C61.7748 72.1084 58.9347 72.6794 58.1265 74.5003C57.3184 76.3212 58.7909 78.8263 61.3514 79.9746L61.3839 79.9891C63.4476 80.9146 65.1169 82.4394 66.0846 84.2805C67.1298 86.267 67.2515 88.3828 66.4272 90.2402C65.6028 92.0975 63.956 93.4179 61.7872 93.963C59.7789 94.4719 57.5356 94.2351 55.4719 93.3096Z" fill="#D18BA5"/>
<path d="M99.7955 50.47L83.8308 43.3104C82.9232 42.9034 82.5176 41.8348 82.9217 40.9244L89.9402 25.1108C90.3451 24.1985 91.4089 23.7889 92.3147 24.1951C92.7465 24.3887 93.0853 24.7456 93.2563 25.1862L102.203 48.1594C102.565 49.0886 102.108 50.1369 101.184 50.5008C100.735 50.677 100.236 50.6652 99.7945 50.4672L99.7955 50.47ZM86.9395 40.7456L97.2559 45.3721L91.473 30.531L86.9395 40.7456Z" fill="#D18BA5"/>
<path d="M47.5295 37.9012C47.0728 37.6964 46.7205 37.3081 46.5582 36.8323L43.2184 26.9399C42.9161 26.0466 43.35 25.069 44.2141 24.6965L53.7685 20.5866C54.6792 20.1866 55.738 20.6039 56.1359 21.5193C56.5338 22.4347 56.1187 23.4991 55.208 23.8991C55.1998 23.9023 55.1906 23.9074 55.1823 23.9106L47.1568 27.3634L49.9617 35.6733C50.2803 36.6176 49.7784 37.6454 48.8361 37.9667C48.407 38.1128 47.9397 38.0921 47.525 37.9061L47.5267 37.9023L47.5295 37.9012Z" fill="#D18BA5"/>
<path d="M66.9857 46.6263C66.078 46.2193 65.6725 45.1507 66.0774 44.2384C66.2616 43.8235 66.5964 43.4923 67.0128 43.3129L75.0383 39.8601L72.2334 31.5502C71.9148 30.6058 72.4187 29.5789 73.359 29.2568C74.2985 28.9365 75.32 29.443 75.6406 30.3882L78.9803 40.2806C79.2826 41.1739 78.8487 42.1515 77.9846 42.524L68.4286 46.6378C67.9671 46.8362 67.4451 46.8301 66.9884 46.6253L66.9857 46.6263Z" fill="#D18BA5"/>
<path d="M52.6442 45.0499C51.7365 44.6428 51.3282 43.5753 51.7323 42.6649C51.7946 42.5247 51.8731 42.3941 51.968 42.2732L67.4125 22.6981C68.0301 21.9157 69.1605 21.7847 69.9389 22.4055C70.7172 23.0263 70.8476 24.1626 70.23 24.945L54.7838 44.5239C54.2745 45.1707 53.3924 45.3877 52.6433 45.0518L52.6442 45.0499Z" fill="#D18BA5"/>
<path d="M75.4174 108.381L12.147 80.0062C7.80349 78.0537 5.85491 72.9353 7.78878 68.5677L15.6623 50.8276C17.6046 46.4616 22.6965 44.5028 27.0415 46.4468L90.312 74.8211C94.6554 76.7736 96.604 81.892 94.6701 86.2596L86.7966 104C84.8542 108.366 79.7624 110.324 75.4174 108.381ZM25.575 49.7458C23.0424 48.6123 20.0765 49.7557 18.9431 52.299L11.0696 70.0391C9.94201 72.5849 11.0795 75.5662 13.6096 76.7055L76.8801 105.08C79.4127 106.213 82.3786 105.07 83.5119 102.527L91.3854 84.7865C92.5131 82.2407 91.3756 79.2594 88.8455 78.1201L25.575 49.7458Z" fill="#D18BA5"/>
<path d="M87.7431 77.6256C86.8354 77.2186 86.4299 76.1501 86.834 75.2396L98.8863 48.084C99.2913 47.1716 100.354 46.764 101.26 47.1702C102.166 47.5764 102.573 48.6457 102.169 49.5562L90.1167 76.7118C89.7118 77.6242 88.6488 78.0318 87.7431 77.6256Z" fill="#D18BA5"/>
<path d="M26.6797 50.241C25.772 49.8339 25.3665 48.7654 25.7706 47.855L42.3649 10.4656C44.1402 6.47595 48.7936 4.68445 52.764 6.46043L92.3138 24.197C93.2214 24.604 93.627 25.6726 93.2229 26.583C92.8188 27.4934 91.755 27.903 90.8492 27.4968L51.2995 9.7603C49.1413 8.79475 46.6148 9.76902 45.6505 11.9367L29.0561 49.3261C28.6512 50.2385 27.5881 50.6461 26.6824 50.2399L26.6797 50.241Z" fill="#D18BA5"/>
<path d="M64.6305 114.711L14.665 92.303C10.9408 90.6328 9.10234 86.3814 10.4264 82.505C10.4477 82.4569 10.4633 82.4064 10.4846 82.3583L12.3618 78.1288C12.7667 77.2165 13.8297 76.8088 14.7354 77.215C15.6431 77.622 16.0486 78.6906 15.6446 79.601L13.8006 83.7556C13.141 85.8458 14.1408 88.0997 16.1287 89.005L66.0942 111.413C68.1171 112.306 70.484 111.516 71.5711 109.583C71.5907 109.539 71.619 109.501 71.6454 109.462L73.4049 105.497C73.8098 104.585 74.8729 104.177 75.7786 104.584C76.6843 104.99 77.0917 106.059 76.6877 106.97L74.8105 111.199C74.7423 111.353 74.654 111.495 74.5463 111.624C72.4793 115.006 68.237 116.326 64.6294 114.708L64.6305 114.711Z" fill="#D18BA5"/>
</svg>
