<svg width="205" height="111" viewBox="0 0 205 111" fill="none" xmlns="http://www.w3.org/2000/svg">
<path d="M98.405 20.6216C98.405 20.6216 97.5316 36.806 96.4251 46.8567C95.3186 56.9057 94.9593 66.0706 87.4986 58.6224C87.4986 58.6224 84.8854 56.0305 80.1304 60.1166C80.1304 60.1166 76.0621 62.1855 79.0969 55.1304C82.1317 48.0753 96.1761 18.9814 96.1761 18.9814L98.405 20.6216Z" fill="#F1D5E1" stroke="#B8357D" stroke-miterlimit="10"/>
<path d="M103.701 20.5735C103.701 20.5735 104.571 29.7687 105.412 33.5435C106.205 37.1066 111.825 68.3529 110.891 75.1928C110.759 76.1623 111.176 77.1513 112.008 77.6672C112.921 78.2311 114.187 78.1742 115.475 75.4205C116.121 74.04 116.847 72.6988 117.605 71.377C117.845 70.959 118.373 70.7989 118.798 71.0266C120.156 71.7542 123.078 72.8286 124.838 69.8472C124.838 69.8472 125.971 56.9182 119.615 44.272C113.259 31.6258 106.64 18.8302 106.64 18.8302L103.701 20.5735Z" fill="#F1D5E1" stroke="#B8357D" stroke-miterlimit="10"/>
<path d="M97.1437 13.5985C97.1437 13.5985 94.8596 17.0745 97.2878 20.0043C97.2878 20.0043 85.2411 40.0205 73.7014 37.9445C63.9727 36.1941 66.9523 25.9138 68.1264 22.7332C68.443 21.8722 68.5836 20.9596 68.548 20.0435C68.4946 18.6933 68.2367 16.7116 67.3366 14.6356C66.7388 13.257 66.5698 11.7307 66.8972 10.2649C67.7599 6.39577 70.7841 0.322619 81.3934 3.78435C81.3934 3.78435 95.1318 9.64404 97.1437 13.5985Z" fill="#F1D5E1" stroke="#B8357D" stroke-miterlimit="10"/>
<path d="M103.763 13.9401C103.763 13.9401 106.374 17.1759 104.245 20.3299C104.245 20.3299 118.188 39.0759 129.47 35.8827C138.982 33.1913 135.013 23.2526 133.535 20.2C133.134 19.3746 132.907 18.4798 132.852 17.5637C132.772 16.2153 132.837 14.2176 133.531 12.0633C133.992 10.6331 134.011 9.09791 133.542 7.66945C132.307 3.90353 128.703 -1.84587 118.482 2.63517C118.482 2.63517 105.38 9.80769 103.763 13.9401Z" fill="#F1D5E1" stroke="#B8357D" stroke-miterlimit="10"/>
<path d="M97.8091 13.3708C98.896 13.0559 101.143 12.6308 103.261 13.6643C103.608 13.8333 103.891 14.1126 104.078 14.4506C104.585 15.3667 105.457 17.3787 104.713 19.3977C104.485 20.0168 103.991 20.5006 103.372 20.7283C102.253 21.1392 100.195 21.5715 97.9852 20.4188C97.3074 20.0648 96.772 19.4724 96.5212 18.7502C96.1992 17.8216 96.064 16.3451 96.8912 14.2033C97.0477 13.7977 97.3893 13.4918 97.8073 13.3708H97.8091Z" fill="#D18BA5" stroke="#B8357D" stroke-miterlimit="10"/>
<path d="M96.8823 13.5896C96.8823 13.5896 96.2081 10.3876 83.4463 4.70405C83.4463 4.70405 77.583 1.67814 72.748 3.16352C71.7589 3.46771 70.9459 4.22197 70.6435 5.21103C70.2415 6.5203 70.624 8.35078 74.7812 9.60135C81.9057 11.7431 91.1987 13.8049 91.1987 13.8049C91.1987 13.8049 95.3809 14.7975 96.884 13.5896H96.8823Z" fill="#D894AD" stroke="#B8357D" stroke-miterlimit="10"/>
<path d="M104.009 13.9614C104.009 13.9614 104.569 10.6313 117.012 3.46947C117.012 3.46947 122.342 0.203416 127.438 1.27253C128.481 1.49134 130.233 2.39502 130.647 3.39298C131.195 4.7147 130.514 5.87454 126.399 7.58228C119.344 10.5086 110.067 13.5665 110.067 13.5665C110.067 13.5665 105.672 15.0714 104.007 13.9632L104.009 13.9614Z" fill="#D18BA5" stroke="#B8357D" stroke-miterlimit="10"/>
<path d="M94.2015 15.5571C94.2015 15.5571 81.0964 21.1304 73.2639 17.5832" stroke="#D18BA5" stroke-miterlimit="10"/>
<path d="M95.034 18.3179C95.034 18.3179 85.5454 26.8673 79.5078 27.3423" stroke="#D18BA5" stroke-miterlimit="10"/>
<path d="M106.686 15.9289C106.686 15.9289 120.449 19.5881 127.698 14.9629" stroke="#D18BA5" stroke-miterlimit="10"/>
<path d="M106.254 18.7805C106.254 18.7805 116.859 25.8978 122.904 25.51" stroke="#D18BA5" stroke-miterlimit="10"/>
<path d="M2.38194 91.8682C2.309 92.1083 2.26098 92.3253 2.26098 92.4943C2.26098 93.0725 2.64522 93.3838 3.44038 93.4318V93.6239H0V93.4318C0.818292 93.4318 1.63658 92.9995 1.9977 92.1563C2.45487 90.9058 7.09779 78.2756 7.09779 78.0817C6.83274 77.6726 6.30441 77.4324 5.84723 77.4075V77.2154H9.91201V77.4075C9.16665 77.4075 8.87847 77.5765 8.87847 77.9607C8.87847 78.0337 8.87847 78.1048 8.90337 78.1778L13.2581 91.338L13.4022 91.8201C13.4271 91.9162 13.4271 91.9891 13.4271 92.0852C13.4271 92.8074 12.9468 93.4087 12.2726 93.6008C12.1285 93.6488 12.0075 93.6488 11.8635 93.6488C11.4063 93.6488 10.9491 93.4567 10.636 93.0956C9.33743 91.459 7.98902 89.7281 6.6673 88.0667C6.25815 87.5383 5.36871 86.382 4.55041 86.382C4.47748 86.382 4.42945 86.4069 4.38142 86.4069C3.70722 88.2356 3.0348 90.0644 2.38372 91.8682H2.38194ZM4.4508 86.1419C4.49883 86.1419 4.54686 86.117 4.61979 86.117C5.41318 86.117 6.23147 87.0794 6.66552 87.6326C7.19564 88.3068 7.84493 89.1002 8.39817 89.7975C9.23958 90.8809 9.96181 91.7454 10.2749 92.1795L10.7321 92.7327C11.0683 93.1899 11.3814 93.4069 11.6215 93.4069C11.8136 93.4069 11.9577 93.2379 11.9577 92.9248C11.9577 92.7558 11.9097 92.5157 11.8137 92.2275C11.7656 92.0834 11.7176 91.9144 11.6447 91.7223C10.202 87.3444 8.83044 82.7727 7.26679 78.4428L4.50061 86.0689L4.45258 86.1419H4.4508Z" fill="#D18BA5"/>
<path d="M22.688 85.8768C22.688 85.0105 22.6151 84.025 21.9178 83.5429C21.5815 83.3259 21.1724 83.2067 20.7152 83.2067C20.21 83.2067 19.6568 83.3508 19.1267 83.5678C18.3084 83.9521 17.6591 84.6743 17.1788 85.4196V92.0122C17.2037 92.7576 17.6111 93.5029 18.4293 93.5029V93.6951H14.3877V93.5029C15.254 93.5029 15.6383 92.7096 15.6632 91.9393V84.5782C15.6632 83.7599 15.206 83.3277 14.3877 83.3028V83.1106C15.1331 83.1106 16.3605 83.0377 16.9618 82.6054H17.1788V85.1795C17.563 84.4341 18.0931 83.9521 18.6464 83.5198C19.3206 82.9665 20.114 82.6303 20.9323 82.6054H21.1244C22.6649 82.6054 24.0595 83.6639 24.2036 85.5406V92.0122C24.2285 92.7576 24.6128 93.4798 25.4311 93.5029H25.456V93.6951H21.4143V93.5029C22.2807 93.5029 22.6649 92.7096 22.6898 91.9393V85.8768H22.688Z" fill="#D18BA5"/>
<path d="M36.6417 80.2004H36.7627V82.0042C36.4496 81.5719 35.7771 81.33 35.199 81.33C35.0069 81.33 34.7899 81.378 34.6209 81.426C33.9947 81.6662 33.5855 82.1963 33.2013 82.8687C34.7169 83.3739 35.7505 84.5284 35.8234 86.3802L35.8483 86.5492C35.8483 88.4011 34.1637 90.1337 31.3744 90.1817C30.533 90.1817 29.6898 90.0128 28.9213 89.6516C27.5498 90.397 26.7315 91.4323 26.5874 92.6597C26.6354 93.6702 27.1406 94.5365 27.7419 94.7535C27.8628 94.8015 27.982 94.8265 28.103 94.8265C29.1134 94.8265 29.6186 93.1187 30.9901 92.1563C31.6163 91.6992 32.4097 91.411 33.276 91.411C33.7812 91.411 34.3345 91.5319 34.8646 91.7721C35.706 92.1563 36.2592 92.9995 36.2592 94.3461V94.7553C35.9942 96.7281 34.3345 98.2437 32.3136 98.3878H32.1446C31.8796 98.3878 31.6145 98.3647 31.3264 98.3149C31.1574 98.29 30.9652 98.2419 30.8211 98.1708C29.9068 97.8577 29.5457 96.8953 29.5457 96.029C29.5457 95.7888 29.5706 95.5718 29.6186 95.3548C29.7396 95.2818 29.6666 95.3317 29.7876 95.2587C29.7147 95.4989 29.6666 95.7639 29.6666 96.0041C29.6666 96.9665 30.2679 97.8559 31.3264 98.0978C31.4954 98.1227 31.6626 98.1227 31.8067 98.1227C33.1782 98.1227 34.3807 97.3293 34.8379 96.1748C35.0069 95.7426 35.1029 95.2374 35.1029 94.7553C35.1029 93.7698 34.7187 92.8305 33.7563 92.7096C33.6122 92.6847 33.4913 92.6847 33.3472 92.6847C31.7586 92.6847 30.9652 94.1522 30.0029 94.9225C29.6417 95.1876 29.2326 95.3548 28.6313 95.3548H28.4143C27.0908 95.2587 26.4166 94.2483 26.4166 93.0689C26.4166 91.8183 27.162 90.3507 28.6776 89.5325C27.5231 88.8351 26.8738 87.6806 26.8738 86.3802C26.8738 84.1904 28.6776 82.5787 31.3246 82.5787H31.3726C31.9739 82.6019 32.504 82.6748 33.0092 82.7958C33.3934 82.0735 33.8275 81.4242 34.3078 81.0151C34.982 80.4619 35.7754 80.1968 36.6417 80.1968V80.2004ZM32.7441 83.3028C32.2638 82.9897 31.7088 82.8225 31.0595 82.8225C30.2412 82.8225 29.6168 83.1106 29.1348 83.6639C28.6776 84.2171 28.4374 84.9874 28.4374 85.9498C28.4374 86.6951 28.5815 87.3444 28.8466 87.9706C29.1116 88.5718 29.4727 89.0539 29.9299 89.3901C30.4102 89.7513 30.9403 89.9203 31.5665 89.9203C32.6498 89.9203 33.4664 89.2941 33.8755 88.4046C34.1157 87.8994 34.2366 87.2982 34.2366 86.6008C34.2366 85.9035 34.1157 85.2062 33.8524 84.6529C33.5873 84.0748 33.2031 83.6176 32.7459 83.3063L32.7441 83.3028Z" fill="#D18BA5"/>
<path d="M39.2638 88.7159C39.2638 88.9561 39.3118 89.2212 39.3848 89.5093C39.938 91.5782 41.2135 92.8537 43.2574 92.8537C43.4015 92.8537 43.5705 92.8537 43.7146 92.8288C45.5664 92.6847 47.2991 91.6974 47.7562 89.1482H47.9733C47.6371 91.6013 45.7834 93.72 42.8963 93.7911H42.8002C39.89 93.7911 37.7233 91.5302 37.7233 88.1609V88.1129C37.7233 84.8415 39.769 82.4596 42.8002 82.4596H42.8963C44.0988 82.4845 45.2302 82.8207 46.1197 83.5909C46.7209 84.073 47.3702 84.8415 47.3702 85.6598C47.3702 85.8519 47.3453 86.0209 47.2742 86.213C47.082 86.7431 45.8546 86.7912 44.4119 86.7912H43.4264C42.368 86.7912 41.2846 86.7912 40.5161 87.0794C39.7708 87.3675 39.2656 87.8727 39.2656 88.7159H39.2638ZM40.4663 86.9121C42.4623 86.2148 45.8795 87.2964 45.9507 85.2524C45.9507 84.8682 45.8297 84.411 45.6376 84.146C45.1573 83.2316 44.001 82.7264 42.7753 82.7264C40.9715 82.7264 38.9987 83.9058 38.9258 86.793C38.9258 87.2252 39.0219 88.2837 39.0948 88.6928C39.1428 87.6575 39.769 87.1523 40.4663 86.9121Z" fill="#D18BA5"/>
<path d="M52.4952 93.6239H48.4536V93.4318C49.3199 93.4318 49.7041 92.6384 49.729 91.8682V77.025C49.7041 76.2317 49.2469 75.8225 48.4536 75.8225V75.6055C48.9356 75.6055 49.343 75.5824 49.729 75.5326C50.3072 75.4365 50.7394 75.2924 51.0276 75.1003H51.2446V91.9411C51.2695 92.6864 51.6769 93.4318 52.4952 93.4318V93.6239Z" fill="#D18BA5"/>
<path d="M57.4993 93.6239H53.4576V93.4318C54.3239 93.4318 54.7082 92.6384 54.7331 91.8682V77.025C54.7082 76.2317 54.251 75.8225 53.4576 75.8225V75.6055C53.9397 75.6055 54.3471 75.5824 54.7331 75.5326C55.3112 75.4365 55.7435 75.2924 56.0317 75.1003H56.2487V91.9411C56.2736 92.6864 56.681 93.4318 57.4993 93.4318V93.6239Z" fill="#D18BA5"/>
<path d="M67.1711 82.5094H69.9853V82.7264C69.2631 82.7264 68.6867 82.7993 68.3968 83.5198L64.7162 93.6239L63.8019 96.198C63.3216 97.2564 62.6225 98.2668 61.2758 98.3398H61.1317C60.3135 98.3398 59.207 97.9787 59.207 97.0163V96.9914C59.2319 96.029 60.0004 95.5967 61.2758 95.5967C61.637 95.5967 62.0212 95.6198 62.4552 95.6928C62.6242 95.7159 62.7683 95.7408 62.9124 95.7408C63.1045 95.7408 63.2735 95.7159 63.4176 95.5967C63.6578 95.4277 63.8748 95.1395 64.0669 94.7553L64.4761 93.6239H63.3927L60.1445 83.8329C59.8563 82.9914 59.3511 82.7264 58.4598 82.7264V82.5094H62.6456V82.7264C62.1884 82.7264 61.6103 82.8474 61.6103 83.3045C61.6103 83.3775 61.6352 83.4486 61.6583 83.5447L64.7625 92.8554L68.1068 83.6656C68.2029 83.4006 68.2509 83.2334 68.2509 83.0875C68.2509 82.7513 67.9147 82.7264 67.1675 82.7264V82.5094H67.1711ZM63.8979 95.3797C63.777 95.5238 63.5848 95.7159 63.4657 95.812C63.3216 95.908 63.1775 95.9329 62.9605 95.9329C62.8395 95.9329 62.6723 95.9329 62.4552 95.8849C62.3592 95.86 62.2631 95.86 62.1422 95.86C61.4448 95.86 60.6514 96.1962 60.6514 96.9665C60.6514 97.0145 60.6746 97.0874 60.6746 97.1586C60.7475 97.6407 61.0837 98.0249 61.5889 98.0249H61.7099C62.9604 97.8559 63.5137 96.3883 63.8997 95.3779L63.8979 95.3797Z" fill="#D18BA5"/>
<path d="M79.079 77.2652L84.7573 91.242C86.369 86.5741 87.9575 81.9312 89.5692 77.2652H92.5044V77.4573C91.59 77.4573 91.0848 78.1546 91.0848 79.0209V91.8913C91.0848 92.2275 91.1577 92.5655 91.3499 92.8287C91.5669 93.213 91.928 93.4069 92.4083 93.43H92.5044V93.6221H88.1265V93.43H88.3435C88.7527 93.382 89.0658 93.213 89.281 92.8768C89.4731 92.5637 89.5692 92.2026 89.5692 91.8415V78.0568L84.9014 91.6013L84.204 93.6221H83.9639V93.5741L78.0455 78.996V91.9873C78.0704 92.3004 78.1665 92.5886 78.3106 92.8287C78.5507 93.213 78.8887 93.4069 79.369 93.43H79.4651V93.6221H76.4089V93.43H76.601C77.0333 93.382 77.3464 93.213 77.5385 92.8768C77.7075 92.6366 77.7787 92.3716 77.8267 92.0585V78.8271C77.7787 78.514 77.7057 78.2489 77.5385 78.0088C77.3464 77.7206 77.0333 77.5036 76.6242 77.4786L76.5993 77.4555H76.4071V77.2634H79.0773L79.079 77.2652Z" fill="#D18BA5"/>
<path d="M97.9407 93.7929C96.4499 93.7929 95.2225 93.2628 94.2352 92.2293C93.2497 91.1939 92.7445 89.8473 92.7445 88.1876V88.1396C92.7445 86.503 93.2266 85.1564 94.1872 84.073C95.1496 83.0146 96.425 82.4845 97.9887 82.4845H98.0847C99.7925 82.5574 101.068 83.0857 101.957 84.1211C102.824 85.1564 103.281 86.4781 103.352 88.1378V88.378C103.352 89.7726 102.895 91.0001 101.957 92.0585C101.02 93.1418 99.7445 93.7182 98.0847 93.7911H97.9407V93.7929ZM96.9783 82.8705C96.281 83.0395 95.7277 83.4237 95.2705 84.0499C94.6924 84.8913 94.4042 86.0476 94.4042 87.5134C94.4042 88.6448 94.5732 89.6552 94.8863 90.5695C95.2225 91.507 95.6797 92.2293 96.281 92.7594C96.498 92.9515 96.7381 93.1205 96.9783 93.2397C97.3874 93.4318 97.8446 93.5279 98.3498 93.5528C98.976 93.5279 99.5523 93.3357 100.058 92.9515C100.563 92.5673 100.972 91.9891 101.26 91.2189C101.573 90.4735 101.717 89.5591 101.717 88.5238C101.717 87.3924 101.548 86.4069 101.212 85.5406C100.876 84.6743 100.419 84.0001 99.8174 83.5198C99.2161 83.0377 98.5419 82.7976 97.7485 82.7976C97.4835 82.7976 97.2184 82.8225 96.9783 82.8705Z" fill="#D18BA5"/>
<path d="M107.107 85.2044C107.492 84.2669 109.729 82.4614 111.462 82.4614C112.015 82.4614 112.521 82.6535 112.905 83.1106L111.798 84.4573C111.581 83.856 110.667 83.3259 109.801 83.3259C109.488 83.3259 109.174 83.3988 108.911 83.566C108.31 83.9503 107.949 84.2634 107.636 84.6974C107.444 84.9145 107.299 85.1777 107.106 85.4908V91.8895C107.13 92.6349 107.538 93.3571 108.356 93.3802V93.5723H104.314V93.3802C105.181 93.3571 105.565 92.5868 105.59 91.8166V84.4555C105.59 83.4931 105.277 83.2049 104.314 83.18V82.9879C105.06 82.9879 105.855 82.915 106.456 82.4578H106.673C107.034 82.915 107.082 83.3472 107.106 83.8525V85.1991L107.107 85.2044Z" fill="#D18BA5"/>
<path d="M114.107 84.2652C115.022 83.0858 116.56 82.6055 118.028 82.5806C118.869 82.5806 119.713 82.7246 120.385 83.0377C120.529 83.1107 120.673 83.1818 120.817 83.2779C121.419 83.6621 121.707 84.0962 121.853 84.7455C121.876 84.8664 121.876 84.9856 121.876 85.1066C121.876 86.8873 119.928 87.2964 118.46 87.6806C115.646 88.547 114.707 89.8705 114.707 91.0481V91.1922C114.803 92.6829 115.813 93.43 116.993 93.43C117.137 93.43 117.258 93.43 117.402 93.4069C118.629 93.2379 120.433 91.8184 120.433 90.4717C120.433 90.1836 120.36 89.9185 120.193 89.6534C121.178 89.3172 121.757 88.8832 121.901 87.9937V91.4341C121.901 92.6135 122.333 92.7807 123.295 92.7807V92.9729H123.126C122.644 92.9729 122.237 93.0689 121.899 93.1899C121.563 93.334 121.298 93.5261 121.129 93.6951H120.888C120.6 93.5261 120.431 92.9497 120.383 91.9874V91.4821C119.709 92.7576 118.41 93.6951 116.799 93.72C116.077 93.72 115.404 93.599 114.851 93.3589C113.913 92.9497 113.262 92.1083 113.262 91.073V91.025C113.285 89.9185 113.888 88.9561 114.851 88.426C116.655 87.4405 120.383 87.8728 120.383 85.2507C120.383 83.5661 119.517 82.7976 117.857 82.7976H117.736C116.148 82.7976 114.609 83.7831 114.104 85.3005V84.2652H114.107Z" fill="#D18BA5"/>
<path d="M129.963 94.0562H129.722V88.5238H129.987C130.035 90.0145 130.324 91.338 131.094 92.3253C132.056 93.5528 133.403 93.889 134.871 93.889H134.943C136.868 93.889 138.457 92.8786 138.48 90.9058V90.8577C138.48 88.2357 136.411 87.0082 134.294 85.6616C132.152 84.363 130.156 83.1356 130.156 80.4886L130.181 80.1043C130.663 77.6512 132.442 76.8329 134.68 76.8329H134.801C135.981 76.8578 137.158 77.098 137.976 77.5071C138.194 77.6032 138.409 77.6512 138.578 77.6512C139.035 77.6512 139.275 77.3381 139.275 76.8098H139.515V81.5968H139.227C139.106 79.1917 137.494 77.0749 134.849 77.0749H134.801C133.045 77.098 131.818 78.2543 131.77 80.01V80.083C131.77 82.4649 134.369 83.9076 136.701 85.4962C138.578 86.7716 140.165 87.9973 140.165 90.2351V90.4753C139.972 93.2183 137.206 94.0598 134.895 94.1078H134.751C132.827 94.1078 131.288 93.1703 130.662 93.1703C130.253 93.1952 130.035 93.4105 129.964 94.0598L129.963 94.0562Z" fill="#D18BA5"/>
<path d="M161.068 92.0123C161.116 92.7576 161.501 93.4798 162.319 93.503V93.6951H158.302V93.503C159.144 93.4781 159.553 92.7096 159.553 91.9393V85.8039C159.553 84.9856 159.48 84.0481 158.782 83.591C158.446 83.3508 158.012 83.2547 157.555 83.2547C157.073 83.2547 156.52 83.3757 156.015 83.6159C155.196 84.0001 154.57 84.6992 154.065 85.4677C154.065 85.4677 150.841 88.7871 149.758 89.9416V91.4092C149.758 92.5886 150.19 92.7558 151.153 92.7807V92.9497H150.984C150.503 92.9497 150.069 93.0458 149.756 93.1668C149.395 93.3108 149.13 93.503 148.963 93.6969H148.746C148.458 93.5047 148.266 92.9266 148.241 91.9642V91.6992C148.168 91.7472 148.097 91.7952 148.024 91.8201C147.326 92.9035 146.099 93.6969 144.631 93.6969C143.909 93.6969 143.26 93.5759 142.707 93.3606C141.744 92.9284 141.118 92.0852 141.118 91.0516V91.0036C141.141 89.8971 141.719 88.9348 142.707 88.4046C144.51 87.4191 148.239 87.8514 148.239 85.2524C148.239 83.5447 147.35 82.7744 145.64 82.7744C144.028 82.7744 142.465 83.7368 141.959 85.3005V84.242C142.874 83.0626 144.389 82.5823 145.88 82.5823H146.049C146.843 82.5823 147.59 82.7264 148.239 83.0146C148.383 83.0875 148.527 83.1587 148.671 83.2547C149.249 83.639 149.561 84.073 149.682 84.7223C149.707 84.8433 149.707 84.9874 149.707 85.1066C149.707 86.8623 147.782 87.2964 146.291 87.6557C143.525 88.4972 142.563 89.8456 142.563 91.0001V91.1691C142.659 92.6847 143.669 93.4069 144.848 93.4069C144.969 93.4069 145.113 93.4069 145.258 93.382C145.955 93.2859 146.652 92.8768 147.182 92.3965C147.495 92.1314 147.688 91.8183 147.953 91.5302C148.314 91.073 152.33 87.1274 152.547 86.8623V84.5533C152.547 83.76 152.09 83.3739 151.297 83.3508V83.1587C152.042 83.1338 153.27 83.0858 153.871 82.6286H154.063V85.2026C154.472 84.4573 154.977 83.9752 155.531 83.5429C156.205 83.0146 156.973 82.6766 157.817 82.6286H157.961C159.501 82.6286 160.919 83.7119 161.065 85.5869V92.0105L161.068 92.0123ZM154.068 92.0354C154.093 92.7807 154.501 93.503 155.319 93.503V93.6951H151.302V93.503C152.144 93.503 152.53 92.7327 152.553 91.9624V88.257L154.068 86.8374V92.0336V92.0354Z" fill="#D18BA5"/>
<path d="M173.339 89.15H173.556C173.22 91.6031 171.366 93.7218 168.479 93.7929H168.383C165.448 93.7929 163.283 91.5319 163.283 88.1627V88.1147C163.283 84.8664 165.329 82.4613 168.383 82.4613H168.479C170.429 82.5094 171.824 83.3277 172.665 84.6512L171.341 86.793L171.149 86.672C171.318 86.2878 171.39 85.9017 171.39 85.5655C171.39 83.9058 169.705 82.7744 168.141 82.7744C165.59 82.7744 164.484 84.7223 164.484 86.9602C164.484 87.8745 164.676 88.8369 165.014 89.7264C165.711 91.4821 167.06 92.8537 168.96 92.8537C169.081 92.8537 169.177 92.8288 169.296 92.8288C171.148 92.6847 172.88 91.6974 173.337 89.1482L173.339 89.15Z" fill="#D18BA5"/>
<path d="M182.072 85.7808C182.072 84.9393 181.999 84.025 181.302 83.5429C180.965 83.3259 180.556 83.2067 180.099 83.2067C179.594 83.2067 179.064 83.3508 178.535 83.5678C177.694 83.9521 177.068 84.6743 176.563 85.4196V92.0122C176.611 92.7576 176.995 93.503 177.838 93.503V93.6951H173.796V93.503C174.638 93.503 175.047 92.7096 175.047 91.9393V77.0962C175.047 76.3028 174.565 75.8937 173.796 75.8688V75.6766C174.519 75.6766 175.769 75.6037 176.37 75.1714H176.563V85.1795C176.972 84.4341 177.477 83.9521 178.03 83.5198C178.727 82.9666 179.498 82.6303 180.316 82.6054H180.508C182.049 82.6054 183.443 83.6639 183.587 85.5637V92.0105C183.635 92.7558 184.02 93.478 184.815 93.5012H184.863V93.6933H180.821V93.5012C181.663 93.5012 182.072 92.7078 182.072 91.9375V85.779V85.7808Z" fill="#D18BA5"/>
<path d="M187.364 88.7159C187.364 88.9561 187.412 89.2212 187.485 89.5093C188.038 91.5782 189.314 92.8537 191.358 92.8537C191.502 92.8537 191.671 92.8537 191.815 92.8288C193.667 92.6847 195.399 91.6974 195.856 89.1482H196.073C195.737 91.6013 193.884 93.72 190.997 93.7911H190.9C187.99 93.7911 185.823 91.5302 185.823 88.1609V88.1129C185.823 84.8415 187.869 82.4596 190.9 82.4596H190.997C192.199 82.4845 193.33 82.8207 194.22 83.5909C194.821 84.073 195.47 84.8415 195.47 85.6598C195.47 85.8519 195.446 86.0209 195.374 86.213C195.182 86.7431 193.955 86.7912 192.512 86.7912H191.527C190.468 86.7912 189.385 86.7912 188.616 87.0794C187.871 87.3675 187.366 87.8727 187.366 88.7159H187.364ZM188.568 86.9121C190.564 86.2148 193.982 87.2964 194.053 85.2524C194.053 84.8682 193.932 84.411 193.74 84.146C193.257 83.2316 192.103 82.7264 190.877 82.7264C189.074 82.7264 187.101 83.9058 187.028 86.793C187.028 87.2252 187.124 88.2837 187.197 88.6928C187.245 87.6575 187.871 87.1523 188.568 86.9121Z" fill="#D18BA5"/>
<path d="M200.14 82.5094H205V82.7015L198.697 93.4069H203.436C204.159 93.4069 204.616 91.3131 204.712 90.8079H204.929C204.881 91.7454 204.808 92.6847 204.76 93.6221H197.061V93.4051L203.388 82.6997H198.889C197.687 82.6997 197.349 84.4074 197.23 85.3218H197.038C197.086 84.2865 197.134 83.2761 197.207 82.2425C197.737 82.4115 198.697 82.5076 200.142 82.5076L200.14 82.5094Z" fill="#D18BA5"/>
<path d="M22.5635 101.108C23.1292 101.394 23.5614 101.805 23.8603 102.344C24.1592 102.881 24.3104 103.522 24.3104 104.264C24.3104 105.005 24.1609 105.633 23.8603 106.169C23.5614 106.702 23.1274 107.112 22.5635 107.394C21.9978 107.677 21.32 107.818 20.5302 107.818H18.4151V100.679H20.5302C21.32 100.679 21.9978 100.821 22.5635 101.108ZM22.8019 106.444C23.3231 105.923 23.5828 105.197 23.5828 104.264C23.5828 103.33 23.3231 102.59 22.8019 102.063C22.2806 101.535 21.5228 101.271 20.5284 101.271H19.1284V107.225H20.5284C21.5228 107.225 22.2806 106.966 22.8019 106.444Z" fill="#D18BA5"/>
<path d="M25.6161 101.037C25.5147 100.935 25.4631 100.809 25.4631 100.659C25.4631 100.51 25.5147 100.386 25.6161 100.286C25.7175 100.188 25.8403 100.138 25.9844 100.138C26.1284 100.138 26.2494 100.188 26.3526 100.286C26.454 100.386 26.5056 100.508 26.5056 100.659C26.5056 100.811 26.454 100.935 26.3526 101.037C26.2512 101.138 26.1284 101.19 25.9844 101.19C25.8403 101.19 25.7193 101.138 25.6161 101.037ZM26.3419 102.243V107.82H25.6268V102.243H26.3419Z" fill="#D18BA5"/>
<path d="M28.3182 107.457C27.9127 107.16 27.6867 106.758 27.6387 106.247H28.3734C28.4072 106.56 28.5548 106.814 28.8181 107.008C29.0796 107.202 29.4318 107.3 29.8748 107.3C30.2626 107.3 30.5668 107.208 30.7891 107.024C31.0097 106.841 31.1218 106.612 31.1218 106.339C31.1218 106.149 31.0613 105.993 30.9386 105.87C30.8158 105.747 30.661 105.651 30.4743 105.578C30.2875 105.507 30.0331 105.43 29.7129 105.349C29.2966 105.24 28.9604 105.132 28.7025 105.021C28.4428 104.913 28.224 104.751 28.0443 104.536C27.8646 104.32 27.7739 104.034 27.7739 103.673C27.7739 103.401 27.8557 103.148 28.0194 102.917C28.183 102.686 28.4143 102.502 28.7132 102.365C29.012 102.228 29.3536 102.161 29.7342 102.161C30.3337 102.161 30.8176 102.312 31.1841 102.616C31.5505 102.92 31.7497 103.337 31.7764 103.867H31.0613C31.0417 103.539 30.9137 103.276 30.6788 103.075C30.444 102.874 30.122 102.775 29.7129 102.775C29.3518 102.775 29.06 102.86 28.8341 103.031C28.6082 103.202 28.4961 103.411 28.4961 103.664C28.4961 103.883 28.5619 104.061 28.6954 104.199C28.8288 104.34 28.9924 104.449 29.1917 104.527C29.3891 104.605 29.6542 104.692 29.9886 104.787C30.3907 104.895 30.7109 105.002 30.9492 105.103C31.1876 105.205 31.3922 105.356 31.563 105.553C31.7337 105.751 31.8209 106.012 31.828 106.339C31.828 106.638 31.7462 106.907 31.5825 107.142C31.4189 107.377 31.1912 107.562 30.8976 107.699C30.6041 107.834 30.2679 107.903 29.8872 107.903C29.2468 107.903 28.7238 107.755 28.32 107.458L28.3182 107.457Z" fill="#D18BA5"/>
<path d="M38.2 105.306H33.5731C33.5926 105.728 33.6958 106.089 33.879 106.389C34.0622 106.688 34.3042 106.916 34.6048 107.069C34.9037 107.222 35.231 107.298 35.585 107.298C36.0475 107.298 36.4371 107.186 36.7537 106.96C37.0704 106.736 37.2803 106.432 37.3817 106.051H38.1377C38.0007 106.596 37.7108 107.04 37.2643 107.384C36.8178 107.727 36.2574 107.9 35.5832 107.9C35.0584 107.9 34.5888 107.782 34.1743 107.547C33.7598 107.313 33.4343 106.978 33.1995 106.546C32.9647 106.114 32.8473 105.608 32.8473 105.028C32.8473 104.449 32.9629 103.942 33.1941 103.506C33.4254 103.07 33.7492 102.735 34.1636 102.504C34.5781 102.273 35.0531 102.157 35.5832 102.157C36.1133 102.157 36.5794 102.273 36.9779 102.504C37.3763 102.735 37.6823 103.047 37.8975 103.438C38.1128 103.829 38.2195 104.264 38.2195 104.74C38.2195 104.986 38.2124 105.173 38.2 105.302V105.306ZM37.2447 103.662C37.0704 103.369 36.8338 103.148 36.5349 102.999C36.2361 102.849 35.9087 102.775 35.5547 102.775C35.0228 102.775 34.571 102.945 34.1957 103.285C33.8203 103.625 33.614 104.105 33.5731 104.726H37.4955C37.5026 104.312 37.419 103.956 37.2447 103.664V103.662Z" fill="#D18BA5"/>
<path d="M43.7768 102.759C44.1984 103.171 44.4101 103.767 44.4101 104.552V107.82H43.7057V104.634C43.7057 104.027 43.5545 103.564 43.2503 103.244C42.9479 102.924 42.5334 102.764 42.0086 102.764C41.4838 102.764 41.0409 102.935 40.7225 103.274C40.4023 103.614 40.2422 104.116 40.2422 104.776V107.82H39.527V102.243H40.2422V103.193C40.42 102.853 40.6744 102.591 41.0089 102.412C41.3433 102.232 41.7204 102.141 42.142 102.141C42.8091 102.141 43.3534 102.348 43.7768 102.759ZM40.8256 100.925C40.9822 100.761 41.1832 100.679 41.4287 100.679C41.5514 100.679 41.6564 100.7 41.7453 100.745C41.8343 100.789 41.9392 100.852 42.062 100.933C42.1634 101.008 42.2523 101.065 42.327 101.102C42.4017 101.14 42.4836 101.159 42.5725 101.159C42.6881 101.159 42.7878 101.12 42.8696 101.042C42.9514 100.964 43.003 100.85 43.0226 100.7H43.4513C43.4246 101.001 43.3268 101.234 43.1595 101.399C42.9923 101.565 42.786 101.65 42.5423 101.65C42.4124 101.65 42.3021 101.629 42.2096 101.585C42.1171 101.54 42.0104 101.474 41.8876 101.385C41.7916 101.311 41.7097 101.255 41.6368 101.222C41.5639 101.188 41.4856 101.17 41.3967 101.17C41.1512 101.17 41.0089 101.323 40.968 101.629H40.5286C40.5695 101.323 40.6673 101.088 40.8256 100.925Z" fill="#D18BA5"/>
<path d="M46.0093 103.515C46.237 103.082 46.5537 102.748 46.9593 102.513C47.3649 102.278 47.822 102.161 48.3326 102.161C48.8431 102.161 49.3217 102.284 49.7059 102.529C50.0901 102.775 50.3676 103.088 50.5384 103.468V102.243H51.2535V107.82H50.5384V106.583C50.3605 106.964 50.0812 107.279 49.6952 107.528C49.311 107.777 48.852 107.901 48.3219 107.901C47.7918 107.901 47.3631 107.782 46.9575 107.544C46.5519 107.305 46.2353 106.969 46.0076 106.533C45.7799 106.098 45.666 105.594 45.666 105.021C45.666 104.449 45.7799 103.947 46.0076 103.515H46.0093ZM50.2627 103.845C50.0795 103.506 49.8286 103.242 49.512 103.059C49.1953 102.876 48.8467 102.783 48.4642 102.783C48.0818 102.783 47.7153 102.872 47.4022 103.049C47.0891 103.226 46.8419 103.483 46.6622 103.821C46.4825 104.157 46.3918 104.557 46.3918 105.021C46.3918 105.486 46.4825 105.877 46.6622 106.222C46.8419 106.565 47.0891 106.829 47.4022 107.008C47.7153 107.188 48.0693 107.279 48.4642 107.279C48.8591 107.279 49.1953 107.186 49.512 107.003C49.8286 106.82 50.0795 106.557 50.2627 106.217C50.4459 105.877 50.5384 105.482 50.5384 105.032C50.5384 104.582 50.4459 104.187 50.2627 103.847V103.845Z" fill="#D18BA5"/>
<path d="M52.9079 103.515C53.1391 103.082 53.4576 102.748 53.8632 102.513C54.2687 102.278 54.7259 102.161 55.2365 102.161C55.747 102.161 56.1686 102.28 56.5635 102.518C56.9584 102.757 57.2484 103.066 57.4316 103.447V100.261H58.1467V107.82H57.4316V106.574C57.2608 106.962 56.9816 107.281 56.5938 107.53C56.206 107.779 55.7488 107.903 55.2258 107.903C54.7028 107.903 54.2563 107.784 53.8525 107.546C53.4469 107.307 53.1302 106.971 52.9025 106.535C52.6749 106.099 52.561 105.596 52.561 105.023C52.561 104.45 52.6766 103.949 52.9079 103.516V103.515ZM57.1577 103.845C56.9744 103.506 56.7236 103.242 56.407 103.059C56.0903 102.876 55.7417 102.783 55.3592 102.783C54.9767 102.783 54.6103 102.872 54.2972 103.049C53.9841 103.226 53.7369 103.483 53.5572 103.821C53.3775 104.157 53.2868 104.557 53.2868 105.021C53.2868 105.486 53.3775 105.877 53.5572 106.222C53.7369 106.565 53.9841 106.829 54.2972 107.008C54.6103 107.188 54.9643 107.279 55.3592 107.279C55.7541 107.279 56.0903 107.186 56.407 107.003C56.7236 106.82 56.9744 106.557 57.1577 106.217C57.3409 105.877 57.4334 105.482 57.4334 105.032C57.4334 104.582 57.3409 104.187 57.1577 103.847V103.845Z" fill="#D18BA5"/>
<path d="M60.808 107.549C60.3899 107.314 60.059 106.98 59.8171 106.548C59.5752 106.115 59.4542 105.61 59.4542 105.03C59.4542 104.45 59.577 103.945 59.8225 103.513C60.0679 103.081 60.4006 102.746 60.824 102.511C61.2456 102.276 61.7188 102.159 62.2435 102.159C62.7683 102.159 63.2433 102.276 63.6684 102.511C64.0936 102.746 64.428 103.081 64.6699 103.513C64.9119 103.945 65.0328 104.45 65.0328 105.03C65.0328 105.61 64.9101 106.106 64.6646 106.542C64.4191 106.978 64.0829 107.313 63.6542 107.549C63.2255 107.786 62.7487 107.901 62.224 107.901C61.6992 107.901 61.2278 107.784 60.8097 107.549H60.808ZM63.2451 107.028C63.5581 106.861 63.8125 106.61 64.0064 106.272C64.2003 105.934 64.2982 105.521 64.2982 105.03C64.2982 104.539 64.2021 104.127 64.0118 103.789C63.8214 103.452 63.5688 103.2 63.2557 103.033C62.9426 102.865 62.6029 102.782 62.2346 102.782C61.8664 102.782 61.5266 102.865 61.2136 103.033C60.9005 103.2 60.6496 103.451 60.4629 103.789C60.2761 104.125 60.1818 104.539 60.1818 105.03C60.1818 105.521 60.2761 105.934 60.4629 106.272C60.6496 106.608 60.8987 106.861 61.2082 107.028C61.5177 107.195 61.8575 107.279 62.224 107.279C62.5904 107.279 62.932 107.195 63.2451 107.028Z" fill="#D18BA5"/>
<path d="M67.7742 102.426C68.0979 102.236 68.4946 102.14 68.9642 102.14V102.885H68.7703C68.2527 102.885 67.8382 103.024 67.5251 103.303C67.212 103.582 67.0555 104.048 67.0555 104.703V107.818H66.3404V102.241H67.0555V103.232C67.212 102.885 67.4522 102.616 67.7759 102.424L67.7742 102.426Z" fill="#D18BA5"/>
<path d="M70.0529 103.515C70.2806 103.082 70.5973 102.748 71.0029 102.513C71.4084 102.278 71.8656 102.161 72.3762 102.161C72.8867 102.161 73.3652 102.284 73.7495 102.529C74.1337 102.775 74.4112 103.088 74.582 103.468V102.243H75.2971V107.82H74.582V106.583C74.4041 106.964 74.1248 107.279 73.7388 107.528C73.3546 107.777 72.8956 107.901 72.3655 107.901C71.8354 107.901 71.4067 107.782 71.0011 107.544C70.5955 107.305 70.2788 106.969 70.0512 106.533C69.8235 106.098 69.7096 105.594 69.7096 105.021C69.7096 104.449 69.8235 103.947 70.0512 103.515H70.0529ZM74.3063 103.845C74.123 103.506 73.8722 103.242 73.5556 103.059C73.2389 102.876 72.8903 102.783 72.5078 102.783C72.1253 102.783 71.7589 102.872 71.4458 103.049C71.1327 103.226 70.8855 103.483 70.7058 103.821C70.5261 104.157 70.4354 104.557 70.4354 105.021C70.4354 105.486 70.5261 105.877 70.7058 106.222C70.8855 106.565 71.1327 106.829 71.4458 107.008C71.7589 107.188 72.1129 107.279 72.5078 107.279C72.9027 107.279 73.2389 107.186 73.5556 107.003C73.8722 106.82 74.123 106.557 74.3063 106.217C74.4895 105.877 74.582 105.482 74.582 105.032C74.582 104.582 74.4895 104.187 74.3063 103.847V103.845Z" fill="#D18BA5"/>
<path d="M84.3268 102.243L81.018 110.445H80.2727L81.356 107.789L79.0684 102.243H79.8546L81.7545 107.003L83.5921 102.243H84.3268Z" fill="#D18BA5"/>
<path d="M89.6421 102.533C90.0263 102.284 90.4853 102.159 91.0154 102.159C91.5188 102.159 91.9742 102.276 92.3798 102.511C92.7854 102.746 93.102 103.081 93.3297 103.513C93.5574 103.945 93.6713 104.447 93.6713 105.02C93.6713 105.592 93.5574 106.096 93.3297 106.532C93.102 106.967 92.7854 107.304 92.3798 107.542C91.9742 107.78 91.5206 107.9 91.0154 107.9C90.5102 107.9 90.0352 107.775 89.6474 107.526C89.2596 107.277 88.9768 106.966 88.7989 106.592V110.452H88.0945V102.239H88.7989V103.465C88.9768 103.091 89.2561 102.778 89.6421 102.531V102.533ZM92.6769 103.821C92.4972 103.483 92.2499 103.226 91.9369 103.049C91.6238 102.872 91.2698 102.783 90.8749 102.783C90.48 102.783 90.1437 102.876 89.8271 103.059C89.5105 103.242 89.2596 103.506 89.0764 103.845C88.8932 104.187 88.8007 104.58 88.8007 105.03C88.8007 105.48 88.8932 105.875 89.0764 106.215C89.2596 106.557 89.5105 106.818 89.8271 107.001C90.1437 107.184 90.4924 107.277 90.8749 107.277C91.2573 107.277 91.6238 107.186 91.9369 107.007C92.2499 106.827 92.4972 106.564 92.6769 106.22C92.8566 105.877 92.9473 105.477 92.9473 105.02C92.9473 104.562 92.8566 104.157 92.6769 103.819V103.821Z" fill="#D18BA5"/>
<path d="M96.425 102.426C96.7488 102.236 97.1455 102.14 97.6151 102.14V102.885H97.4212C96.9035 102.885 96.489 103.024 96.176 103.303C95.8629 103.582 95.7063 104.048 95.7063 104.703V107.818H94.9912V102.241H95.7063V103.232C95.8629 102.885 96.103 102.616 96.4268 102.424L96.425 102.426Z" fill="#D18BA5"/>
<path d="M99.7142 107.549C99.2962 107.314 98.9653 106.98 98.7234 106.548C98.4815 106.115 98.3605 105.61 98.3605 105.03C98.3605 104.45 98.4832 103.945 98.7287 103.513C98.9742 103.081 99.3069 102.746 99.7302 102.511C100.152 102.276 100.625 102.159 101.15 102.159C101.675 102.159 102.15 102.276 102.575 102.511C103 102.746 103.334 103.081 103.576 103.513C103.818 103.945 103.939 104.45 103.939 105.03C103.939 105.61 103.816 106.106 103.571 106.542C103.325 106.978 102.989 107.313 102.56 107.549C102.132 107.784 101.655 107.901 101.13 107.901C100.605 107.901 100.134 107.784 99.716 107.549H99.7142ZM102.15 107.028C102.463 106.861 102.717 106.61 102.911 106.272C103.105 105.934 103.203 105.521 103.203 105.03C103.203 104.539 103.107 104.127 102.916 103.789C102.726 103.452 102.473 103.2 102.16 103.033C101.847 102.865 101.507 102.782 101.139 102.782C100.771 102.782 100.431 102.865 100.118 103.033C99.805 103.2 99.5541 103.451 99.3674 103.789C99.1806 104.125 99.0863 104.539 99.0863 105.03C99.0863 105.521 99.1806 105.934 99.3674 106.272C99.5541 106.608 99.8032 106.861 100.113 107.028C100.422 107.195 100.762 107.279 101.128 107.279C101.495 107.279 101.836 107.195 102.15 107.028Z" fill="#D18BA5"/>
<path d="M108.952 102.527C109.34 102.773 109.619 103.082 109.79 103.456V102.241H110.505V107.96C110.505 108.471 110.395 108.924 110.172 109.319C109.95 109.714 109.642 110.018 109.247 110.233C108.852 110.449 108.402 110.555 107.899 110.555C107.184 110.555 106.59 110.385 106.116 110.045C105.643 109.703 105.348 109.241 105.232 108.656H105.937C106.06 109.043 106.293 109.353 106.636 109.584C106.979 109.815 107.401 109.931 107.897 109.931C108.258 109.931 108.582 109.855 108.868 109.702C109.155 109.549 109.379 109.323 109.543 109.022C109.706 108.723 109.788 108.369 109.788 107.96V106.581C109.61 106.962 109.329 107.277 108.945 107.526C108.561 107.775 108.105 107.9 107.58 107.9C107.056 107.9 106.611 107.78 106.207 107.542C105.802 107.304 105.485 106.967 105.257 106.532C105.03 106.096 104.916 105.592 104.916 105.02C104.916 104.447 105.03 103.945 105.257 103.513C105.485 103.081 105.802 102.746 106.207 102.511C106.613 102.276 107.07 102.159 107.58 102.159C108.091 102.159 108.561 102.282 108.948 102.527H108.952ZM109.514 103.845C109.331 103.506 109.08 103.242 108.763 103.059C108.447 102.876 108.098 102.783 107.716 102.783C107.333 102.783 106.967 102.872 106.654 103.049C106.341 103.226 106.093 103.483 105.914 103.821C105.734 104.157 105.643 104.557 105.643 105.021C105.643 105.486 105.734 105.877 105.914 106.222C106.093 106.565 106.341 106.829 106.654 107.008C106.967 107.188 107.321 107.279 107.716 107.279C108.111 107.279 108.447 107.186 108.763 107.003C109.08 106.82 109.331 106.557 109.514 106.217C109.697 105.877 109.79 105.482 109.79 105.032C109.79 104.582 109.697 104.187 109.514 103.847V103.845Z" fill="#D18BA5"/>
<path d="M113.574 102.426C113.897 102.236 114.294 102.14 114.764 102.14V102.885H114.57C114.052 102.885 113.638 103.024 113.325 103.303C113.011 103.582 112.855 104.048 112.855 104.703V107.818H112.14V102.241H112.855V103.232C113.011 102.885 113.252 102.616 113.575 102.424L113.574 102.426Z" fill="#D18BA5"/>
<path d="M115.852 103.515C116.08 103.082 116.397 102.748 116.802 102.513C117.208 102.278 117.665 102.161 118.176 102.161C118.686 102.161 119.165 102.284 119.549 102.529C119.933 102.775 120.211 103.088 120.381 103.468V102.243H121.097V107.82H120.381V106.583C120.204 106.964 119.922 107.279 119.538 107.528C119.154 107.777 118.695 107.901 118.165 107.901C117.635 107.901 117.206 107.782 116.8 107.544C116.395 107.305 116.078 106.969 115.851 106.533C115.623 106.098 115.509 105.594 115.509 105.021C115.509 104.449 115.623 103.947 115.851 103.515H115.852ZM120.106 103.845C119.922 103.506 119.672 103.242 119.355 103.059C119.038 102.876 118.69 102.783 118.307 102.783C117.925 102.783 117.558 102.872 117.245 103.049C116.932 103.226 116.685 103.483 116.505 103.821C116.326 104.157 116.235 104.557 116.235 105.021C116.235 105.486 116.326 105.877 116.505 106.222C116.685 106.565 116.932 106.829 117.245 107.008C117.558 107.188 117.912 107.279 118.307 107.279C118.702 107.279 119.038 107.186 119.355 107.003C119.672 106.82 119.922 106.557 120.106 106.217C120.289 105.877 120.381 105.482 120.381 105.032C120.381 104.582 120.289 104.187 120.106 103.847V103.845Z" fill="#D18BA5"/>
<path d="M130.969 102.759C131.382 103.171 131.587 103.767 131.587 104.552V107.82H130.882V104.634C130.882 104.027 130.736 103.564 130.443 103.244C130.149 102.924 129.751 102.764 129.247 102.764C128.744 102.764 128.305 102.938 127.992 103.285C127.678 103.632 127.522 104.137 127.522 104.797V107.821H126.818V104.635C126.818 104.029 126.672 103.566 126.378 103.246C126.085 102.926 125.684 102.766 125.172 102.766C124.66 102.766 124.229 102.94 123.916 103.287C123.603 103.634 123.447 104.139 123.447 104.799V107.823H122.731V102.246H123.447V103.207C123.624 102.86 123.875 102.597 124.203 102.415C124.53 102.236 124.893 102.145 125.295 102.145C125.779 102.145 126.202 102.26 126.567 102.492C126.931 102.723 127.195 103.063 127.358 103.513C127.508 103.07 127.766 102.732 128.13 102.497C128.495 102.262 128.908 102.145 129.372 102.145C130.025 102.145 130.559 102.351 130.971 102.762L130.969 102.759Z" fill="#D18BA5"/>
<path d="M133.184 103.515C133.412 103.082 133.728 102.748 134.134 102.513C134.54 102.278 134.997 102.161 135.507 102.161C136.018 102.161 136.496 102.284 136.881 102.529C137.265 102.775 137.542 103.088 137.713 103.468V102.243H138.428V107.82H137.713V106.583C137.535 106.964 137.254 107.279 136.87 107.528C136.486 107.777 136.027 107.901 135.497 107.901C134.993 107.901 134.538 107.782 134.132 107.544C133.727 107.305 133.41 106.969 133.182 106.533C132.955 106.098 132.841 105.594 132.841 105.021C132.841 104.449 132.955 103.947 133.182 103.515H133.184ZM137.439 103.845C137.256 103.506 137.005 103.242 136.689 103.059C136.372 102.876 136.023 102.783 135.641 102.783C135.258 102.783 134.892 102.872 134.579 103.049C134.266 103.226 134.018 103.483 133.839 103.821C133.659 104.157 133.568 104.557 133.568 105.021C133.568 105.486 133.659 105.877 133.839 106.222C134.018 106.565 134.266 106.829 134.579 107.008C134.892 107.188 135.246 107.279 135.641 107.279C136.036 107.279 136.372 107.186 136.689 107.003C137.005 106.82 137.256 106.557 137.439 106.217C137.622 105.877 137.715 105.482 137.715 105.032C137.715 104.582 137.622 104.187 137.439 103.847V103.845Z" fill="#D18BA5"/>
<path d="M140.084 103.515C140.316 103.082 140.634 102.748 141.04 102.513C141.445 102.278 141.903 102.161 142.413 102.161C142.924 102.161 143.345 102.28 143.74 102.518C144.135 102.757 144.425 103.066 144.608 103.447V100.261H145.323V107.82H144.608V106.574C144.437 106.962 144.158 107.281 143.77 107.53C143.383 107.779 142.925 107.903 142.402 107.903C141.879 107.903 141.433 107.784 141.029 107.546C140.624 107.307 140.307 106.971 140.079 106.535C139.851 106.099 139.738 105.596 139.738 105.023C139.738 104.45 139.853 103.949 140.084 103.516V103.515ZM144.334 103.845C144.151 103.506 143.9 103.242 143.584 103.059C143.267 102.876 142.918 102.783 142.536 102.783C142.153 102.783 141.787 102.872 141.474 103.049C141.161 103.226 140.913 103.483 140.734 103.821C140.554 104.157 140.463 104.557 140.463 105.021C140.463 105.486 140.554 105.877 140.734 106.222C140.913 106.565 141.161 106.829 141.474 107.008C141.787 107.188 142.141 107.279 142.536 107.279C142.931 107.279 143.267 107.186 143.584 107.003C143.9 106.82 144.151 106.557 144.334 106.217C144.517 105.877 144.61 105.482 144.61 105.032C144.61 104.582 144.517 104.187 144.334 103.847V103.845Z" fill="#D18BA5"/>
<path d="M147.985 107.549C147.566 107.314 147.236 106.98 146.994 106.548C146.752 106.115 146.631 105.61 146.631 105.03C146.631 104.45 146.754 103.945 146.999 103.513C147.245 103.081 147.577 102.746 148.001 102.511C148.422 102.276 148.895 102.159 149.42 102.159C149.945 102.159 150.42 102.276 150.845 102.511C151.27 102.746 151.605 103.081 151.847 103.513C152.088 103.945 152.209 104.45 152.209 105.03C152.209 105.61 152.087 106.106 151.841 106.542C151.596 106.978 151.259 107.313 150.831 107.549C150.402 107.784 149.925 107.901 149.401 107.901C148.876 107.901 148.404 107.784 147.986 107.549H147.985ZM150.422 107.028C150.735 106.861 150.989 106.61 151.183 106.272C151.377 105.934 151.475 105.521 151.475 105.03C151.475 104.539 151.379 104.127 151.188 103.789C150.998 103.451 150.745 103.2 150.432 103.033C150.119 102.865 149.779 102.782 149.411 102.782C149.043 102.782 148.703 102.865 148.39 103.033C148.077 103.2 147.826 103.451 147.639 103.789C147.453 104.125 147.358 104.539 147.358 105.03C147.358 105.521 147.453 105.934 147.639 106.272C147.826 106.608 148.075 106.861 148.385 107.028C148.694 107.195 149.034 107.279 149.401 107.279C149.767 107.279 150.109 107.195 150.422 107.028Z" fill="#D18BA5"/>
<path d="M154.951 102.426C155.275 102.236 155.671 102.14 156.141 102.14V102.885H155.947C155.429 102.885 155.015 103.024 154.702 103.303C154.389 103.582 154.232 104.048 154.232 104.703V107.818H153.517V102.241H154.232V103.232C154.389 102.885 154.629 102.616 154.953 102.424L154.951 102.426Z" fill="#D18BA5"/>
<path d="M157.229 103.515C157.457 103.082 157.774 102.748 158.179 102.513C158.585 102.278 159.042 102.161 159.553 102.161C160.063 102.161 160.542 102.284 160.926 102.529C161.31 102.775 161.588 103.088 161.759 103.468V102.243H162.474V107.82H161.759V106.583C161.581 106.964 161.3 107.279 160.915 107.528C160.531 107.777 160.072 107.901 159.542 107.901C159.039 107.901 158.583 107.782 158.178 107.544C157.772 107.305 157.455 106.969 157.228 106.533C157 106.098 156.886 105.594 156.886 105.021C156.886 104.449 157 103.947 157.228 103.515H157.229ZM161.483 103.845C161.3 103.506 161.049 103.242 160.732 103.059C160.415 102.876 160.067 102.783 159.684 102.783C159.302 102.783 158.935 102.872 158.622 103.049C158.309 103.226 158.062 103.483 157.882 103.821C157.703 104.157 157.612 104.557 157.612 105.021C157.612 105.486 157.703 105.877 157.882 106.222C158.062 106.565 158.309 106.829 158.622 107.008C158.935 107.188 159.289 107.279 159.684 107.279C160.079 107.279 160.415 107.186 160.732 107.003C161.049 106.82 161.3 106.557 161.483 106.217C161.666 105.877 161.759 105.482 161.759 105.032C161.759 104.582 161.666 104.187 161.483 103.847V103.845Z" fill="#D18BA5"/>
<path d="M174.261 102.243L172.514 107.82H171.799L170.256 103.141L168.714 107.82H167.988L166.241 102.243H166.967L168.357 107.094L169.92 102.243H170.635L172.178 107.104L173.556 102.243H174.261Z" fill="#D18BA5"/>
<path d="M180.256 105.306H175.629C175.648 105.728 175.751 106.089 175.935 106.389C176.118 106.688 176.36 106.916 176.66 107.069C176.961 107.222 177.287 107.298 177.641 107.298C178.103 107.298 178.493 107.186 178.809 106.96C179.126 106.736 179.336 106.432 179.437 106.051H180.193C180.056 106.596 179.766 107.04 179.32 107.384C178.873 107.727 178.313 107.9 177.639 107.9C177.114 107.9 176.644 107.782 176.23 107.547C175.814 107.313 175.49 106.978 175.255 106.546C175.02 106.114 174.903 105.608 174.903 105.028C174.903 104.449 175.018 103.942 175.25 103.506C175.481 103.07 175.805 102.735 176.221 102.504C176.635 102.273 177.11 102.157 177.641 102.157C178.171 102.157 178.637 102.273 179.035 102.504C179.434 102.735 179.74 103.047 179.955 103.438C180.17 103.829 180.277 104.264 180.277 104.74C180.277 104.986 180.27 105.173 180.256 105.302V105.306ZM179.302 103.662C179.128 103.369 178.891 103.148 178.592 102.999C178.292 102.849 177.966 102.775 177.612 102.775C177.08 102.775 176.628 102.945 176.253 103.285C175.878 103.625 175.671 104.105 175.63 104.726H179.553C179.56 104.312 179.476 103.956 179.302 103.664V103.662Z" fill="#D18BA5"/>
<path d="M183.141 102.527C183.525 102.282 183.981 102.159 184.505 102.159C185.03 102.159 185.473 102.276 185.873 102.511C186.275 102.746 186.59 103.081 186.818 103.513C187.046 103.945 187.159 104.447 187.159 105.02C187.159 105.592 187.046 106.096 186.818 106.532C186.59 106.967 186.274 107.304 185.868 107.542C185.462 107.78 185.009 107.9 184.504 107.9C183.972 107.9 183.514 107.779 183.13 107.537C182.746 107.295 182.465 106.98 182.287 106.592V107.818H181.583V100.259H182.287V103.477C182.47 103.089 182.755 102.773 183.139 102.527H183.141ZM186.165 103.821C185.985 103.483 185.738 103.226 185.425 103.049C185.112 102.872 184.758 102.783 184.363 102.783C183.968 102.783 183.632 102.876 183.317 103.059C183 103.242 182.75 103.506 182.566 103.845C182.383 104.187 182.291 104.58 182.291 105.03C182.291 105.48 182.383 105.875 182.566 106.215C182.75 106.556 183 106.818 183.317 107.001C183.634 107.184 183.982 107.277 184.363 107.277C184.744 107.277 185.112 107.186 185.425 107.007C185.738 106.827 185.985 106.564 186.165 106.22C186.345 105.877 186.435 105.477 186.435 105.02C186.435 104.562 186.345 104.157 186.165 103.819V103.821Z" fill="#D18BA5"/>
<path d="M146.279 81.5897L147.933 79.9905L147.083 79.3857L146.055 81.5897H146.279Z" fill="#D18BA5"/>
</svg>
