<svg width="205" height="111" viewBox="0 0 205 111" fill="none" xmlns="http://www.w3.org/2000/svg">
<path d="M98.405 20.6216C98.405 20.6216 97.5315 36.806 96.4251 46.8567C95.3186 56.9057 94.9592 66.0706 87.4985 58.6224C87.4985 58.6224 84.8853 56.0305 80.1304 60.1166C80.1304 60.1166 76.062 62.1855 79.0968 55.1304C82.1316 48.0753 96.176 18.9814 96.176 18.9814L98.405 20.6216Z" fill="white" stroke="#E0DCDA" stroke-width="2" stroke-miterlimit="10"/>
<path d="M103.701 20.5734C103.701 20.5734 104.571 29.7685 105.412 33.5433C106.206 37.1065 111.825 68.3528 110.891 75.1926C110.76 76.1621 111.176 77.1512 112.009 77.6671C112.921 78.231 114.188 78.1741 115.476 75.4203C116.121 74.0399 116.847 72.6986 117.605 71.3769C117.845 70.9589 118.374 70.7987 118.799 71.0264C120.156 71.754 123.079 72.8285 124.838 69.847C124.838 69.847 125.971 56.918 119.615 44.2718C113.259 31.6257 106.64 18.8301 106.64 18.8301L103.701 20.5734Z" fill="white" stroke="#E0DCDA" stroke-width="2" stroke-miterlimit="10"/>
<path d="M97.1439 13.5982C97.1439 13.5982 94.8598 17.0742 97.288 20.004C97.288 20.004 85.2413 40.0202 73.7016 37.9442C63.9728 36.1938 66.9525 25.9135 68.1265 22.7329C68.4432 21.8719 68.5837 20.9593 68.5481 20.0432C68.4948 18.693 68.2368 16.7113 67.3367 14.6353C66.739 13.2567 66.57 11.7304 66.8973 10.2646C67.7601 6.39549 70.7842 0.322335 81.3935 3.78407C81.3935 3.78407 95.132 9.64375 97.1439 13.5982Z" fill="white" stroke="#E0DCDA" stroke-width="2" stroke-miterlimit="10"/>
<path d="M103.763 13.9401C103.763 13.9401 106.375 17.1759 104.245 20.3298C104.245 20.3298 118.188 39.0759 129.47 35.8827C138.982 33.1913 135.013 23.2526 133.535 20.2C133.135 19.3746 132.907 18.4798 132.852 17.5637C132.772 16.2153 132.837 14.2176 133.531 12.0633C133.992 10.6331 134.012 9.0979 133.542 7.66945C132.307 3.90352 128.703 -1.84587 118.482 2.63517C118.482 2.63517 105.38 9.80768 103.763 13.9401Z" fill="white" stroke="#E0DCDA" stroke-width="2" stroke-miterlimit="10"/>
<path d="M97.8095 13.3708C98.8964 13.056 101.143 12.6308 103.262 13.6643C103.609 13.8333 103.891 14.1126 104.078 14.4506C104.585 15.3667 105.457 17.3787 104.713 19.3977C104.486 20.0168 103.991 20.5006 103.372 20.7283C102.253 21.1393 100.195 21.5715 97.9856 20.4188C97.3078 20.0648 96.7724 19.4724 96.5215 18.7502C96.1996 17.8216 96.0644 16.3451 96.8915 14.2033C97.0481 13.7978 97.3896 13.4918 97.8077 13.3708H97.8095Z" fill="white" stroke="#E0DCDA" stroke-width="2" stroke-miterlimit="10"/>
<path d="M96.8824 13.5893C96.8824 13.5893 96.2082 10.3873 83.4464 4.7037C83.4464 4.7037 77.5832 1.6778 72.7482 3.16318C71.7591 3.46737 70.9461 4.22162 70.6437 5.21069C70.2417 6.51996 70.6241 8.35044 74.7814 9.601C81.9059 11.7428 91.1989 13.8045 91.1989 13.8045C91.1989 13.8045 95.381 14.7972 96.8842 13.5893H96.8824Z" fill="white" stroke="#E0DCDA" stroke-width="2" stroke-miterlimit="10"/>
<path d="M104.009 13.9615C104.009 13.9615 104.569 10.6314 117.012 3.46954C117.012 3.46954 122.342 0.203483 127.438 1.2726C128.481 1.4914 130.233 2.39509 130.648 3.39305C131.195 4.71477 130.514 5.87461 126.4 7.58235C119.344 10.5086 110.068 13.5666 110.068 13.5666C110.068 13.5666 105.672 15.0715 104.007 13.9632L104.009 13.9615Z" fill="white" stroke="#E0DCDA" stroke-width="2" stroke-miterlimit="10"/>
<path d="M96 16C96 16 81.604 21.2132 73 17.8952" stroke="#E0DCDA" stroke-width="2" stroke-miterlimit="10"/>
<path d="M97 18C97 18 86.6107 26.5263 80 27" stroke="#E0DCDA" stroke-width="2" stroke-miterlimit="10"/>
<path d="M105 15.8257C105 15.8257 120.065 18.9534 128 15" stroke="#E0DCDA" stroke-width="2" stroke-miterlimit="10"/>
<path d="M105 18.5C105 18.5 116.859 25.8976 122.904 25.5098" stroke="#E0DCDA" stroke-width="2" stroke-miterlimit="10"/>
<path d="M2.38194 91.8686C2.309 92.1087 2.26098 92.3258 2.26098 92.4948C2.26098 93.0729 2.64522 93.3842 3.44038 93.4322V93.6244H0V93.4322C0.818292 93.4322 1.63658 93 1.9977 92.1568C2.45487 90.9062 7.09779 78.276 7.09779 78.0821C6.83274 77.673 6.30441 77.4328 5.84723 77.4079V77.2158H9.91201V77.4079C9.16665 77.4079 8.87847 77.5769 8.87847 77.9612C8.87847 78.0341 8.87847 78.1053 8.90337 78.1782L13.2581 91.3385L13.4022 91.8206C13.4271 91.9166 13.4271 91.9895 13.4271 92.0856C13.4271 92.8078 12.9468 93.4091 12.2726 93.6012C12.1285 93.6493 12.0075 93.6493 11.8635 93.6493C11.4063 93.6493 10.9491 93.4571 10.636 93.096C9.33743 91.4594 7.98902 89.7286 6.6673 88.0671C6.25815 87.5388 5.36871 86.3825 4.55041 86.3825C4.47748 86.3825 4.42945 86.4074 4.38142 86.4074C3.70722 88.2361 3.0348 90.0648 2.38372 91.8686H2.38194ZM4.4508 86.1423C4.49883 86.1423 4.54686 86.1174 4.61979 86.1174C5.41318 86.1174 6.23147 87.0798 6.66552 87.633C7.19564 88.3072 7.84493 89.1006 8.39817 89.798C9.23959 90.8813 9.96181 91.7458 10.2749 92.1799L10.7321 92.7331C11.0683 93.1903 11.3814 93.4073 11.6215 93.4073C11.8136 93.4073 11.9577 93.2383 11.9577 92.9253C11.9577 92.7563 11.9097 92.5161 11.8137 92.2279C11.7656 92.0838 11.7176 91.9148 11.6447 91.7227C10.202 87.3449 8.83044 82.7731 7.26679 78.4433L4.50061 86.0694L4.45258 86.1423H4.4508Z" fill="white"/>
<path d="M22.688 85.8769C22.688 85.0105 22.6151 84.025 21.9178 83.5429C21.5815 83.3259 21.1724 83.2067 20.7152 83.2067C20.21 83.2067 19.6568 83.3508 19.1267 83.5678C18.3084 83.9521 17.6591 84.6743 17.1788 85.4197V92.0123C17.2037 92.7576 17.6111 93.503 18.4293 93.503V93.6951H14.3877V93.503C15.254 93.503 15.6383 92.7096 15.6632 91.9393V84.5783C15.6632 83.76 15.206 83.3277 14.3877 83.3028V83.1107C15.1331 83.1107 16.3605 83.0377 16.9618 82.6055H17.1788V85.1795C17.563 84.4342 18.0931 83.9521 18.6464 83.5198C19.3206 82.9666 20.114 82.6304 20.9323 82.6055H21.1244C22.6649 82.6055 24.0595 83.6639 24.2036 85.5406V92.0123C24.2285 92.7576 24.6128 93.4799 25.4311 93.503H25.456V93.6951H21.4143V93.503C22.2807 93.503 22.6649 92.7096 22.6898 91.9393V85.8769H22.688Z" fill="white"/>
<path d="M36.6416 80.2008H36.7626V82.0046C36.4495 81.5724 35.7771 81.3304 35.1989 81.3304C35.0068 81.3304 34.7898 81.3785 34.6208 81.4265C33.9946 81.6666 33.5855 82.1967 33.2012 82.8692C34.7168 83.3744 35.7504 84.5289 35.8233 86.3807L35.8482 86.5497C35.8482 88.4015 34.1636 90.1342 31.3743 90.1822C30.5329 90.1822 29.6897 90.0132 28.9212 89.6521C27.5497 90.3975 26.7314 91.4328 26.5873 92.6602C26.6353 93.6706 27.1405 94.537 27.7418 94.754C27.8627 94.802 27.9819 94.8269 28.1029 94.8269C29.1133 94.8269 29.6185 93.1192 30.99 92.1568C31.6162 91.6996 32.4096 91.4114 33.2759 91.4114C33.7811 91.4114 34.3344 91.5324 34.8645 91.7725C35.7059 92.1568 36.2591 93 36.2591 94.3466V94.7558C35.9941 96.7286 34.3344 98.2442 32.3135 98.3883H32.1446C31.8795 98.3883 31.6144 98.3651 31.3263 98.3153C31.1573 98.2904 30.9651 98.2424 30.8211 98.1712C29.9067 97.8582 29.5456 96.8958 29.5456 96.0294C29.5456 95.7893 29.5705 95.5723 29.6185 95.3552C29.7395 95.2823 29.6665 95.3321 29.7875 95.2592C29.7146 95.4993 29.6666 95.7644 29.6666 96.0045C29.6666 96.9669 30.2678 97.8564 31.3263 98.0983C31.4953 98.1232 31.6625 98.1232 31.8066 98.1232C33.1781 98.1232 34.3806 97.3298 34.8378 96.1753C35.0068 95.743 35.1029 95.2378 35.1029 94.7558C35.1029 93.7702 34.7186 92.831 33.7562 92.71C33.6121 92.6851 33.4912 92.6851 33.3471 92.6851C31.7585 92.6851 30.9651 94.1527 30.0028 94.923C29.6416 95.188 29.2325 95.3552 28.6312 95.3552H28.4142C27.0907 95.2592 26.4165 94.2488 26.4165 93.0694C26.4165 91.8188 27.1619 90.3512 28.6775 89.5329C27.523 88.8356 26.8737 87.6811 26.8737 86.3807C26.8737 84.1909 28.6775 82.5792 31.3245 82.5792H31.3725C31.9738 82.6023 32.5039 82.6753 33.0091 82.7962C33.3933 82.074 33.8274 81.4247 34.3077 81.0156C34.9819 80.4623 35.7753 80.1973 36.6416 80.1973V80.2008ZM32.744 83.3032C32.2637 82.9901 31.7087 82.8229 31.0594 82.8229C30.2411 82.8229 29.6167 83.1111 29.1347 83.6643C28.6775 84.2176 28.4373 84.9878 28.4373 85.9502C28.4373 86.6956 28.5814 87.3449 28.8465 87.971C29.1115 88.5723 29.4726 89.0544 29.9298 89.3906C30.4101 89.7517 30.9402 89.9207 31.5664 89.9207C32.6498 89.9207 33.4663 89.2945 33.8754 88.4051C34.1156 87.8999 34.2365 87.2986 34.2365 86.6013C34.2365 85.904 34.1156 85.2066 33.8523 84.6534C33.5872 84.0753 33.203 83.6181 32.7458 83.3068L32.744 83.3032Z" fill="white"/>
<path d="M39.2637 88.7163C39.2637 88.9565 39.3117 89.2215 39.3846 89.5097C39.9379 91.5786 41.2133 92.854 43.2573 92.854C43.4014 92.854 43.5704 92.854 43.7145 92.8291C45.5663 92.6851 47.2989 91.6978 47.7561 89.1486H47.9732C47.6369 91.6017 45.7833 93.7204 42.8962 93.7915H42.8001C39.8898 93.7915 37.7231 91.5306 37.7231 88.1613V88.1133C37.7231 84.8419 39.7689 82.46 42.8001 82.46H42.8962C44.0987 82.4849 45.2301 82.8211 46.1195 83.5913C46.7208 84.0734 47.3701 84.8419 47.3701 85.6602C47.3701 85.8523 47.3452 86.0213 47.274 86.2134C47.0819 86.7435 45.8545 86.7916 44.4118 86.7916H43.4263C42.3678 86.7916 41.2845 86.7916 40.516 87.0797C39.7707 87.3679 39.2655 87.8731 39.2655 88.7163H39.2637ZM40.4662 86.9125C42.4621 86.2152 45.8794 87.2968 45.9505 85.2528C45.9505 84.8686 45.8296 84.4114 45.6375 84.1464C45.1572 83.232 44.0009 82.7268 42.7752 82.7268C40.9714 82.7268 38.9986 83.9062 38.9257 86.7933C38.9257 87.2256 39.0217 88.2841 39.0947 88.6932C39.1427 87.6579 39.7689 87.1527 40.4662 86.9125Z" fill="white"/>
<path d="M52.4953 93.6242H48.4536V93.4321C49.3199 93.4321 49.7042 92.6387 49.7291 91.8685V77.0254C49.7042 76.232 49.247 75.8228 48.4536 75.8228V75.6058C48.9357 75.6058 49.3431 75.5827 49.7291 75.5329C50.3072 75.4368 50.7395 75.2927 51.0277 75.1006H51.2447V91.9414C51.2696 92.6868 51.677 93.4321 52.4953 93.4321V93.6242Z" fill="white"/>
<path d="M57.4992 93.6242H53.4575V93.4321C54.3238 93.4321 54.7081 92.6387 54.733 91.8685V77.0254C54.7081 76.232 54.2509 75.8228 53.4575 75.8228V75.6058C53.9396 75.6058 54.347 75.5827 54.733 75.5329C55.3111 75.4368 55.7434 75.2927 56.0316 75.1006H56.2486V91.9414C56.2735 92.6868 56.6809 93.4321 57.4992 93.4321V93.6242Z" fill="white"/>
<path d="M67.1712 82.5098H69.9854V82.7268C69.2632 82.7268 68.6868 82.7997 68.3969 83.5202L64.7163 93.6243L63.802 96.1984C63.3217 97.2568 62.6226 98.2672 61.276 98.3402H61.1319C60.3136 98.3402 59.2071 97.9791 59.2071 97.0167V96.9918C59.232 96.0294 60.0005 95.5971 61.276 95.5971C61.6371 95.5971 62.0213 95.6202 62.4554 95.6932C62.6244 95.7163 62.7685 95.7412 62.9125 95.7412C63.1047 95.7412 63.2737 95.7163 63.4177 95.5971C63.6579 95.4281 63.8749 95.1399 64.067 94.7557L64.4762 93.6243H63.3928L60.1446 83.8333C59.8564 82.9918 59.3512 82.7268 58.46 82.7268V82.5098H62.6457V82.7268C62.1885 82.7268 61.6104 82.8478 61.6104 83.3049C61.6104 83.3779 61.6353 83.449 61.6584 83.5451L64.7626 92.8558L68.1069 83.666C68.203 83.401 68.251 83.2338 68.251 83.0879C68.251 82.7517 67.9148 82.7268 67.1677 82.7268V82.5098H67.1712ZM63.898 95.3801C63.7771 95.5242 63.585 95.7163 63.4658 95.8124C63.3217 95.9084 63.1776 95.9333 62.9606 95.9333C62.8396 95.9333 62.6724 95.9333 62.4554 95.8853C62.3593 95.8604 62.2632 95.8604 62.1423 95.8604C61.445 95.8604 60.6516 96.1966 60.6516 96.9669C60.6516 97.0149 60.6747 97.0878 60.6747 97.159C60.7476 97.6411 61.0838 98.0253 61.589 98.0253H61.71C62.9606 97.8563 63.5138 96.3887 63.8998 95.3783L63.898 95.3801Z" fill="white"/>
<path d="M79.0791 77.2655L84.7574 91.2422C86.369 86.5744 87.9576 81.9315 89.5693 77.2655H92.5045V77.4576C91.5901 77.4576 91.0849 78.1549 91.0849 79.0212V91.8915C91.0849 92.2278 91.1578 92.5657 91.35 92.829C91.567 93.2133 91.9281 93.4072 92.4084 93.4303H92.5045V93.6224H88.1266V93.4303H88.3436C88.7528 93.3823 89.0659 93.2133 89.2811 92.877C89.4732 92.564 89.5693 92.2028 89.5693 91.8417V78.0571L84.9015 91.6016L84.2041 93.6224H83.964V93.5744L78.0456 78.9963V91.9876C78.0705 92.3007 78.1666 92.5889 78.3106 92.829C78.5508 93.2133 78.8888 93.4072 79.3691 93.4303H79.4651V93.6224H76.409V93.4303H76.6011C77.0334 93.3823 77.3465 93.2133 77.5386 92.877C77.7076 92.6369 77.7788 92.3718 77.8268 92.0588V78.8273C77.7788 78.5142 77.7058 78.2492 77.5386 78.009C77.3465 77.7208 77.0334 77.5038 76.6243 77.4789L76.5994 77.4558H76.4072V77.2637H79.0774L79.0791 77.2655Z" fill="white"/>
<path d="M97.9408 93.7928C96.4501 93.7928 95.2226 93.2627 94.2353 92.2292C93.2498 91.1938 92.7446 89.8472 92.7446 88.1875V88.1395C92.7446 86.5029 93.2267 85.1563 94.1873 84.0729C95.1497 83.0145 96.4252 82.4844 97.9888 82.4844H98.0849C99.7926 82.5573 101.068 83.0856 101.958 84.121C102.824 85.1563 103.281 86.478 103.352 88.1377V88.3779C103.352 89.7725 102.895 91 101.958 92.0584C101.02 93.1417 99.7446 93.7181 98.0849 93.791H97.9408V93.7928ZM96.9784 82.8704C96.2811 83.0394 95.7278 83.4236 95.2707 84.0498C94.6925 84.8912 94.4043 86.0475 94.4043 87.5133C94.4043 88.6447 94.5733 89.6551 94.8864 90.5694C95.2226 91.5069 95.6798 92.2292 96.2811 92.7593C96.4981 92.9514 96.7382 93.1204 96.9784 93.2396C97.3875 93.4317 97.8447 93.5278 98.3499 93.5527C98.9761 93.5278 99.5525 93.3356 100.058 92.9514C100.563 92.5672 100.972 91.989 101.26 91.2188C101.573 90.4734 101.717 89.559 101.717 88.5237C101.717 87.3923 101.548 86.4068 101.212 85.5405C100.876 84.6742 100.419 84 99.8175 83.5197C99.2162 83.0376 98.5421 82.7975 97.7487 82.7975C97.4836 82.7975 97.2186 82.8224 96.9784 82.8704Z" fill="white"/>
<path d="M107.107 85.2046C107.492 84.2671 109.729 82.4616 111.462 82.4616C112.015 82.4616 112.52 82.6537 112.905 83.1109L111.798 84.4575C111.581 83.8562 110.667 83.3261 109.801 83.3261C109.487 83.3261 109.174 83.399 108.911 83.5663C108.31 83.9505 107.949 84.2636 107.636 84.6976C107.444 84.9147 107.299 85.1779 107.106 85.491V91.8897C107.13 92.6351 107.538 93.3573 108.356 93.3804V93.5725H104.314V93.3804C105.181 93.3573 105.565 92.587 105.59 91.8168V84.4557C105.59 83.4933 105.277 83.2051 104.314 83.1802V82.9881C105.06 82.9881 105.855 82.9152 106.456 82.458H106.673C107.034 82.9152 107.082 83.3475 107.106 83.8527V85.1993L107.107 85.2046Z" fill="white"/>
<path d="M114.107 84.2657C115.022 83.0863 116.56 82.606 118.028 82.5811C118.869 82.5811 119.712 82.7251 120.385 83.0382C120.529 83.1112 120.673 83.1823 120.817 83.2784C121.418 83.6626 121.707 84.0967 121.852 84.746C121.876 84.8669 121.876 84.9861 121.876 85.1071C121.876 86.8878 119.928 87.2969 118.46 87.6811C115.646 88.5475 114.707 89.871 114.707 91.0486V91.1927C114.803 92.6834 115.813 93.4305 116.993 93.4305C117.137 93.4305 117.258 93.4305 117.402 93.4074C118.629 93.2384 120.433 91.8189 120.433 90.4722C120.433 90.1841 120.36 89.919 120.193 89.6539C121.178 89.3177 121.756 88.8837 121.901 87.9942V91.4346C121.901 92.614 122.333 92.7813 123.295 92.7813V92.9734H123.126C122.644 92.9734 122.237 93.0694 121.899 93.1904C121.563 93.3345 121.297 93.5266 121.128 93.6956H120.888C120.6 93.5266 120.431 92.9502 120.383 91.9879V91.4826C119.709 92.7581 118.41 93.6956 116.799 93.7205C116.076 93.7205 115.404 93.5995 114.851 93.3594C113.913 92.9502 113.262 92.1088 113.262 91.0735V91.0255C113.285 89.919 113.888 88.9566 114.851 88.4265C116.655 87.441 120.383 87.8733 120.383 85.2512C120.383 83.5666 119.517 82.7981 117.857 82.7981H117.736C116.148 82.7981 114.609 83.7836 114.104 85.301V84.2657H114.107Z" fill="white"/>
<path d="M129.963 94.0569H129.723V88.5246H129.988C130.036 90.0153 130.324 91.3388 131.094 92.3261C132.057 93.5535 133.403 93.8897 134.871 93.8897H134.944C136.869 93.8897 138.457 92.8793 138.48 90.9065V90.8585C138.48 88.2364 136.411 87.009 134.294 85.6623C132.153 84.3637 130.157 83.1363 130.157 80.4893L130.182 80.1051C130.664 77.652 132.443 76.8337 134.68 76.8337H134.801C135.981 76.8586 137.158 77.0987 137.977 77.5079C138.194 77.6039 138.409 77.652 138.578 77.652C139.035 77.652 139.275 77.3389 139.275 76.8105H139.515V81.5976H139.227C139.106 79.1925 137.495 77.0756 134.849 77.0756H134.801C133.046 77.0987 131.818 78.255 131.77 80.0108V80.0837C131.77 82.4657 134.369 83.9083 136.701 85.4969C138.578 86.7724 140.165 87.998 140.165 90.2359V90.476C139.973 93.2191 137.206 94.0605 134.896 94.1085H134.752C132.827 94.1085 131.288 93.1711 130.662 93.1711C130.253 93.196 130.036 93.4112 129.965 94.0605L129.963 94.0569Z" fill="white"/>
<path d="M161.068 92.0129C161.117 92.7583 161.501 93.4805 162.319 93.5037V93.6958H158.302V93.5037C159.144 93.4787 159.553 92.7103 159.553 91.94V85.8046C159.553 84.9863 159.48 84.0488 158.783 83.5916C158.446 83.3515 158.012 83.2554 157.555 83.2554C157.073 83.2554 156.52 83.3764 156.015 83.6165C155.196 84.0008 154.57 84.6999 154.065 85.4684C154.065 85.4684 150.842 88.7878 149.758 89.9423V91.4099C149.758 92.5893 150.191 92.7565 151.153 92.7814V92.9504H150.984C150.504 92.9504 150.07 93.0465 149.756 93.1674C149.395 93.3115 149.13 93.5036 148.963 93.6975H148.746C148.458 93.5054 148.266 92.9273 148.241 91.9649V91.6999C148.168 91.7479 148.097 91.7959 148.024 91.8208C147.327 92.9042 146.099 93.6975 144.631 93.6975C143.909 93.6975 143.26 93.5766 142.707 93.3613C141.744 92.9291 141.118 92.0859 141.118 91.0523V91.0043C141.141 89.8978 141.719 88.9354 142.707 88.4053C144.511 87.4198 148.239 87.8521 148.239 85.2531C148.239 83.5454 147.35 82.7751 145.64 82.7751C144.028 82.7751 142.465 83.7375 141.96 85.3012V84.2427C142.874 83.0633 144.39 82.583 145.88 82.583H146.049C146.843 82.583 147.59 82.7271 148.239 83.0153C148.383 83.0882 148.527 83.1594 148.671 83.2554C149.249 83.6397 149.561 84.0737 149.682 84.723C149.707 84.844 149.707 84.9881 149.707 85.1073C149.707 86.863 147.782 87.2971 146.291 87.6564C143.525 88.4978 142.563 89.8462 142.563 91.0007V91.1697C142.659 92.6854 143.669 93.4076 144.849 93.4076C144.969 93.4076 145.114 93.4076 145.258 93.3827C145.955 93.2866 146.652 92.8775 147.182 92.3972C147.496 92.1321 147.688 91.819 147.953 91.5309C148.314 91.0737 152.331 87.1281 152.548 86.863V84.554C152.548 83.7606 152.09 83.3746 151.297 83.3515V83.1594C152.042 83.1345 153.27 83.0864 153.871 82.6293H154.063V85.2033C154.472 84.458 154.978 83.9759 155.531 83.5436C156.205 83.0153 156.973 82.6773 157.817 82.6293H157.961C159.501 82.6293 160.919 83.7126 161.065 85.5876V92.0112L161.068 92.0129ZM154.069 92.0361C154.093 92.7814 154.501 93.5037 155.319 93.5037V93.6958H151.302V93.5037C152.144 93.5037 152.53 92.7334 152.553 91.9631V88.2577L154.069 86.8381V92.0343V92.0361Z" fill="white"/>
<path d="M173.339 89.1506H173.556C173.22 91.6037 171.367 93.7223 168.479 93.7935H168.383C165.448 93.7935 163.283 91.5325 163.283 88.1633V88.1152C163.283 84.867 165.329 82.4619 168.383 82.4619H168.479C170.429 82.5099 171.824 83.3282 172.665 84.6517L171.342 86.7935L171.149 86.6726C171.318 86.2883 171.39 85.9023 171.39 85.5661C171.39 83.9064 169.705 82.775 168.141 82.775C165.59 82.775 164.484 84.7229 164.484 86.9607C164.484 87.8751 164.676 88.8375 165.014 89.7269C165.711 91.4827 167.06 92.8542 168.96 92.8542C169.081 92.8542 169.177 92.8293 169.296 92.8293C171.148 92.6852 172.88 91.6979 173.338 89.1488L173.339 89.1506Z" fill="white"/>
<path d="M182.072 85.7812C182.072 84.9398 181.999 84.0254 181.302 83.5434C180.965 83.3263 180.556 83.2072 180.099 83.2072C179.594 83.2072 179.064 83.3512 178.535 83.5683C177.694 83.9525 177.068 84.6747 176.563 85.4201V92.0127C176.611 92.7581 176.995 93.5034 177.838 93.5034V93.6955H173.796V93.5034C174.638 93.5034 175.047 92.71 175.047 91.9398V77.0966C175.047 76.3033 174.565 75.8941 173.796 75.8692V75.6771C174.519 75.6771 175.769 75.6041 176.37 75.1719H176.563V85.1799C176.972 84.4346 177.477 83.9525 178.03 83.5202C178.727 82.967 179.498 82.6308 180.316 82.6059H180.508C182.049 82.6059 183.443 83.6643 183.587 85.5642V92.0109C183.635 92.7563 184.02 93.4785 184.815 93.5016H184.863V93.6937H180.821V93.5016C181.663 93.5016 182.072 92.7082 182.072 91.938V85.7794V85.7812Z" fill="white"/>
<path d="M187.364 88.7163C187.364 88.9565 187.412 89.2215 187.485 89.5097C188.038 91.5786 189.313 92.854 191.357 92.854C191.501 92.854 191.67 92.854 191.815 92.8291C193.666 92.6851 195.399 91.6978 195.856 89.1486H196.073C195.737 91.6017 193.883 93.7204 190.996 93.7915H190.9C187.99 93.7915 185.823 91.5306 185.823 88.1613V88.1133C185.823 84.8419 187.869 82.46 190.9 82.46H190.996C192.199 82.4849 193.33 82.8211 194.22 83.5913C194.821 84.0734 195.47 84.8419 195.47 85.6602C195.47 85.8523 195.445 86.0213 195.374 86.2134C195.182 86.7435 193.955 86.7916 192.512 86.7916H191.526C190.468 86.7916 189.385 86.7916 188.616 87.0797C187.871 87.3679 187.366 87.8731 187.366 88.7163H187.364ZM188.568 86.9125C190.564 86.2152 193.981 87.2968 194.052 85.2528C194.052 84.8686 193.931 84.4114 193.739 84.1464C193.257 83.232 192.103 82.7268 190.877 82.7268C189.073 82.7268 187.1 83.9062 187.028 86.7933C187.028 87.2256 187.124 88.2841 187.197 88.6932C187.245 87.6579 187.871 87.1527 188.568 86.9125Z" fill="white"/>
<path d="M200.14 82.51H205V82.7021L198.697 93.4075H203.436C204.159 93.4075 204.616 91.3138 204.712 90.8086H204.929C204.881 91.746 204.808 92.6853 204.76 93.6228H197.061V93.4057L203.388 82.7003H198.889C197.687 82.7003 197.349 84.4081 197.23 85.3224H197.038C197.086 84.2871 197.134 83.2767 197.207 82.2432C197.737 82.4122 198.697 82.5082 200.142 82.5082L200.14 82.51Z" fill="white"/>
<path d="M22.5634 101.108C23.1291 101.395 23.5614 101.806 23.8602 102.345C24.1591 102.882 24.3103 103.522 24.3103 104.264C24.3103 105.006 24.1609 105.634 23.8602 106.169C23.5614 106.703 23.1273 107.112 22.5634 107.395C21.9977 107.678 21.32 107.818 20.5301 107.818H18.415V100.68H20.5301C21.32 100.68 21.9977 100.822 22.5634 101.108ZM22.8018 106.445C23.323 105.924 23.5827 105.198 23.5827 104.264C23.5827 103.33 23.323 102.59 22.8018 102.064C22.2806 101.535 21.5228 101.272 20.5284 101.272H19.1284V107.226H20.5284C21.5228 107.226 22.2806 106.966 22.8018 106.445Z" fill="white"/>
<path d="M25.6159 101.037C25.5145 100.936 25.4629 100.809 25.4629 100.66C25.4629 100.51 25.5145 100.386 25.6159 100.286C25.7173 100.188 25.84 100.139 25.9841 100.139C26.1282 100.139 26.2492 100.188 26.3523 100.286C26.4537 100.386 26.5053 100.509 26.5053 100.66C26.5053 100.811 26.4537 100.936 26.3523 101.037C26.2509 101.138 26.1282 101.19 25.9841 101.19C25.84 101.19 25.719 101.138 25.6159 101.037ZM26.3417 102.243V107.82H25.6265V102.243H26.3417Z" fill="white"/>
<path d="M28.3182 107.457C27.9126 107.16 27.6867 106.758 27.6387 106.247H28.3734C28.4072 106.56 28.5548 106.815 28.8181 107.009C29.0796 107.203 29.4318 107.3 29.8747 107.3C30.2625 107.3 30.5667 107.208 30.7891 107.025C31.0097 106.841 31.1218 106.612 31.1218 106.34C31.1218 106.149 31.0613 105.993 30.9385 105.87C30.8158 105.747 30.661 105.651 30.4742 105.578C30.2874 105.507 30.0331 105.431 29.7129 105.349C29.2966 105.24 28.9604 105.132 28.7025 105.022C28.4427 104.913 28.2239 104.751 28.0443 104.536C27.8646 104.321 27.7739 104.034 27.7739 103.673C27.7739 103.401 27.8557 103.148 28.0194 102.917C28.183 102.686 28.4143 102.503 28.7131 102.366C29.012 102.229 29.3535 102.161 29.7342 102.161C30.3337 102.161 30.8176 102.312 31.184 102.617C31.5505 102.921 31.7497 103.337 31.7764 103.867H31.0613C31.0417 103.54 30.9136 103.277 30.6788 103.075C30.444 102.874 30.122 102.775 29.7129 102.775C29.3518 102.775 29.06 102.86 28.8341 103.031C28.6082 103.202 28.4961 103.412 28.4961 103.664C28.4961 103.883 28.5619 104.061 28.6953 104.2C28.8288 104.34 28.9924 104.449 29.1917 104.527C29.3891 104.605 29.6542 104.693 29.9886 104.787C30.3906 104.895 30.7108 105.002 30.9492 105.103C31.1876 105.205 31.3922 105.356 31.5629 105.553C31.7337 105.751 31.8209 106.012 31.828 106.34C31.828 106.639 31.7462 106.907 31.5825 107.142C31.4188 107.377 31.1911 107.562 30.8976 107.699C30.6041 107.834 30.2679 107.903 29.8872 107.903C29.2468 107.903 28.7238 107.756 28.32 107.459L28.3182 107.457Z" fill="white"/>
<path d="M38.1999 105.307H33.573C33.5925 105.728 33.6957 106.09 33.8789 106.39C34.0622 106.689 34.3041 106.917 34.6047 107.07C34.9036 107.223 35.2309 107.299 35.5849 107.299C36.0474 107.299 36.437 107.187 36.7536 106.961C37.0703 106.737 37.2802 106.433 37.3816 106.052H38.1376C38.0006 106.597 37.7107 107.041 37.2642 107.385C36.8177 107.728 36.2573 107.9 35.5831 107.9C35.0583 107.9 34.5887 107.783 34.1742 107.548C33.7597 107.313 33.4342 106.979 33.1994 106.547C32.9646 106.114 32.8472 105.609 32.8472 105.029C32.8472 104.449 32.9628 103.942 33.1941 103.507C33.4253 103.071 33.7491 102.736 34.1636 102.505C34.578 102.274 35.053 102.158 35.5831 102.158C36.1132 102.158 36.5793 102.274 36.9778 102.505C37.3762 102.736 37.6822 103.048 37.8975 103.439C38.1127 103.83 38.2194 104.264 38.2194 104.741C38.2194 104.987 38.2123 105.173 38.1999 105.303V105.307ZM37.2446 103.663C37.0703 103.37 36.8337 103.149 36.5348 103C36.236 102.85 35.9086 102.775 35.5546 102.775C35.0228 102.775 34.5709 102.946 34.1956 103.286C33.8202 103.626 33.6139 104.106 33.573 104.727H37.4954C37.5025 104.312 37.4189 103.957 37.2446 103.665V103.663Z" fill="white"/>
<path d="M43.7766 102.759C44.1982 103.172 44.4099 103.768 44.4099 104.552V107.82H43.7055V104.634C43.7055 104.028 43.5543 103.565 43.2501 103.245C42.9477 102.925 42.5332 102.765 42.0084 102.765C41.4836 102.765 41.0407 102.935 40.7223 103.275C40.4021 103.615 40.242 104.117 40.242 104.776V107.82H39.5269V102.243H40.242V103.193C40.4199 102.853 40.6742 102.592 41.0087 102.412C41.3431 102.233 41.7202 102.142 42.1418 102.142C42.8089 102.142 43.3533 102.348 43.7766 102.759ZM40.8254 100.925C40.982 100.762 41.183 100.68 41.4285 100.68C41.5512 100.68 41.6562 100.701 41.7451 100.746C41.8341 100.79 41.939 100.852 42.0618 100.934C42.1632 101.009 42.2521 101.066 42.3268 101.103C42.4015 101.14 42.4834 101.16 42.5723 101.16C42.688 101.16 42.7876 101.121 42.8694 101.043C42.9512 100.964 43.0028 100.85 43.0224 100.701H43.4511C43.4244 101.002 43.3266 101.235 43.1594 101.4C42.9921 101.566 42.7858 101.651 42.5421 101.651C42.4122 101.651 42.3019 101.63 42.2094 101.585C42.1169 101.541 42.0102 101.475 41.8875 101.386C41.7914 101.311 41.7096 101.256 41.6366 101.222C41.5637 101.188 41.4854 101.171 41.3965 101.171C41.151 101.171 41.0087 101.324 40.9678 101.63H40.5284C40.5693 101.324 40.6671 101.089 40.8254 100.925Z" fill="white"/>
<path d="M46.0093 103.515C46.237 103.083 46.5537 102.748 46.9593 102.513C47.3649 102.279 47.822 102.161 48.3326 102.161C48.8431 102.161 49.3217 102.284 49.7059 102.529C50.0901 102.775 50.3676 103.088 50.5384 103.469V102.243H51.2535V107.82H50.5384V106.583C50.3605 106.964 50.0812 107.279 49.6952 107.528C49.311 107.777 48.852 107.902 48.3219 107.902C47.7918 107.902 47.3631 107.782 46.9575 107.544C46.5519 107.306 46.2353 106.969 46.0076 106.534C45.7799 106.098 45.666 105.594 45.666 105.022C45.666 104.449 45.7799 103.947 46.0076 103.515H46.0093ZM50.2627 103.846C50.0795 103.506 49.8286 103.243 49.512 103.059C49.1953 102.876 48.8467 102.784 48.4642 102.784C48.0818 102.784 47.7153 102.873 47.4022 103.049C47.0891 103.227 46.8419 103.483 46.6622 103.821C46.4825 104.157 46.3918 104.557 46.3918 105.022C46.3918 105.486 46.4825 105.877 46.6622 106.222C46.8419 106.566 47.0891 106.829 47.4022 107.009C47.7153 107.188 48.0693 107.279 48.4642 107.279C48.8591 107.279 49.1953 107.187 49.512 107.003C49.8286 106.82 50.0795 106.557 50.2627 106.217C50.4459 105.877 50.5384 105.482 50.5384 105.032C50.5384 104.582 50.4459 104.187 50.2627 103.848V103.846Z" fill="white"/>
<path d="M52.9079 103.515C53.1392 103.083 53.4576 102.749 53.8632 102.514C54.2688 102.279 54.7259 102.162 55.2365 102.162C55.747 102.162 56.1686 102.281 56.5636 102.519C56.9585 102.758 57.2484 103.067 57.4317 103.448V100.262H58.1468V107.82H57.4317V106.575C57.2609 106.963 56.9816 107.281 56.5938 107.53C56.206 107.779 55.7488 107.904 55.2258 107.904C54.7028 107.904 54.2563 107.785 53.8525 107.546C53.4469 107.308 53.1303 106.972 52.9026 106.536C52.6749 106.1 52.561 105.597 52.561 105.024C52.561 104.451 52.6767 103.949 52.9079 103.517V103.515ZM57.1577 103.846C56.9745 103.506 56.7237 103.243 56.407 103.06C56.0904 102.877 55.7417 102.784 55.3592 102.784C54.9768 102.784 54.6103 102.873 54.2972 103.049C53.9842 103.227 53.7369 103.483 53.5572 103.821C53.3775 104.158 53.2868 104.558 53.2868 105.022C53.2868 105.486 53.3775 105.878 53.5572 106.223C53.7369 106.566 53.9842 106.829 54.2972 107.009C54.6103 107.189 54.9643 107.279 55.3592 107.279C55.7542 107.279 56.0904 107.187 56.407 107.004C56.7237 106.821 56.9745 106.557 57.1577 106.217C57.3409 105.878 57.4334 105.483 57.4334 105.033C57.4334 104.583 57.3409 104.188 57.1577 103.848V103.846Z" fill="white"/>
<path d="M60.8078 107.549C60.3898 107.314 60.0589 106.98 59.817 106.548C59.5751 106.115 59.4541 105.61 59.4541 105.03C59.4541 104.45 59.5768 103.945 59.8223 103.513C60.0678 103.081 60.4005 102.746 60.8239 102.511C61.2455 102.277 61.7186 102.159 62.2434 102.159C62.7682 102.159 63.2432 102.277 63.6683 102.511C64.0935 102.746 64.4279 103.081 64.6698 103.513C64.9118 103.945 65.0327 104.45 65.0327 105.03C65.0327 105.61 64.91 106.107 64.6645 106.542C64.419 106.978 64.0828 107.313 63.6541 107.549C63.2254 107.786 62.7486 107.901 62.2238 107.901C61.6991 107.901 61.2277 107.784 60.8096 107.549H60.8078ZM63.2449 107.028C63.558 106.861 63.8124 106.61 64.0063 106.272C64.2002 105.934 64.298 105.521 64.298 105.03C64.298 104.539 64.202 104.127 64.0116 103.789C63.8213 103.452 63.5687 103.2 63.2556 103.033C62.9425 102.865 62.6027 102.782 62.2345 102.782C61.8663 102.782 61.5265 102.865 61.2134 103.033C60.9003 103.2 60.6495 103.451 60.4627 103.789C60.2759 104.125 60.1817 104.539 60.1817 105.03C60.1817 105.521 60.2759 105.934 60.4627 106.272C60.6495 106.608 60.8986 106.861 61.2081 107.028C61.5176 107.195 61.8574 107.279 62.2238 107.279C62.5903 107.279 62.9318 107.195 63.2449 107.028Z" fill="white"/>
<path d="M67.7741 102.426C68.0979 102.236 68.4946 102.14 68.9642 102.14V102.885H68.7703C68.2526 102.885 67.8382 103.024 67.5251 103.303C67.212 103.582 67.0554 104.048 67.0554 104.703V107.818H66.3403V102.241H67.0554V103.232C67.212 102.885 67.4521 102.616 67.7759 102.424L67.7741 102.426Z" fill="white"/>
<path d="M70.0528 103.515C70.2805 103.083 70.5971 102.748 71.0027 102.513C71.4083 102.279 71.8655 102.161 72.376 102.161C72.8866 102.161 73.3651 102.284 73.7493 102.529C74.1336 102.775 74.4111 103.088 74.5819 103.469V102.243H75.297V107.82H74.5819V106.583C74.404 106.964 74.1247 107.279 73.7387 107.528C73.3544 107.777 72.8955 107.902 72.3654 107.902C71.8353 107.902 71.4065 107.782 71.001 107.544C70.5954 107.306 70.2787 106.969 70.051 106.534C69.8233 106.098 69.7095 105.594 69.7095 105.022C69.7095 104.449 69.8233 103.947 70.051 103.515H70.0528ZM74.3061 103.846C74.1229 103.506 73.8721 103.243 73.5555 103.059C73.2388 102.876 72.8901 102.784 72.5077 102.784C72.1252 102.784 71.7588 102.873 71.4457 103.049C71.1326 103.227 70.8853 103.483 70.7057 103.821C70.526 104.157 70.4353 104.557 70.4353 105.022C70.4353 105.486 70.526 105.877 70.7057 106.222C70.8853 106.566 71.1326 106.829 71.4457 107.009C71.7588 107.188 72.1128 107.279 72.5077 107.279C72.9026 107.279 73.2388 107.187 73.5555 107.003C73.8721 106.82 74.1229 106.557 74.3061 106.217C74.4894 105.877 74.5819 105.482 74.5819 105.032C74.5819 104.582 74.4894 104.187 74.3061 103.848V103.846Z" fill="white"/>
<path d="M84.3268 102.243L81.018 110.446H80.2727L81.356 107.79L79.0684 102.243H79.8546L81.7545 107.003L83.5921 102.243H84.3268Z" fill="white"/>
<path d="M89.6419 102.533C90.0261 102.284 90.4851 102.159 91.0152 102.159C91.5186 102.159 91.974 102.277 92.3796 102.511C92.7852 102.746 93.1018 103.081 93.3295 103.513C93.5572 103.945 93.6711 104.447 93.6711 105.02C93.6711 105.592 93.5572 106.096 93.3295 106.532C93.1018 106.968 92.7852 107.304 92.3796 107.542C91.974 107.78 91.5204 107.9 91.0152 107.9C90.51 107.9 90.035 107.775 89.6472 107.526C89.2594 107.277 88.9766 106.966 88.7987 106.592V110.452H88.0942V102.239H88.7987V103.465C88.9766 103.091 89.2559 102.778 89.6419 102.531V102.533ZM92.6767 103.821C92.497 103.483 92.2497 103.227 91.9366 103.049C91.6236 102.873 91.2696 102.784 90.8747 102.784C90.4797 102.784 90.1435 102.876 89.8269 103.059C89.5102 103.243 89.2594 103.506 89.0762 103.846C88.893 104.187 88.8005 104.58 88.8005 105.03C88.8005 105.48 88.893 105.875 89.0762 106.215C89.2594 106.557 89.5102 106.818 89.8269 107.001C90.1435 107.185 90.4922 107.277 90.8747 107.277C91.2571 107.277 91.6236 107.186 91.9366 107.007C92.2497 106.827 92.497 106.564 92.6767 106.22C92.8563 105.877 92.9471 105.477 92.9471 105.02C92.9471 104.562 92.8563 104.157 92.6767 103.819V103.821Z" fill="white"/>
<path d="M96.425 102.426C96.7488 102.236 97.1455 102.14 97.6151 102.14V102.885H97.4212C96.9035 102.885 96.489 103.024 96.176 103.303C95.8629 103.582 95.7063 104.048 95.7063 104.703V107.818H94.9912V102.241H95.7063V103.232C95.8629 102.885 96.103 102.616 96.4268 102.424L96.425 102.426Z" fill="white"/>
<path d="M99.7141 107.549C99.296 107.314 98.9652 106.98 98.7232 106.548C98.4813 106.115 98.3604 105.61 98.3604 105.03C98.3604 104.45 98.4831 103.945 98.7286 103.513C98.9741 103.081 99.3067 102.746 99.7301 102.511C100.152 102.277 100.625 102.159 101.15 102.159C101.674 102.159 102.149 102.277 102.575 102.511C103 102.746 103.334 103.081 103.576 103.513C103.818 103.945 103.939 104.45 103.939 105.03C103.939 105.61 103.816 106.107 103.571 106.542C103.325 106.978 102.989 107.313 102.56 107.549C102.132 107.784 101.655 107.901 101.13 107.901C100.605 107.901 100.134 107.784 99.7159 107.549H99.7141ZM102.149 107.028C102.462 106.861 102.717 106.61 102.911 106.272C103.105 105.934 103.203 105.521 103.203 105.03C103.203 104.539 103.106 104.127 102.916 103.789C102.726 103.452 102.473 103.2 102.16 103.033C101.847 102.865 101.507 102.782 101.139 102.782C100.771 102.782 100.431 102.865 100.118 103.033C99.8048 103.2 99.554 103.451 99.3672 103.789C99.1804 104.125 99.0861 104.539 99.0861 105.03C99.0861 105.521 99.1804 105.934 99.3672 106.272C99.554 106.608 99.803 106.861 100.113 107.028C100.422 107.195 100.762 107.279 101.128 107.279C101.495 107.279 101.836 107.195 102.149 107.028Z" fill="white"/>
<path d="M108.952 102.527C109.34 102.773 109.619 103.082 109.79 103.456V102.241H110.505V107.96C110.505 108.471 110.395 108.924 110.172 109.319C109.95 109.714 109.642 110.018 109.247 110.234C108.852 110.449 108.402 110.556 107.899 110.556C107.184 110.556 106.589 110.385 106.116 110.045C105.643 109.703 105.348 109.241 105.232 108.656H105.937C106.059 109.044 106.292 109.353 106.636 109.584C106.979 109.816 107.401 109.931 107.897 109.931C108.258 109.931 108.582 109.855 108.868 109.702C109.155 109.549 109.379 109.323 109.542 109.022C109.706 108.723 109.788 108.369 109.788 107.96V106.582C109.61 106.962 109.329 107.277 108.945 107.526C108.56 107.775 108.105 107.9 107.58 107.9C107.056 107.9 106.611 107.78 106.207 107.542C105.801 107.304 105.485 106.968 105.257 106.532C105.029 106.096 104.916 105.592 104.916 105.02C104.916 104.447 105.029 103.945 105.257 103.513C105.485 103.081 105.801 102.746 106.207 102.511C106.613 102.277 107.07 102.159 107.58 102.159C108.091 102.159 108.56 102.282 108.948 102.527H108.952ZM109.514 103.846C109.331 103.506 109.08 103.243 108.763 103.059C108.447 102.876 108.098 102.784 107.716 102.784C107.333 102.784 106.967 102.873 106.654 103.049C106.34 103.227 106.093 103.483 105.913 103.821C105.734 104.157 105.643 104.557 105.643 105.021C105.643 105.486 105.734 105.877 105.913 106.222C106.093 106.566 106.34 106.829 106.654 107.008C106.967 107.188 107.321 107.279 107.716 107.279C108.11 107.279 108.447 107.186 108.763 107.003C109.08 106.82 109.331 106.557 109.514 106.217C109.697 105.877 109.79 105.482 109.79 105.032C109.79 104.582 109.697 104.187 109.514 103.847V103.846Z" fill="white"/>
<path d="M113.573 102.426C113.897 102.236 114.294 102.14 114.764 102.14V102.885H114.57C114.052 102.885 113.637 103.024 113.324 103.303C113.011 103.582 112.855 104.048 112.855 104.703V107.818H112.14V102.241H112.855V103.232C113.011 102.885 113.251 102.616 113.575 102.424L113.573 102.426Z" fill="white"/>
<path d="M115.852 103.515C116.08 103.083 116.396 102.748 116.802 102.513C117.208 102.279 117.665 102.161 118.175 102.161C118.686 102.161 119.164 102.284 119.549 102.529C119.933 102.775 120.21 103.088 120.381 103.469V102.243H121.096V107.82H120.381V106.583C120.203 106.964 119.922 107.279 119.538 107.528C119.154 107.777 118.695 107.902 118.165 107.902C117.635 107.902 117.206 107.782 116.8 107.544C116.395 107.306 116.078 106.969 115.85 106.534C115.623 106.098 115.509 105.594 115.509 105.022C115.509 104.449 115.623 103.947 115.85 103.515H115.852ZM120.105 103.846C119.922 103.506 119.671 103.243 119.355 103.059C119.038 102.876 118.689 102.784 118.307 102.784C117.925 102.784 117.558 102.873 117.245 103.049C116.932 103.227 116.685 103.483 116.505 103.821C116.325 104.157 116.235 104.557 116.235 105.022C116.235 105.486 116.325 105.877 116.505 106.222C116.685 106.566 116.932 106.829 117.245 107.009C117.558 107.188 117.912 107.279 118.307 107.279C118.702 107.279 119.038 107.187 119.355 107.003C119.671 106.82 119.922 106.557 120.105 106.217C120.289 105.877 120.381 105.482 120.381 105.032C120.381 104.582 120.289 104.187 120.105 103.848V103.846Z" fill="white"/>
<path d="M130.97 102.759C131.382 103.172 131.587 103.768 131.587 104.552V107.82H130.882V104.634C130.882 104.028 130.736 103.565 130.443 103.245C130.149 102.925 129.751 102.765 129.248 102.765C128.744 102.765 128.305 102.939 127.992 103.286C127.679 103.633 127.522 104.138 127.522 104.798V107.822H126.818V104.636C126.818 104.029 126.672 103.567 126.378 103.247C126.085 102.926 125.684 102.766 125.172 102.766C124.66 102.766 124.229 102.941 123.916 103.288C123.603 103.634 123.447 104.14 123.447 104.8V107.824H122.731V102.247H123.447V103.208C123.624 102.861 123.875 102.597 124.203 102.416C124.53 102.236 124.893 102.146 125.295 102.146C125.779 102.146 126.202 102.261 126.567 102.492C126.931 102.724 127.195 103.063 127.358 103.513C127.508 103.071 127.766 102.733 128.13 102.498C128.495 102.263 128.908 102.146 129.372 102.146C130.025 102.146 130.559 102.352 130.971 102.763L130.97 102.759Z" fill="white"/>
<path d="M133.184 103.515C133.412 103.083 133.728 102.748 134.134 102.513C134.54 102.279 134.997 102.161 135.507 102.161C136.018 102.161 136.496 102.284 136.881 102.529C137.265 102.775 137.542 103.088 137.713 103.469V102.243H138.428V107.82H137.713V106.583C137.535 106.964 137.254 107.279 136.87 107.528C136.486 107.777 136.027 107.902 135.497 107.902C134.993 107.902 134.538 107.782 134.132 107.544C133.727 107.306 133.41 106.969 133.182 106.534C132.955 106.098 132.841 105.594 132.841 105.022C132.841 104.449 132.955 103.947 133.182 103.515H133.184ZM137.439 103.846C137.256 103.506 137.005 103.243 136.689 103.059C136.372 102.876 136.023 102.784 135.641 102.784C135.258 102.784 134.892 102.873 134.579 103.049C134.266 103.227 134.018 103.483 133.839 103.821C133.659 104.157 133.568 104.557 133.568 105.022C133.568 105.486 133.659 105.877 133.839 106.222C134.018 106.566 134.266 106.829 134.579 107.009C134.892 107.188 135.246 107.279 135.641 107.279C136.036 107.279 136.372 107.187 136.689 107.003C137.005 106.82 137.256 106.557 137.439 106.217C137.622 105.877 137.715 105.482 137.715 105.032C137.715 104.582 137.622 104.187 137.439 103.848V103.846Z" fill="white"/>
<path d="M140.084 103.515C140.315 103.083 140.634 102.749 141.039 102.514C141.445 102.279 141.902 102.162 142.413 102.162C142.923 102.162 143.345 102.281 143.74 102.519C144.135 102.758 144.425 103.067 144.608 103.448V100.262H145.323V107.82H144.608V106.575C144.437 106.963 144.158 107.281 143.77 107.53C143.382 107.779 142.925 107.904 142.402 107.904C141.879 107.904 141.433 107.785 141.029 107.546C140.623 107.308 140.307 106.972 140.079 106.536C139.851 106.1 139.737 105.597 139.737 105.024C139.737 104.451 139.853 103.949 140.084 103.517V103.515ZM144.334 103.846C144.151 103.506 143.9 103.243 143.583 103.06C143.267 102.877 142.918 102.784 142.536 102.784C142.153 102.784 141.787 102.873 141.474 103.049C141.16 103.227 140.913 103.483 140.733 103.821C140.554 104.158 140.463 104.558 140.463 105.022C140.463 105.486 140.554 105.878 140.733 106.223C140.913 106.566 141.16 106.829 141.474 107.009C141.787 107.189 142.141 107.279 142.536 107.279C142.93 107.279 143.267 107.187 143.583 107.004C143.9 106.821 144.151 106.557 144.334 106.217C144.517 105.878 144.61 105.483 144.61 105.033C144.61 104.583 144.517 104.188 144.334 103.848V103.846Z" fill="white"/>
<path d="M147.985 107.549C147.567 107.314 147.236 106.98 146.994 106.548C146.752 106.115 146.631 105.61 146.631 105.03C146.631 104.45 146.754 103.945 146.999 103.513C147.245 103.081 147.577 102.746 148.001 102.511C148.422 102.277 148.895 102.159 149.42 102.159C149.945 102.159 150.42 102.277 150.845 102.511C151.27 102.746 151.605 103.081 151.847 103.513C152.089 103.945 152.209 104.45 152.209 105.03C152.209 105.61 152.087 106.107 151.841 106.542C151.596 106.978 151.26 107.313 150.831 107.549C150.402 107.784 149.925 107.901 149.401 107.901C148.876 107.901 148.404 107.784 147.986 107.549H147.985ZM150.422 107.028C150.735 106.861 150.989 106.61 151.183 106.272C151.377 105.934 151.475 105.521 151.475 105.03C151.475 104.539 151.379 104.127 151.188 103.789C150.998 103.451 150.745 103.2 150.432 103.033C150.119 102.865 149.78 102.782 149.411 102.782C149.043 102.782 148.703 102.865 148.39 103.033C148.077 103.2 147.826 103.451 147.64 103.789C147.453 104.125 147.358 104.539 147.358 105.03C147.358 105.521 147.453 105.934 147.64 106.272C147.826 106.608 148.075 106.861 148.385 107.028C148.694 107.195 149.034 107.279 149.401 107.279C149.767 107.279 150.109 107.195 150.422 107.028Z" fill="white"/>
<path d="M154.95 102.426C155.274 102.236 155.671 102.14 156.14 102.14V102.885H155.947C155.429 102.885 155.014 103.024 154.701 103.303C154.388 103.582 154.232 104.048 154.232 104.703V107.818H153.517V102.241H154.232V103.232C154.388 102.885 154.628 102.616 154.952 102.424L154.95 102.426Z" fill="white"/>
<path d="M157.23 103.515C157.457 103.083 157.774 102.748 158.179 102.513C158.585 102.279 159.042 102.161 159.553 102.161C160.063 102.161 160.542 102.284 160.926 102.529C161.31 102.775 161.588 103.088 161.759 103.469V102.243H162.474V107.82H161.759V106.583C161.581 106.964 161.3 107.279 160.915 107.528C160.531 107.777 160.072 107.902 159.542 107.902C159.039 107.902 158.583 107.782 158.178 107.544C157.772 107.306 157.455 106.969 157.228 106.534C157 106.098 156.886 105.594 156.886 105.022C156.886 104.449 157 103.947 157.228 103.515H157.23ZM161.483 103.846C161.3 103.506 161.049 103.243 160.732 103.059C160.416 102.876 160.067 102.784 159.684 102.784C159.302 102.784 158.936 102.873 158.622 103.049C158.309 103.227 158.062 103.483 157.882 103.821C157.703 104.157 157.612 104.557 157.612 105.022C157.612 105.486 157.703 105.877 157.882 106.222C158.062 106.566 158.309 106.829 158.622 107.009C158.936 107.188 159.29 107.279 159.684 107.279C160.079 107.279 160.416 107.187 160.732 107.003C161.049 106.82 161.3 106.557 161.483 106.217C161.666 105.877 161.759 105.482 161.759 105.032C161.759 104.582 161.666 104.187 161.483 103.848V103.846Z" fill="white"/>
<path d="M174.26 102.243L172.514 107.82H171.798L170.256 103.142L168.714 107.82H167.988L166.241 102.243H166.967L168.356 107.094L169.92 102.243H170.635L172.177 107.105L173.556 102.243H174.26Z" fill="white"/>
<path d="M180.256 105.307H175.629C175.648 105.728 175.751 106.09 175.935 106.39C176.118 106.689 176.36 106.917 176.66 107.07C176.961 107.223 177.287 107.299 177.641 107.299C178.103 107.299 178.493 107.187 178.809 106.961C179.126 106.737 179.336 106.433 179.437 106.052H180.193C180.056 106.597 179.766 107.041 179.32 107.385C178.873 107.728 178.313 107.9 177.639 107.9C177.114 107.9 176.644 107.783 176.23 107.548C175.814 107.313 175.49 106.979 175.255 106.547C175.02 106.114 174.903 105.609 174.903 105.029C174.903 104.449 175.018 103.942 175.25 103.507C175.481 103.071 175.805 102.736 176.221 102.505C176.635 102.274 177.11 102.158 177.641 102.158C178.171 102.158 178.637 102.274 179.035 102.505C179.434 102.736 179.74 103.048 179.955 103.439C180.17 103.83 180.277 104.264 180.277 104.741C180.277 104.987 180.27 105.173 180.256 105.303V105.307ZM179.302 103.663C179.128 103.37 178.891 103.149 178.592 103C178.292 102.85 177.966 102.775 177.612 102.775C177.08 102.775 176.628 102.946 176.253 103.286C175.878 103.626 175.671 104.106 175.63 104.727H179.553C179.56 104.312 179.476 103.957 179.302 103.665V103.663Z" fill="white"/>
<path d="M183.141 102.528C183.525 102.282 183.98 102.16 184.505 102.16C185.03 102.16 185.473 102.277 185.873 102.512C186.275 102.747 186.59 103.081 186.818 103.513C187.046 103.946 187.159 104.447 187.159 105.02C187.159 105.593 187.046 106.096 186.818 106.532C186.59 106.968 186.273 107.304 185.868 107.543C185.462 107.781 185.009 107.9 184.503 107.9C183.972 107.9 183.514 107.779 183.13 107.537C182.746 107.295 182.465 106.98 182.287 106.593V107.818H181.583V100.26H182.287V103.478C182.47 103.09 182.755 102.773 183.139 102.528H183.141ZM186.165 103.821C185.985 103.483 185.738 103.227 185.425 103.049C185.112 102.873 184.758 102.784 184.363 102.784C183.968 102.784 183.632 102.877 183.317 103.06C183 103.243 182.749 103.506 182.566 103.846C182.383 104.188 182.291 104.581 182.291 105.031C182.291 105.481 182.383 105.876 182.566 106.216C182.749 106.557 183 106.819 183.317 107.002C183.634 107.185 183.982 107.278 184.363 107.278C184.744 107.278 185.112 107.187 185.425 107.007C185.738 106.827 185.985 106.564 186.165 106.221C186.345 105.878 186.435 105.477 186.435 105.02C186.435 104.563 186.345 104.157 186.165 103.819V103.821Z" fill="white"/>
<path d="M146.279 81.5898L147.933 79.9906L147.083 79.3857L146.055 81.5898H146.279Z" fill="white"/>
</svg>
