<svg width="404" height="382" viewBox="0 0 404 382" fill="none" xmlns="http://www.w3.org/2000/svg">
<path d="M134.378 363.437C131.855 339.828 146.188 298.144 223.704 320.275C301.219 342.406 284.002 284.129 286.911 242.573C291.275 180.239 342.667 128.157 402.757 168.556" stroke="#F1D5E0"/>
<path d="M255.361 361.026C254.173 350.613 260.699 332.251 296.306 342.108C331.914 351.965 323.937 326.247 325.22 307.927C327.144 280.448 350.666 257.549 378.298 275.439" stroke="#F1D5E0"/>
<path d="M23.3351 367.93C14.9502 332.519 27.3173 266.22 143.864 284.31C260.411 302.4 223.82 217.198 219.692 153.39C213.5 57.6784 277.378 -31.8877 372.387 17.4971" stroke="#F1D5E0"/>
</svg>
