<svg width="32" height="32" viewBox="0 0 32 32" fill="none" xmlns="http://www.w3.org/2000/svg">
<g clip-path="url(#clip0_191_564)">
<path d="M12 0.556477C12.1947 0.79395 12.314 1.08422 12.3425 1.39C12.371 1.69578 12.3075 2.0031 12.16 2.27248C11.0031 4.39517 10.3992 6.77498 10.404 9.19248C10.404 17.2345 16.96 23.7465 25.04 23.7465C26.096 23.7451 27.118 23.6385 28.106 23.4265C28.4082 23.3618 28.7228 23.3872 29.0108 23.4996C29.2987 23.6119 29.5474 23.8062 29.726 24.0585C29.915 24.321 30.0114 24.6388 30.0002 24.9621C29.989 25.2853 29.8707 25.5957 29.664 25.8445C28.0953 27.7712 26.1164 29.3237 23.8716 30.3887C21.6268 31.4536 19.1726 32.0043 16.688 32.0005C7.468 32.0005 0 24.5725 0 15.4205C0 8.53248 4.228 2.62448 10.248 0.120477C10.5478 -0.00692283 10.8809 -0.0332854 11.1969 0.0453734C11.513 0.124032 11.7949 0.303437 12 0.556477Z" fill="#D18BA5"/>
</g>
<defs>
<clipPath id="clip0_191_564">
<rect width="32" height="32" fill="white"/>
</clipPath>
</defs>
</svg>
