<svg width="122" height="123" viewBox="0 0 122 123" fill="none" xmlns="http://www.w3.org/2000/svg">
<path d="M105.229 28.1761L51.245 6.58084C42.1595 2.94634 31.8632 7.40364 28.2475 16.5365L6.76408 70.8017C3.14841 79.9345 7.58261 90.2845 16.6681 93.919L70.6521 115.514C79.7377 119.149 90.034 114.691 93.6497 105.559L115.133 51.2935C118.749 42.1606 114.315 31.8106 105.229 28.1761Z" fill="#F6F6F6"/>
<path d="M45.3842 34.0285C45.4915 33.7569 45.6633 33.6387 45.9341 33.7472C48.0097 34.5172 52.0508 36.0088 55.9972 37.5899C66.4824 41.791 68.0582 49.2033 65.7009 55.1673C62.2939 63.7866 54.1688 64.8633 46.0071 61.5932L42.6023 60.229L38.2096 71.3422C38.1023 71.6138 37.9305 71.732 37.6066 71.6023L31.9313 69.3284C31.6606 69.2199 31.5424 69.0471 31.6497 68.7755L45.3842 34.0285ZM44.897 54.4291C45.7937 54.8522 46.4962 55.1337 48.28 55.8484C52.8192 57.6671 57.2575 57.6874 59.2072 52.7547C60.7711 48.7983 58.8828 45.34 53.91 43.3476C52.0182 42.5896 50.4834 42.0384 49.8678 41.8534L44.897 54.4291Z" fill="#1B1B1B"/>
<path d="M79.3955 62.841C76.5303 61.693 75.0873 62.4966 74.6375 63.6344C74.1878 64.7721 74.6552 65.9649 77.5797 68.7054C82.8417 73.4517 83.9854 76.735 82.4643 80.5832C80.4499 85.6793 75.1861 87.2754 68.5391 84.6122C65.3501 83.3345 62.7755 81.6121 61.5186 80.0414C61.3124 79.7696 61.2473 79.6181 61.3756 79.2933L63.411 74.144C63.5184 73.8724 63.7771 73.8506 63.9502 74.0454C65.6739 76.494 68.3895 78.3367 70.8211 79.3109C73.6313 80.4369 75.3693 80.0023 75.9264 78.593C76.4835 77.1836 75.7784 75.9594 72.9626 73.2603C67.9286 68.7308 66.7849 65.4474 68.3278 61.5442C69.9563 57.4244 74.8274 54.9184 81.5841 57.6256C84.7183 58.8813 86.9256 60.2674 87.9653 61.4386C88.1715 61.7104 88.139 61.9482 88.0316 62.2198L86.1464 66.9892C86.039 67.2608 85.8123 67.3571 85.5313 67.119C84.2195 65.5263 81.7747 63.7921 79.398 62.8399L79.3955 62.841Z" fill="#1B1B1B"/>
</svg>
