<svg width="122" height="123" viewBox="0 0 122 123" fill="none" xmlns="http://www.w3.org/2000/svg">
<path d="M105.229 28.1761L51.245 6.58084C42.1595 2.94634 31.8632 7.40364 28.2475 16.5365L6.76408 70.8017C3.14841 79.9345 7.58261 90.2845 16.6681 93.919L70.6521 115.514C79.7377 119.149 90.034 114.691 93.6497 105.559L115.133 51.2935C118.749 42.1606 114.315 31.8106 105.229 28.1761Z" fill="#D18BA5"/>
<path d="M45.3839 34.0285C45.4913 33.7569 45.6631 33.6387 45.9338 33.7472C48.0095 34.5172 52.0506 36.0088 55.997 37.5899C66.4822 41.791 68.058 49.2033 65.7006 55.1673C62.2937 63.7866 54.1686 64.8633 46.0069 61.5932L42.6021 60.229L38.2094 71.3422C38.102 71.6138 37.9302 71.732 37.6064 71.6023L31.9311 69.3284C31.6603 69.2199 31.5421 69.0471 31.6495 68.7755L45.3839 34.0285ZM44.8967 54.4291C45.7934 54.8522 46.496 55.1337 48.2798 55.8484C52.8189 57.6671 57.2572 57.6874 59.207 52.7547C60.7708 48.7983 58.8825 45.34 53.9098 43.3476C52.018 42.5896 50.4832 42.0384 49.8675 41.8534L44.8967 54.4291Z" fill="white"/>
<path d="M79.3952 62.841C76.53 61.693 75.087 62.4966 74.6373 63.6344C74.1876 64.7721 74.655 65.9649 77.5795 68.7054C82.8414 73.4517 83.9851 76.735 82.464 80.5832C80.4497 85.6793 75.1858 87.2754 68.5388 84.6122C65.3498 83.3345 62.7753 81.6121 61.5184 80.0414C61.3122 79.7696 61.247 79.6181 61.3754 79.2933L63.4108 74.144C63.5181 73.8724 63.7768 73.8506 63.9499 74.0454C65.6736 76.494 68.3893 78.3367 70.8208 79.3109C73.6311 80.4369 75.3691 80.0023 75.9262 78.593C76.4832 77.1836 75.7782 75.9594 72.9624 73.2603C67.9284 68.7308 66.7847 65.4474 68.3276 61.5442C69.956 57.4244 74.8271 54.9184 81.5839 57.6256C84.718 58.8813 86.9253 60.2674 87.965 61.4386C88.1712 61.7104 88.1387 61.9482 88.0314 62.2198L86.1461 66.9892C86.0388 67.2608 85.8121 67.3571 85.5311 67.119C84.2193 65.5263 81.7744 63.7921 79.3978 62.8399L79.3952 62.841Z" fill="white"/>
</svg>
