<svg width="129" height="70" viewBox="0 0 129 70" fill="none" xmlns="http://www.w3.org/2000/svg">
<path d="M22.1802 1.2204L39.835 6.03722C45.0048 7.49502 48.3575 10.0133 49.8905 13.5914C51.4236 17.1695 51.1083 21.3986 48.9412 26.2807C48.0066 28.5257 46.7081 30.6241 45.0482 32.5766C43.4138 34.5583 41.431 36.2223 39.1939 37.4883C36.3816 39.1737 33.6391 39.9817 30.9718 39.9138C28.3019 39.8452 25.6265 39.4465 22.9488 38.716L15.0429 36.559L9.15797 48.3972L3.39887e-05 45.8987L22.1783 1.2171L22.1802 1.2204ZM27.8575 10.8373L18.5661 29.5302C18.8186 29.6464 19.0748 29.7386 19.3392 29.8107L20.2619 30.0625C24.4674 31.2572 28.0924 31.798 31.1396 31.6856C34.1987 31.5291 36.9544 28.8372 39.4042 23.6091C41.4403 19.2119 41.3673 16.3384 39.1853 14.9886C37.0473 13.6509 34.2149 12.5245 30.6907 11.6103C30.1526 11.5108 29.6415 11.3937 29.1568 11.2614L27.7726 10.8838L27.8549 10.8366L27.8575 10.8373ZM67.2364 -0.000219787L76.327 2.47997L70.3598 14.3653L78.5275 16.5938C82.9829 17.904 86.0723 19.738 87.7938 22.0924C89.5587 24.4615 89.3153 27.9808 87.0644 32.6479L76.7248 53.3878L67.5021 50.8715L77.3779 31.0658C78.409 28.9891 78.6983 27.3921 78.2469 26.2806C77.7956 25.1692 76.4045 24.2913 74.0742 23.6555L66.7794 21.5957L54.0639 47.2079L44.9733 44.7277L67.2364 -0.000219787ZM100.281 22.5287L117.935 27.3455C123.105 28.8033 126.458 31.3216 127.991 34.8997C129.524 38.4778 129.209 42.7069 127.042 47.589C126.107 49.834 124.808 51.9324 123.149 53.8849C121.514 55.8666 119.531 57.5306 117.294 58.7966C114.482 60.482 111.74 61.29 109.072 61.2221C106.402 61.1534 103.727 60.7548 101.049 60.0243L93.1432 57.8673L87.2583 69.7055L78.1004 67.2069L100.279 22.5254L100.281 22.5287ZM105.96 32.1463L96.669 50.8392C96.9215 50.9554 97.1777 51.0475 97.4421 51.1197L98.3649 51.3714C102.57 52.5662 106.195 53.107 109.243 52.9946C112.302 52.8381 115.057 50.1462 117.507 44.9181C119.543 40.5209 119.47 37.6474 117.288 36.2976C115.15 34.9598 112.318 33.8335 108.794 32.9193C108.256 32.8198 107.745 32.7027 107.26 32.5704L105.876 32.1928L105.958 32.1456L105.96 32.1463Z" fill="#D18BA5"/>
</svg>
