<svg width="117" height="117" viewBox="0 0 117 117" fill="none" xmlns="http://www.w3.org/2000/svg">
<path d="M73.1662 4.93171L17.2687 21.1145C7.86118 23.8381 2.41634 33.697 5.10733 43.135L21.0965 99.2132C23.7875 108.651 33.5953 114.094 43.0029 111.371L98.9003 95.188C108.308 92.4644 113.753 82.6055 111.062 73.1675L95.0726 17.0893C92.3816 7.65126 82.5738 2.20814 73.1662 4.93171Z" fill="#D18BA5"/>
<path d="M31.6691 45.7057C31.5891 45.4248 31.6532 45.2255 31.9335 45.1442C34.0442 44.4729 38.1491 43.16 42.2334 41.9763C53.0852 38.8313 58.837 43.718 60.5937 49.8857C63.1325 58.7994 57.355 64.6607 48.908 67.1088L45.3842 68.1301L48.6576 79.6229C48.7376 79.9038 48.6734 80.1031 48.3383 80.2003L42.4646 81.9026C42.1843 81.9838 41.9858 81.9201 41.9058 81.6392L31.671 45.7051L31.6691 45.7057ZM43.6737 62.1318C44.6404 61.9132 45.3675 61.7025 47.2137 61.1675C51.9115 59.806 55.4371 57.0852 53.9842 51.984C52.8188 47.8925 49.2234 46.3233 44.0768 47.8149C42.1189 48.3823 40.5692 48.8931 39.9694 49.1264L43.6737 62.1318Z" fill="white"/>
<path d="M69.8974 44.0635C70.2327 43.9663 70.4331 44.0295 70.6406 44.3331C71.1285 44.9807 71.7516 46.3186 72.1574 47.5345C73.388 44.628 76.0028 41.686 79.8628 40.5675C80.1981 40.4703 80.326 40.4949 80.4217 40.8308L82.1145 46.7737C82.1946 47.0546 82.1147 47.199 81.7226 47.3126C77.719 48.3515 74.8167 50.709 74.0084 52.7658L79.1512 70.8201C79.2469 71.1561 79.1102 71.3169 78.775 71.4141L72.9566 73.1002C72.5645 73.2138 72.4046 73.0772 72.3252 72.7982L66.8152 53.4551C66.1286 51.0445 65.1451 47.8077 64.3949 46.0238C64.3149 45.7428 64.3561 45.6713 64.6345 45.5907L69.8942 44.0665L69.8974 44.0635Z" fill="white"/>
</svg>
