<svg width="117" height="117" viewBox="0 0 117 117" fill="none" xmlns="http://www.w3.org/2000/svg">
<path d="M73.1657 4.93171L17.2683 21.1145C7.8607 23.8381 2.41585 33.697 5.10684 43.135L21.096 99.2132C23.787 108.651 33.5948 114.094 43.0024 111.371L98.8998 95.188C108.307 92.4644 113.752 82.6055 111.061 73.1675L95.0721 17.0893C92.3811 7.65126 82.5733 2.20814 73.1657 4.93171Z" fill="#F6F6F6"/>
<path d="M31.6688 45.7062C31.5888 45.4253 31.653 45.2259 31.9332 45.1447C34.044 44.4734 38.1489 43.1605 42.2332 41.9768C53.085 38.8318 58.8367 43.7184 60.5935 49.8862C63.1323 58.7999 57.3547 64.6612 48.9078 67.1093L45.3839 68.1305L48.6573 79.6234C48.7373 79.9042 48.6732 80.1036 48.338 80.2008L42.4643 81.903C42.1841 81.9843 41.9856 81.9206 41.9056 81.6397L31.6707 45.7056L31.6688 45.7062ZM43.6734 62.1323C44.6402 61.9137 45.3673 61.703 47.2135 61.168C51.9113 59.8065 55.4369 57.0857 53.984 51.9845C52.8186 47.893 49.2231 46.3238 44.0765 47.8154C42.1186 48.3828 40.5689 48.8936 39.9692 49.1269L43.6734 62.1323Z" fill="#1B1B1B"/>
<path d="M69.8969 44.0635C70.2322 43.9663 70.4326 44.0295 70.6401 44.3331C71.128 44.9807 71.7511 46.3186 72.1569 47.5345C73.3875 44.628 76.0023 41.686 79.8623 40.5675C80.1976 40.4703 80.3255 40.4949 80.4212 40.8308L82.1141 46.7737C82.1941 47.0546 82.1142 47.199 81.7222 47.3126C77.7185 48.3515 74.8163 50.709 74.0079 52.7658L79.1507 70.8201C79.2464 71.1561 79.1097 71.3169 78.7745 71.4141L72.9561 73.1002C72.564 73.2138 72.4041 73.0772 72.3247 72.7982L66.8147 53.4551C66.1281 51.0445 65.1446 47.8077 64.3945 46.0238C64.3144 45.7428 64.3556 45.6713 64.634 45.5907L69.8937 44.0665L69.8969 44.0635Z" fill="#1B1B1B"/>
</svg>
