<svg width="254" height="302" viewBox="0 0 254 302" fill="none" xmlns="http://www.w3.org/2000/svg">
<path d="M0.0908203 92.9996C16.9242 89.9996 47.5908 98.1996 35.5908 155C23.5908 211.8 64.5908 196.5 94.5908 196.5C139.591 196.5 179.591 230.8 153.591 276" stroke="#F1D5E0"/>
<path d="M0.0908203 184.84C10.3953 182.928 29.1677 188.155 21.822 224.364C14.4762 260.573 39.5742 250.82 57.9385 250.82C85.485 250.82 109.971 272.685 94.0551 301.5" stroke="#F1D5E0"/>
<path d="M0.0908203 1.30267C26.4244 -3.20876 74.3984 9.12247 55.626 94.5388C36.8535 179.955 100.993 156.947 147.924 156.947C218.32 156.947 280.895 208.527 240.222 276.5" stroke="#F1D5E0"/>
</svg>
