<svg width="315" height="327" viewBox="0 0 315 327" fill="none" xmlns="http://www.w3.org/2000/svg">
<path d="M267.415 236.276C250.34 235.365 222.345 220.4 246.961 167.823C271.576 115.246 228.169 120.811 198.957 113.981C155.138 103.737 123.997 61.232 159.604 23.1375" stroke="#F1D5E0"/>
<path d="M288.322 146.847C277.852 146.364 260.763 137 276.159 103.414C291.554 69.8277 264.895 73.6118 247.013 69.4312C220.189 63.1604 201.324 36.2947 223.381 11.8601" stroke="#F1D5E0"/>
<path d="M246.54 325.566C219.871 323.964 175.964 301.035 213.688 222.135C251.412 143.235 183.719 151.038 138.02 140.355C69.472 124.329 20.2822 59.8579 75.3614 2.9296" stroke="#F1D5E0"/>
</svg>
