<svg width="255" height="303" viewBox="0 0 255 303" fill="none" xmlns="http://www.w3.org/2000/svg">
<path d="M1 93.5C17.8333 90.5 48.5 98.7 36.5 155.5C24.5 212.3 65.5 197 95.5 197C140.5 197 180.5 231.3 154.5 276.5" stroke="#855747"/>
<path d="M1 185.34C11.3044 183.428 30.0769 188.655 22.7311 224.864C15.3854 261.074 40.4833 251.32 58.8477 251.32C86.3942 251.32 110.88 273.186 94.9642 302" stroke="#855747"/>
<path d="M1 1.80304C27.3336 -2.70839 75.3076 9.62284 56.5351 95.0392C37.7627 180.455 101.902 157.447 148.833 157.447C219.23 157.447 281.804 209.028 241.131 277" stroke="#855747"/>
</svg>
