<svg width="105" height="94" viewBox="0 0 105 94" fill="none" xmlns="http://www.w3.org/2000/svg">
<path d="M105.003 47.0089C105.003 40.0167 96.2922 33.3901 82.9358 29.2803C86.017 15.5973 84.6483 4.7102 78.6114 1.22519C77.2207 0.407662 75.5941 0.0199591 73.8177 0.0199591V4.81875C74.8029 4.81875 75.5941 5.01151 76.2575 5.37707C79.1691 7.05421 80.432 13.446 79.4468 21.6633C79.2109 23.6861 78.8252 25.8152 78.3558 27.9887C74.1615 26.9562 69.5815 26.1608 64.7657 25.6446C61.8762 21.6633 58.8787 18.0498 55.8614 14.8883C62.8393 8.37024 69.3875 4.79882 73.8397 4.79882V0C67.9527 0 60.2496 4.21614 52.4583 11.5318C44.667 4.26045 36.9617 0.0864084 31.0769 0.0864084V4.88523C35.5071 4.88523 42.0773 8.43449 49.0553 14.9104C46.0578 18.0742 43.0625 21.6656 40.2149 25.6468C35.377 26.1631 30.797 26.9584 26.6027 28.013C26.1112 25.8618 25.7476 23.7747 25.4897 21.7741C24.4847 13.5545 25.7255 7.16499 28.615 5.46569C29.2564 5.07798 30.0917 4.90738 31.0769 4.90738V0.108558C29.2784 0.108558 27.6519 0.496288 26.2391 1.31381C20.2243 4.79882 18.8754 15.6637 21.9809 29.3047C8.66848 33.4366 0 40.0411 0 47.0111C0 53.9811 8.71036 60.6299 22.0668 64.7397C18.9856 78.4227 20.3543 89.3098 26.3912 92.7948C27.7819 93.6123 29.4085 94 31.207 94C37.094 94 44.7971 89.7839 52.5884 82.4682C60.3796 89.7395 68.085 93.9136 73.9697 93.9136C75.7682 93.9136 77.3948 93.5259 78.8076 92.7084C84.8224 89.2234 86.1713 78.3584 83.0658 64.7175C96.3363 60.6077 105.005 53.9811 105.005 47.0111L105.003 47.0089ZM77.1369 32.659C76.3457 35.435 75.3605 38.2952 74.2474 41.1577C73.3702 39.4362 72.449 37.7148 71.4439 35.9933C70.4587 34.2719 69.4096 32.5947 68.3627 30.9596C71.402 31.4116 74.3334 31.9699 77.1369 32.659ZM67.3334 55.5719C65.6649 58.4764 63.9524 61.2303 62.1759 63.7914C58.9867 64.0706 55.7556 64.2212 52.5024 64.2212C49.2492 64.2212 46.038 64.0706 42.8708 63.8114C41.0943 61.2502 39.3597 58.5185 37.6913 55.6361C36.0647 52.8179 34.588 49.9555 33.2391 47.0731C34.5659 44.1907 36.0647 41.3061 37.6692 38.488C39.3377 35.5835 41.0502 32.8295 42.8267 30.2684C46.0159 29.9893 49.247 29.8386 52.5002 29.8386C55.7534 29.8386 58.9646 29.9893 62.1318 30.2485C63.9083 32.8096 65.6429 35.5414 67.3113 38.4237C68.9379 41.2419 70.4146 44.1043 71.7635 46.9867C70.4146 49.8691 68.9379 52.7537 67.3334 55.5719ZM74.2474 52.7737C75.4024 55.656 76.3876 58.5406 77.2009 61.3366C74.3973 62.0256 71.4439 62.6061 68.3825 63.0581C69.4316 61.4009 70.4807 59.7016 71.4637 57.9602C72.4489 56.2387 73.368 54.4973 74.2452 52.7759L74.2474 52.7737ZM52.5443 75.7309C50.554 73.666 48.5638 71.364 46.5934 68.845C48.5197 68.9314 50.4879 68.9957 52.4804 68.9957C54.4728 68.9957 56.4829 68.9536 58.4313 68.845C56.5049 71.3618 54.5147 73.6638 52.5443 75.7309ZM36.6201 63.0581C33.5807 62.6061 30.6494 62.0478 27.8458 61.3588C28.6371 58.5827 29.6223 55.7225 30.7353 52.8601C31.6125 54.5815 32.5338 56.303 33.5389 58.0244C34.5439 59.7459 35.5732 61.423 36.6201 63.0581ZM52.4363 18.2869C54.4265 20.3518 56.4168 22.6537 58.3872 25.1727C56.4609 25.0863 54.4926 25.0221 52.5002 25.0221C50.5077 25.0221 48.4977 25.0642 46.5493 25.1727C48.4756 22.6559 50.4659 20.354 52.4363 18.2869ZM36.5981 30.9596C35.5489 32.6169 34.4998 34.3162 33.5168 36.0576C32.5316 37.779 31.6125 39.5005 30.7353 41.2219C29.5804 38.3396 28.5952 35.4549 27.7819 32.659C30.5854 31.9921 33.5389 31.4116 36.6003 30.9596H36.5981ZM17.229 57.8959C9.65148 54.648 4.75191 50.3875 4.75191 47.0089C4.75191 43.6302 9.65369 39.3498 17.229 36.1218C19.0693 35.3264 21.0816 34.6152 23.1578 33.9484C24.3789 38.1645 25.9834 42.5535 27.9737 47.051C26.0055 51.5263 24.4207 55.8931 23.2217 60.0893C21.1037 59.4224 19.0914 58.6913 17.229 57.8937V57.8959ZM28.7429 88.6407C25.8313 86.9635 24.5684 80.5718 25.5536 72.3544C25.7895 70.3316 26.1752 68.2025 26.6446 66.0291C30.8389 67.0615 35.4189 67.8569 40.2347 68.3731C43.1242 72.3544 46.1217 75.9679 49.139 79.1294C42.1611 85.6475 35.6129 89.2189 31.1607 89.2189C30.1975 89.1968 29.3842 89.004 28.7429 88.6385V88.6407ZM79.5107 72.2458C80.5157 80.4654 79.2749 86.855 76.3854 88.5543C75.744 88.942 74.9087 89.1126 73.9234 89.1126C69.4933 89.1126 62.9231 85.5633 55.9451 79.0874C58.9426 75.9236 61.9379 72.3322 64.7855 68.3509C69.6234 67.8347 74.2034 67.0394 78.3977 65.9848C78.8892 68.1582 79.2748 70.2452 79.5107 72.2458ZM87.7516 57.8959C85.9112 58.6913 83.8989 59.4025 81.8227 60.0693C80.6017 55.8532 78.9971 51.4643 77.0069 46.9668C78.9751 42.4914 80.5598 38.1246 81.7588 33.9284C83.8769 34.5953 85.8892 35.3264 87.7736 36.124C95.3511 39.372 100.251 43.6324 100.251 47.0111C100.229 50.3898 95.3269 54.6701 87.7516 57.8981V57.8959Z" fill="#D18BA5"/>
<path d="M52.4802 56.8417C57.8824 56.8417 62.2618 52.4396 62.2618 47.0092C62.2618 41.5789 57.8824 37.1768 52.4802 37.1768C47.0781 37.1768 42.6987 41.5789 42.6987 47.0092C42.6987 52.4396 47.0781 56.8417 52.4802 56.8417Z" fill="#D18BA5"/>
</svg>
