<svg width="44" height="44" viewBox="0 0 44 44" fill="none" xmlns="http://www.w3.org/2000/svg">
<g clip-path="url(#clip0_190_996)">
<path d="M22 33C24.9174 33 27.7153 31.8411 29.7782 29.7782C31.8411 27.7153 33 24.9174 33 22C33 19.0826 31.8411 16.2847 29.7782 14.2218C27.7153 12.1589 24.9174 11 22 11C19.0826 11 16.2847 12.1589 14.2218 14.2218C12.1589 16.2847 11 19.0826 11 22C11 24.9174 12.1589 27.7153 14.2218 29.7782C16.2847 31.8411 19.0826 33 22 33ZM22 0C22.3647 0 22.7144 0.144866 22.9723 0.402728C23.2301 0.660591 23.375 1.01033 23.375 1.375V6.875C23.375 7.23967 23.2301 7.58941 22.9723 7.84727C22.7144 8.10513 22.3647 8.25 22 8.25C21.6353 8.25 21.2856 8.10513 21.0277 7.84727C20.7699 7.58941 20.625 7.23967 20.625 6.875V1.375C20.625 1.01033 20.7699 0.660591 21.0277 0.402728C21.2856 0.144866 21.6353 0 22 0ZM22 35.75C22.3647 35.75 22.7144 35.8949 22.9723 36.1527C23.2301 36.4106 23.375 36.7603 23.375 37.125V42.625C23.375 42.9897 23.2301 43.3394 22.9723 43.5973C22.7144 43.8551 22.3647 44 22 44C21.6353 44 21.2856 43.8551 21.0277 43.5973C20.7699 43.3394 20.625 42.9897 20.625 42.625V37.125C20.625 36.7603 20.7699 36.4106 21.0277 36.1527C21.2856 35.8949 21.6353 35.75 22 35.75ZM44 22C44 22.3647 43.8551 22.7144 43.5973 22.9723C43.3394 23.2301 42.9897 23.375 42.625 23.375H37.125C36.7603 23.375 36.4106 23.2301 36.1527 22.9723C35.8949 22.7144 35.75 22.3647 35.75 22C35.75 21.6353 35.8949 21.2856 36.1527 21.0277C36.4106 20.7699 36.7603 20.625 37.125 20.625H42.625C42.9897 20.625 43.3394 20.7699 43.5973 21.0277C43.8551 21.2856 44 21.6353 44 22ZM8.25 22C8.25 22.3647 8.10513 22.7144 7.84727 22.9723C7.58941 23.2301 7.23967 23.375 6.875 23.375H1.375C1.01033 23.375 0.660591 23.2301 0.402728 22.9723C0.144866 22.7144 0 22.3647 0 22C0 21.6353 0.144866 21.2856 0.402728 21.0277C0.660591 20.7699 1.01033 20.625 1.375 20.625H6.875C7.23967 20.625 7.58941 20.7699 7.84727 21.0277C8.10513 21.2856 8.25 21.6353 8.25 22ZM37.5567 6.44325C37.8145 6.7011 37.9593 7.05077 37.9593 7.41538C37.9593 7.77998 37.8145 8.12965 37.5567 8.3875L33.6683 12.2788C33.5404 12.4064 33.3887 12.5076 33.2217 12.5767C33.0547 12.6457 32.8758 12.6811 32.6952 12.681C32.3303 12.6808 31.9804 12.5356 31.7226 12.2774C31.595 12.1495 31.4937 11.9978 31.4247 11.8308C31.3557 11.6639 31.3202 11.4849 31.3204 11.3043C31.3206 10.9394 31.4658 10.5896 31.724 10.3317L35.6125 6.44325C35.8703 6.18548 36.22 6.04067 36.5846 6.04067C36.9492 6.04067 37.2989 6.18548 37.5567 6.44325ZM12.276 31.724C12.5338 31.9819 12.6786 32.3315 12.6786 32.6961C12.6786 33.0607 12.5338 33.4104 12.276 33.6683L8.3875 37.5567C8.12817 37.8072 7.78084 37.9458 7.42032 37.9427C7.0598 37.9395 6.71494 37.7949 6.46 37.54C6.20506 37.2851 6.06046 36.9402 6.05732 36.5797C6.05419 36.2192 6.19278 35.8718 6.44325 35.6125L10.3317 31.724C10.5896 31.4662 10.9393 31.3214 11.3039 31.3214C11.6685 31.3214 12.0182 31.4662 12.276 31.724ZM37.5567 37.5567C37.2989 37.8145 36.9492 37.9593 36.5846 37.9593C36.22 37.9593 35.8703 37.8145 35.6125 37.5567L31.724 33.6683C31.4735 33.4089 31.3349 33.0616 31.3381 32.7011C31.3412 32.3406 31.4858 31.9957 31.7407 31.7407C31.9957 31.4858 32.3406 31.3412 32.7011 31.3381C33.0616 31.3349 33.4089 31.4735 33.6683 31.724L37.5567 35.6125C37.8145 35.8703 37.9593 36.22 37.9593 36.5846C37.9593 36.9492 37.8145 37.2989 37.5567 37.5567ZM12.276 12.2788C12.0182 12.5365 11.6685 12.6813 11.3039 12.6813C10.9393 12.6813 10.5896 12.5365 10.3317 12.2788L6.44325 8.3875C6.31192 8.26066 6.20717 8.10894 6.13511 7.94118C6.06305 7.77343 6.02512 7.593 6.02353 7.41043C6.02194 7.22785 6.05673 7.0468 6.12587 6.87781C6.19501 6.70883 6.2971 6.55531 6.42621 6.42621C6.55531 6.2971 6.70883 6.19501 6.87781 6.12587C7.0468 6.05673 7.22785 6.02194 7.41043 6.02353C7.593 6.02512 7.77343 6.06305 7.94118 6.13511C8.10894 6.20717 8.26066 6.31192 8.3875 6.44325L12.276 10.3317C12.404 10.4595 12.5056 10.6112 12.575 10.7783C12.6443 10.9453 12.68 11.1244 12.68 11.3053C12.68 11.4861 12.6443 11.6652 12.575 11.8322C12.5056 11.9993 12.404 12.151 12.276 12.2788Z" fill="#F6F6F6"/>
</g>
<defs>
<clipPath id="clip0_190_996">
<rect width="44" height="44" fill="white"/>
</clipPath>
</defs>
</svg>
