<svg width="85" height="116" viewBox="0 0 85 116" fill="none" xmlns="http://www.w3.org/2000/svg">
<path d="M41.987 0C41.987 10.6118 42.9645 32.9374 69.9679 31.8354C60.4373 31.5497 41.376 37.027 41.376 61.2219C41.4167 51.4264 33.1894 31.8354 14.1282 31.8354C28.6685 31.8354 41.987 23.5092 41.987 0Z" stroke="#855747" stroke-width="2.0183"/>
<path d="M69.9371 61.2217C69.9371 66.5859 70.4317 77.8713 84.0961 77.3143C79.2734 77.1699 69.6279 79.9386 69.6279 92.169C69.6485 87.2174 65.4853 77.3143 55.8398 77.3143C63.1976 77.3143 69.9371 73.1055 69.9371 61.2217Z" stroke="#855747" stroke-width="2.0183"/>
<path d="M21.1458 68.6221C21.1458 76.6684 21.8878 93.5966 42.3844 92.761C35.1503 92.5444 20.6821 96.6975 20.6821 115.043C20.713 107.616 14.4682 92.761 0 92.761C11.0366 92.761 21.1458 86.4477 21.1458 68.6221Z" stroke="#855747" stroke-width="2.0183"/>
</svg>
