<svg width="95" height="94" viewBox="0 0 95 94" fill="none" xmlns="http://www.w3.org/2000/svg">
<path d="M0.898936 32.7769C0.898936 32.7769 -1.40284 31.1085 1.36009 28.8807L7.79631 23.0943C7.79631 23.0943 9.63893 21.1462 11.5849 22.8445L70.9838 68.0508V89.7279C70.9838 89.7279 70.956 93.1326 66.6089 92.755L0.896958 32.7769H0.898936Z" fill="#D18BA5"/>
<path d="M16.2103 46.7495L0.900941 60.742C0.900941 60.742 -0.671342 61.9188 0.900941 64.0208L8.00902 70.5205C8.00902 70.5205 9.69658 72.3428 12.1912 70.2708L28.4229 57.8987L16.2103 46.7515V46.7495Z" fill="#D18BA5"/>
<path d="M43.0883 46.8653L71.1668 25.3142L70.9839 3.753C70.9839 3.753 69.7853 -0.952445 65.784 1.49719L28.4189 35.6801L43.0863 46.8653H43.0883Z" fill="#D18BA5"/>
<path d="M66.6108 92.7851C68.2407 94.4634 70.2185 93.914 70.2185 93.914L92.0993 83.0764C94.9 81.1583 94.5064 78.7766 94.5064 78.7766V14.0531C94.5064 11.2079 91.6103 10.2248 91.6103 10.2248L72.6455 1.03573C68.5011 -1.53978 65.7859 1.49927 65.7859 1.49927C65.7859 1.49927 69.2783 -1.02628 70.9858 3.7551V89.3344C70.9858 89.9218 70.8605 90.5013 70.6121 91.0227C70.1132 92.0358 69.0298 92.9809 66.4299 92.5853L66.6128 92.7871L66.6108 92.7851Z" fill="#D18BA5"/>
</svg>
