<svg width="95" height="94" viewBox="0 0 95 94" fill="none" xmlns="http://www.w3.org/2000/svg">
<path d="M0.898936 32.7769C0.898936 32.7769 -1.40284 31.1085 1.36009 28.8807L7.79631 23.0943C7.79631 23.0943 9.63893 21.1462 11.5849 22.8445L70.9838 68.0508V89.7279C70.9838 89.7279 70.956 93.1326 66.6089 92.755L0.896958 32.7769H0.898936Z" fill="#F6F6F6"/>
<path d="M16.2103 46.7495L0.900941 60.742C0.900941 60.742 -0.671342 61.9188 0.900941 64.0208L8.00902 70.5205C8.00902 70.5205 9.69658 72.3428 12.1912 70.2708L28.4229 57.8987L16.2103 46.7515V46.7495Z" fill="#F6F6F6"/>
<path d="M43.0883 46.8653L71.1668 25.3142L70.9839 3.753C70.9839 3.753 69.7853 -0.952445 65.784 1.49719L28.4189 35.6801L43.0863 46.8653H43.0883Z" fill="#F6F6F6"/>
<path d="M66.611 92.7851C68.241 94.4634 70.2188 93.914 70.2188 93.914L92.0995 83.0764C94.9002 81.1583 94.5066 78.7766 94.5066 78.7766V14.0531C94.5066 11.2079 91.6106 10.2248 91.6106 10.2248L72.6457 1.03573C68.5014 -1.53978 65.7861 1.49927 65.7861 1.49927C65.7861 1.49927 69.2786 -1.02628 70.986 3.7551V89.3344C70.986 89.9218 70.8608 90.5013 70.6123 91.0227C70.1134 92.0358 69.0301 92.9809 66.4302 92.5853L66.613 92.7871L66.611 92.7851Z" fill="#F6F6F6"/>
</svg>
