<svg width="94" height="94" viewBox="0 0 94 94" fill="none" xmlns="http://www.w3.org/2000/svg">
<path fill-rule="evenodd" clip-rule="evenodd" d="M86.8092 45.5249C86.3857 46.7406 85.8536 48.0075 85.1871 49.3224C83.3485 52.9491 80.6045 56.6815 75.9813 60.7442L49.0679 86.7703C62.8322 85.9604 75.8123 78.0732 82.496 64.8888C85.6454 58.6762 87.0196 52.03 86.8092 45.5249ZM45.8052 50.218L19.2899 75.9363C22.0132 78.5013 25.1379 80.7327 28.6456 82.5109C32.8077 84.6208 37.1626 85.9235 41.5388 86.501C41.5188 86.3 41.5152 86.0935 41.5329 85.8802L45.8028 50.2188L45.8052 50.218ZM71.8004 57.2002C70.2499 60.2588 68.7045 62.1119 64.6521 66.271L53.6212 77.4779L60.181 32.5179C62.3888 33.4954 64.4441 34.2501 64.4441 34.2501C66.4844 34.9991 67.927 31.5907 65.9406 30.7273C65.9406 30.7273 59.9236 28.2477 56.1873 26.3536C52.6764 24.5738 47.0054 21.1283 47.0054 21.1283C45.138 20.038 43.1852 23.3314 45.0533 24.4201C45.0533 24.4201 46.7618 25.5715 48.6276 26.661L46.5029 44.4093L46.1343 44.7832L26.8383 63.635L33.3606 18.9235C35.5716 19.9027 37.6253 20.6565 37.6253 20.6565C39.6648 21.4032 41.1066 17.9963 39.1218 17.1338C39.1218 17.1338 33.1049 14.6541 29.367 12.7592C28.697 12.4196 27.9153 12.0017 27.089 11.5513C37.9509 4.79593 52.3932 4.71343 64.8763 11.0416C74.1788 15.7574 80.8472 23.6082 84.2528 32.6558C80.6752 30.5884 76.4233 32.0749 74.5887 35.6938C73.0969 38.6366 73.5296 41.9902 73.8481 45.8526C74.003 48.9237 74.0381 52.7861 71.7996 57.2018L71.8004 57.2002ZM11.0291 28.6574C3.85818 42.8029 5.88101 59.1929 14.8639 71.0286L21.4945 15.6824C17.2586 19.1208 13.6556 23.4763 11.0291 28.6574ZM66.3982 8.03942C87.7863 18.8819 96.3352 45.0102 85.4928 66.3982C74.6503 87.7862 48.5221 96.3352 27.134 85.4928C5.74598 74.6503 -2.80302 48.522 8.03943 27.134C18.8819 5.74596 45.0102 -2.80303 66.3982 8.03942ZM67.9075 5.06225C90.9391 16.7379 100.146 44.8759 88.47 67.9075C76.7943 90.939 48.6564 100.146 25.6248 88.47C2.59319 76.7943 -6.61337 48.6563 5.06226 25.6248C16.7379 2.59317 44.8759 -6.61338 67.9075 5.06225Z" fill="#D18BA5"/>
</svg>
